CSLSans-Thin.ufo
<glyph name="exclam" format="2">
  <advance width="252"/>
  <unicode hex="0021"/>
  <outline>
    <contour>
      <point x="132" y="176" type="line"/>
      <point x="137" y="415" type="line"/>
      <point x="137" y="698" type="line"/>
      <point x="115" y="698" type="line"/>
      <point x="115" y="415" type="line"/>
      <point x="120" y="176" type="line"/>
    </contour>
    <contour>
      <point x="126" y="-5" type="qcurve"/>
      <point x="153" y="-5"/>
      <point x="153" y="20" type="qcurve"/>
      <point x="153" y="28" type="line"/>
      <point x="153" y="53"/>
      <point x="128" y="53" type="qcurve"/>
      <point x="99" y="53"/>
      <point x="99" y="28" type="qcurve"/>
      <point x="99" y="20" type="line"/>
      <point x="99" y="-5"/>
    </contour>
  </outline>
</glyph>
<glyph name="dollar" format="2">
  <advance width="547"/>
  <unicode hex="0024"/>
  <outline>
    <contour>
      <point x="268" y="-82" type="line"/>
      <point x="268" y="0" type="line"/>
      <point x="120" y="5"/>
      <point x="42" y="114" type="qcurve"/>
      <point x="60" y="127" type="line"/>
      <point x="95" y="80"/>
      <point x="193" y="22"/>
      <point x="268" y="20" type="qcurve"/>
      <point x="268" y="351" type="line"/>
      <point x="237" y="357" type="line" smooth="yes"/>
      <point x="133" y="378"/>
      <point x="95" y="424" type="qcurve"/>
      <point x="58" y="464"/>
      <point x="58" y="530" type="qcurve" smooth="yes"/>
      <point x="58" y="615"/>
      <point x="173" y="698"/>
      <point x="268" y="698" type="qcurve"/>
      <point x="268" y="780" type="line"/>
      <point x="288" y="780" type="line"/>
      <point x="288" y="698" type="line"/>
      <point x="425" y="687"/>
      <point x="477" y="603" type="qcurve"/>
      <point x="459" y="590" type="line"/>
      <point x="406" y="672"/>
      <point x="288" y="678" type="qcurve"/>
      <point x="288" y="368" type="line"/>
      <point x="312" y="364" type="line" smooth="yes"/>
      <point x="418" y="344"/>
      <point x="455" y="296" type="qcurve" smooth="yes"/>
      <point x="489" y="253"/>
      <point x="489" y="185" type="qcurve" smooth="yes"/>
      <point x="489" y="95"/>
      <point x="383" y="3"/>
      <point x="288" y="0" type="qcurve"/>
      <point x="288" y="-82" type="line"/>
    </contour>
    <contour>
      <point x="268" y="678" type="line"/>
      <point x="179" y="678"/>
      <point x="80" y="605"/>
      <point x="80" y="530" type="qcurve" smooth="yes"/>
      <point x="80" y="458"/>
      <point x="176" y="387"/>
      <point x="243" y="376" type="qcurve"/>
      <point x="268" y="371" type="line"/>
    </contour>
    <contour>
      <point x="288" y="20" type="line"/>
      <point x="467" y="28"/>
      <point x="467" y="184" type="qcurve" smooth="yes"/>
      <point x="467" y="263"/>
      <point x="418" y="302" type="qcurve"/>
      <point x="371" y="336"/>
      <point x="306" y="345" type="qcurve"/>
      <point x="288" y="348" type="line"/>
    </contour>
  </outline>
</glyph>
<glyph name="percent" format="2">
  <advance width="882"/>
  <unicode hex="0025"/>
  <outline>
    <contour>
      <point x="210" y="0" type="line"/>
      <point x="694" y="698" type="line"/>
      <point x="671" y="698" type="line"/>
      <point x="187" y="0" type="line"/>
    </contour>
    <contour>
      <point x="217" y="326" type="qcurve"/>
      <point x="246" y="326"/>
      <point x="272" y="337" type="qcurve"/>
      <point x="359" y="373"/>
      <point x="359" y="518" type="qcurve"/>
      <point x="359" y="615"/>
      <point x="317" y="666" type="qcurve"/>
      <point x="280" y="710"/>
      <point x="217" y="710" type="qcurve"/>
      <point x="159" y="710"/>
      <point x="118" y="666" type="qcurve"/>
      <point x="75" y="614"/>
      <point x="75" y="518" type="qcurve"/>
      <point x="75" y="421"/>
      <point x="118" y="371" type="qcurve"/>
      <point x="159" y="326"/>
    </contour>
    <contour>
      <point x="217" y="343" type="qcurve"/>
      <point x="171" y="343"/>
      <point x="134" y="380" type="qcurve"/>
      <point x="97" y="421"/>
      <point x="97" y="502" type="qcurve"/>
      <point x="97" y="534" type="line"/>
      <point x="97" y="615"/>
      <point x="134" y="656" type="qcurve"/>
      <point x="171" y="693"/>
      <point x="217" y="693" type="qcurve"/>
      <point x="264" y="693"/>
      <point x="337" y="620"/>
      <point x="337" y="534" type="qcurve"/>
      <point x="337" y="502" type="line"/>
      <point x="337" y="417"/>
      <point x="264" y="343"/>
    </contour>
    <contour>
      <point x="665" y="-12" type="qcurve"/>
      <point x="694" y="-12"/>
      <point x="720" y="-1" type="qcurve"/>
      <point x="807" y="35"/>
      <point x="807" y="180" type="qcurve"/>
      <point x="807" y="277"/>
      <point x="765" y="328" type="qcurve"/>
      <point x="728" y="372"/>
      <point x="665" y="372" type="qcurve"/>
      <point x="607" y="372"/>
      <point x="566" y="328" type="qcurve"/>
      <point x="523" y="276"/>
      <point x="523" y="180" type="qcurve"/>
      <point x="523" y="83"/>
      <point x="566" y="33" type="qcurve"/>
      <point x="607" y="-12"/>
    </contour>
    <contour>
      <point x="665" y="5" type="qcurve"/>
      <point x="619" y="5"/>
      <point x="582" y="42" type="qcurve"/>
      <point x="545" y="83"/>
      <point x="545" y="164" type="qcurve"/>
      <point x="545" y="196" type="line"/>
      <point x="545" y="277"/>
      <point x="582" y="318" type="qcurve"/>
      <point x="619" y="355"/>
      <point x="665" y="355" type="qcurve"/>
      <point x="712" y="355"/>
      <point x="785" y="282"/>
      <point x="785" y="196" type="qcurve"/>
      <point x="785" y="164" type="line"/>
      <point x="785" y="79"/>
      <point x="712" y="5"/>
    </contour>
  </outline>
</glyph>
<glyph name="ampersand" format="2">
  <advance width="677"/>
  <unicode hex="0026"/>
  <outline>
    <contour>
      <point x="271" y="-12" type="qcurve"/>
      <point x="350" y="-12"/>
      <point x="465" y="57"/>
      <point x="497" y="116" type="qcurve"/>
      <point x="612" y="0" type="line"/>
      <point x="640" y="0" type="line"/>
      <point x="507" y="135" type="line"/>
      <point x="542" y="219"/>
      <point x="544" y="331" type="qcurve"/>
      <point x="634" y="331" type="line"/>
      <point x="634" y="351" type="line"/>
      <point x="525" y="351" type="line"/>
      <point x="525" y="227"/>
      <point x="493" y="149" type="qcurve"/>
      <point x="273" y="367" type="line"/>
      <point x="363" y="407"/>
      <point x="469" y="498"/>
      <point x="469" y="570" type="qcurve"/>
      <point x="469" y="629"/>
      <point x="383" y="710"/>
      <point x="309" y="710" type="qcurve"/>
      <point x="231" y="710"/>
      <point x="140" y="624"/>
      <point x="140" y="554" type="qcurve"/>
      <point x="140" y="505"/>
      <point x="191" y="422"/>
      <point x="239" y="371" type="qcurve"/>
      <point x="168" y="339"/>
      <point x="120" y="294" type="qcurve"/>
      <point x="70" y="243"/>
      <point x="70" y="166" type="qcurve"/>
      <point x="70" y="87"/>
      <point x="180" y="-12"/>
    </contour>
    <contour>
      <point x="259" y="380" type="qcurve"/>
      <point x="218" y="422"/>
      <point x="163" y="503"/>
      <point x="163" y="546" type="qcurve"/>
      <point x="163" y="564" type="line"/>
      <point x="163" y="618"/>
      <point x="202" y="654" type="qcurve"/>
      <point x="239" y="691"/>
      <point x="309" y="691" type="qcurve"/>
      <point x="363" y="691"/>
      <point x="446" y="630"/>
      <point x="446" y="574" type="qcurve"/>
      <point x="446" y="560" type="line"/>
      <point x="446" y="531"/>
      <point x="432" y="506" type="qcurve"/>
      <point x="395" y="440"/>
    </contour>
    <contour>
      <point x="271" y="8" type="qcurve"/>
      <point x="193" y="8"/>
      <point x="144" y="49" type="qcurve"/>
      <point x="93" y="89"/>
      <point x="93" y="156" type="qcurve"/>
      <point x="93" y="176" type="line"/>
      <point x="93" y="212"/>
      <point x="106" y="239" type="qcurve"/>
      <point x="139" y="307"/>
      <point x="253" y="358" type="qcurve"/>
      <point x="483" y="129" type="line"/>
      <point x="419" y="8"/>
    </contour>
  </outline>
</glyph>
<glyph name="parenleft" format="2">
  <advance width="332"/>
  <unicode hex="0028"/>
  <outline>
    <contour>
      <point x="289" y="-138" type="line"/>
      <point x="216" y="-73"/>
      <point x="163" y="42" type="qcurve" smooth="yes"/>
      <point x="105" y="170"/>
      <point x="105" y="311" type="qcurve" smooth="yes"/>
      <point x="105" y="452"/>
      <point x="163" y="580" type="qcurve" smooth="yes"/>
      <point x="216" y="695"/>
      <point x="289" y="760" type="qcurve"/>
      <point x="314" y="760" type="line"/>
      <point x="238" y="693"/>
      <point x="126" y="466"/>
      <point x="126" y="328" type="qcurve" smooth="yes"/>
      <point x="126" y="294" type="line" smooth="yes"/>
      <point x="126" y="162"/>
      <point x="183" y="42" type="qcurve"/>
      <point x="238" y="-70"/>
      <point x="314" y="-138" type="qcurve"/>
    </contour>
  </outline>
</glyph>
<glyph name="comma" format="2">
  <advance width="240"/>
  <unicode hex="002C"/>
  <outline>
    <contour>
      <point x="70" y="-147" type="line"/>
      <point x="103" y="-116"/>
      <point x="147" y="-27"/>
      <point x="147" y="15" type="qcurve"/>
      <point x="147" y="27" type="line"/>
      <point x="147" y="53"/>
      <point x="121" y="53" type="qcurve"/>
      <point x="93" y="53"/>
      <point x="93" y="27" type="qcurve"/>
      <point x="93" y="18" type="line"/>
      <point x="93" y="-5"/>
      <point x="125" y="-5" type="qcurve"/>
      <point x="119" y="-77"/>
      <point x="51" y="-147" type="qcurve"/>
    </contour>
  </outline>
</glyph>
<glyph name="period" format="2">
  <advance width="240"/>
  <unicode hex="002E"/>
  <outline>
    <contour>
      <point x="120" y="-5" type="qcurve" smooth="yes"/>
      <point x="93" y="-5"/>
      <point x="93" y="20" type="qcurve" smooth="yes"/>
      <point x="93" y="28" type="line" smooth="yes"/>
      <point x="93" y="53"/>
      <point x="122" y="53" type="qcurve" smooth="yes"/>
      <point x="147" y="53"/>
      <point x="147" y="28" type="qcurve" smooth="yes"/>
      <point x="147" y="20" type="line" smooth="yes"/>
      <point x="147" y="-5"/>
    </contour>
  </outline>
</glyph>
<glyph name="one" format="2">
  <advance width="600"/>
  <unicode hex="0031"/>
  <outline>
    <contour>
      <point x="354" y="0" type="line"/>
      <point x="332" y="0" type="line"/>
      <point x="332" y="675" type="line"/>
      <point x="182" y="588" type="line"/>
      <point x="182" y="612" type="line"/>
      <point x="330" y="698" type="line"/>
      <point x="354" y="698" type="line"/>
    </contour>
  </outline>
</glyph>
<glyph name="two" format="2">
  <advance width="600"/>
  <unicode hex="0032"/>
  <outline>
    <contour>
      <point x="521" y="0" type="line"/>
      <point x="521" y="20" type="line"/>
      <point x="112" y="20" type="line"/>
      <point x="370" y="279" type="line"/>
      <point x="427" y="335"/>
      <point x="486" y="449"/>
      <point x="486" y="516" type="qcurve"/>
      <point x="486" y="607"/>
      <point x="388" y="710"/>
      <point x="294" y="710" type="qcurve"/>
      <point x="208" y="710"/>
      <point x="106" y="624"/>
      <point x="87" y="555" type="qcurve"/>
      <point x="107" y="551" type="line"/>
      <point x="149" y="690"/>
      <point x="294" y="690" type="qcurve"/>
      <point x="378" y="690"/>
      <point x="462" y="600"/>
      <point x="462" y="532" type="qcurve"/>
      <point x="462" y="502" type="line"/>
      <point x="462" y="446"/>
      <point x="407" y="345"/>
      <point x="356" y="294" type="qcurve"/>
      <point x="87" y="22" type="line"/>
      <point x="87" y="0" type="line"/>
    </contour>
  </outline>
</glyph>
<glyph name="three" format="2">
  <advance width="600"/>
  <unicode hex="0033"/>
  <outline>
    <contour>
      <point x="283" y="-12" type="qcurve"/>
      <point x="379" y="-12"/>
      <point x="490" y="94"/>
      <point x="490" y="187" type="qcurve"/>
      <point x="490" y="265"/>
      <point x="407" y="356"/>
      <point x="335" y="365" type="qcurve"/>
      <point x="335" y="368" type="line"/>
      <point x="398" y="380"/>
      <point x="475" y="463"/>
      <point x="475" y="536" type="qcurve"/>
      <point x="475" y="616"/>
      <point x="373" y="710"/>
      <point x="287" y="710" type="qcurve"/>
      <point x="212" y="710"/>
      <point x="116" y="649"/>
      <point x="95" y="599" type="qcurve"/>
      <point x="113" y="591" type="line"/>
      <point x="136" y="637"/>
      <point x="217" y="690"/>
      <point x="287" y="690" type="qcurve"/>
      <point x="359" y="690"/>
      <point x="451" y="611"/>
      <point x="451" y="546" type="qcurve"/>
      <point x="451" y="522" type="line"/>
      <point x="451" y="458"/>
      <point x="357" y="376"/>
      <point x="280" y="376" type="qcurve"/>
      <point x="186" y="376" type="line"/>
      <point x="186" y="356" type="line"/>
      <point x="282" y="356" type="line"/>
      <point x="367" y="356"/>
      <point x="466" y="270"/>
      <point x="466" y="198" type="qcurve"/>
      <point x="466" y="170" type="line"/>
      <point x="466" y="98"/>
      <point x="363" y="8"/>
      <point x="283" y="8" type="qcurve"/>
      <point x="147" y="8"/>
      <point x="88" y="106" type="qcurve"/>
      <point x="70" y="95" type="line"/>
      <point x="138" y="-12"/>
    </contour>
  </outline>
</glyph>
<glyph name="five" format="2">
  <advance width="600"/>
  <unicode hex="0035"/>
  <outline>
    <contour>
      <point x="297" y="-12" type="qcurve" smooth="yes"/>
      <point x="152" y="-12"/>
      <point x="84" y="95" type="qcurve"/>
      <point x="102" y="106" type="line"/>
      <point x="161" y="8"/>
      <point x="297" y="8" type="qcurve" smooth="yes"/>
      <point x="386" y="8"/>
      <point x="481" y="110"/>
      <point x="481" y="188" type="qcurve" smooth="yes"/>
      <point x="481" y="216" type="line" smooth="yes"/>
      <point x="481" y="295"/>
      <point x="391" y="393"/>
      <point x="304" y="393" type="qcurve" smooth="yes"/>
      <point x="240" y="393"/>
      <point x="166" y="359"/>
      <point x="137" y="323" type="qcurve"/>
      <point x="114" y="326" type="line"/>
      <point x="140" y="698" type="line"/>
      <point x="481" y="698" type="line"/>
      <point x="481" y="678" type="line"/>
      <point x="158" y="678" type="line"/>
      <point x="134" y="344" type="line"/>
      <point x="137" y="343" type="line"/>
      <point x="167" y="382"/>
      <point x="247" y="413"/>
      <point x="304" y="413" type="qcurve" smooth="yes"/>
      <point x="400" y="413"/>
      <point x="505" y="302"/>
      <point x="505" y="203" type="qcurve" smooth="yes"/>
      <point x="505" y="103"/>
      <point x="393" y="-12"/>
    </contour>
  </outline>
</glyph>
<glyph name="six" format="2">
  <advance width="600"/>
  <unicode hex="0036"/>
  <outline>
    <contour>
      <point x="300" y="-12" type="qcurve"/>
      <point x="396" y="-12"/>
      <point x="511" y="108"/>
      <point x="511" y="205" type="qcurve"/>
      <point x="511" y="303"/>
      <point x="454" y="361" type="qcurve"/>
      <point x="395" y="417"/>
      <point x="299" y="417" type="qcurve"/>
      <point x="237" y="417"/>
      <point x="143" y="364"/>
      <point x="116" y="310" type="qcurve"/>
      <point x="113" y="311" type="line"/>
      <point x="151" y="554"/>
      <point x="392" y="698" type="qcurve"/>
      <point x="360" y="698" type="line"/>
      <point x="241" y="628"/>
      <point x="166" y="512" type="qcurve"/>
      <point x="87" y="387"/>
      <point x="87" y="226" type="qcurve"/>
      <point x="87" y="126"/>
      <point x="137" y="57" type="qcurve"/>
      <point x="191" y="-12"/>
    </contour>
    <contour>
      <point x="299" y="8" type="qcurve"/>
      <point x="211" y="8"/>
      <point x="111" y="112"/>
      <point x="111" y="190" type="qcurve"/>
      <point x="111" y="218" type="line"/>
      <point x="111" y="295"/>
      <point x="209" y="397"/>
      <point x="299" y="397" type="qcurve"/>
      <point x="388" y="397"/>
      <point x="487" y="295"/>
      <point x="487" y="218" type="qcurve"/>
      <point x="487" y="187" type="line"/>
      <point x="487" y="111"/>
      <point x="388" y="8"/>
    </contour>
  </outline>
</glyph>
<glyph name="seven" format="2">
  <advance width="600"/>
  <unicode hex="0037"/>
  <outline>
    <contour>
      <point x="211" y="0" type="line"/>
      <point x="187" y="0" type="line"/>
      <point x="489" y="678" type="line"/>
      <point x="77" y="678" type="line"/>
      <point x="77" y="698" type="line"/>
      <point x="512" y="698" type="line"/>
      <point x="512" y="678" type="line"/>
    </contour>
  </outline>
</glyph>
<glyph name="eight" format="2">
  <advance width="600"/>
  <unicode hex="0038"/>
  <outline>
    <contour>
      <point x="300" y="-12" type="qcurve"/>
      <point x="404" y="-12"/>
      <point x="528" y="92"/>
      <point x="528" y="180" type="qcurve"/>
      <point x="528" y="255"/>
      <point x="447" y="351"/>
      <point x="374" y="364" type="qcurve"/>
      <point x="374" y="368" type="line"/>
      <point x="435" y="380"/>
      <point x="504" y="467"/>
      <point x="504" y="535" type="qcurve"/>
      <point x="504" y="616"/>
      <point x="394" y="710"/>
      <point x="300" y="710" type="qcurve"/>
      <point x="206" y="710"/>
      <point x="96" y="616"/>
      <point x="96" y="535" type="qcurve"/>
      <point x="96" y="467"/>
      <point x="165" y="380"/>
      <point x="226" y="368" type="qcurve"/>
      <point x="226" y="364" type="line"/>
      <point x="153" y="351"/>
      <point x="72" y="255"/>
      <point x="72" y="180" type="qcurve"/>
      <point x="72" y="92"/>
      <point x="134" y="41" type="qcurve"/>
      <point x="194" y="-12"/>
    </contour>
    <contour>
      <point x="300" y="8" type="qcurve"/>
      <point x="206" y="8"/>
      <point x="152" y="53" type="qcurve"/>
      <point x="96" y="97"/>
      <point x="96" y="169" type="qcurve"/>
      <point x="96" y="195" type="line"/>
      <point x="96" y="267"/>
      <point x="152" y="311" type="qcurve"/>
      <point x="206" y="356"/>
      <point x="300" y="356" type="qcurve"/>
      <point x="392" y="356"/>
      <point x="504" y="267"/>
      <point x="504" y="195" type="qcurve"/>
      <point x="504" y="169" type="line"/>
      <point x="504" y="97"/>
      <point x="392" y="8"/>
    </contour>
    <contour>
      <point x="300" y="376" type="qcurve"/>
      <point x="218" y="376"/>
      <point x="120" y="455"/>
      <point x="120" y="521" type="qcurve"/>
      <point x="120" y="545" type="line"/>
      <point x="120" y="611"/>
      <point x="218" y="690"/>
      <point x="300" y="690" type="qcurve"/>
      <point x="382" y="690"/>
      <point x="480" y="611"/>
      <point x="480" y="545" type="qcurve"/>
      <point x="480" y="521" type="line"/>
      <point x="480" y="455"/>
      <point x="382" y="376"/>
    </contour>
  </outline>
</glyph>
<glyph name="nine" format="2">
  <advance width="600"/>
  <unicode hex="0039"/>
  <outline>
    <contour>
      <point x="211" y="0" type="line"/>
      <point x="452" y="144"/>
      <point x="490" y="387" type="qcurve"/>
      <point x="487" y="388" type="line"/>
      <point x="460" y="334"/>
      <point x="366" y="281"/>
      <point x="304" y="281" type="qcurve" smooth="yes"/>
      <point x="208" y="281"/>
      <point x="92" y="396"/>
      <point x="92" y="493" type="qcurve" smooth="yes"/>
      <point x="92" y="591"/>
      <point x="207" y="710"/>
      <point x="303" y="710" type="qcurve" smooth="yes"/>
      <point x="413" y="710"/>
      <point x="467" y="641" type="qcurve" smooth="yes"/>
      <point x="516" y="578"/>
      <point x="516" y="472" type="qcurve" smooth="yes"/>
      <point x="516" y="311"/>
      <point x="437" y="187" type="qcurve"/>
      <point x="361" y="71"/>
      <point x="243" y="0" type="qcurve"/>
    </contour>
    <contour>
      <point x="304" y="301" type="qcurve" smooth="yes"/>
      <point x="394" y="301"/>
      <point x="492" y="404"/>
      <point x="492" y="480" type="qcurve" smooth="yes"/>
      <point x="492" y="508" type="line" smooth="yes"/>
      <point x="492" y="586"/>
      <point x="390" y="690"/>
      <point x="304" y="690" type="qcurve" smooth="yes"/>
      <point x="216" y="690"/>
      <point x="116" y="588"/>
      <point x="116" y="511" type="qcurve" smooth="yes"/>
      <point x="116" y="480" type="line" smooth="yes"/>
      <point x="116" y="404"/>
      <point x="216" y="301"/>
    </contour>
  </outline>
</glyph>
<glyph name="colon" format="2">
  <advance width="258"/>
  <unicode hex="003A"/>
  <outline>
    <contour>
      <point x="129" y="-5" type="qcurve"/>
      <point x="156" y="-5"/>
      <point x="156" y="20" type="qcurve"/>
      <point x="156" y="28" type="line"/>
      <point x="156" y="53"/>
      <point x="131" y="53" type="qcurve"/>
      <point x="102" y="53"/>
      <point x="102" y="28" type="qcurve"/>
      <point x="102" y="20" type="line"/>
      <point x="102" y="-5"/>
    </contour>
    <contour>
      <point x="129" y="436" type="qcurve"/>
      <point x="156" y="436"/>
      <point x="156" y="461" type="qcurve"/>
      <point x="156" y="469" type="line"/>
      <point x="156" y="494"/>
      <point x="131" y="494" type="qcurve"/>
      <point x="102" y="494"/>
      <point x="102" y="469" type="qcurve"/>
      <point x="102" y="461" type="line"/>
      <point x="102" y="436"/>
    </contour>
  </outline>
</glyph>
<glyph name="semicolon" format="2">
  <advance width="258"/>
  <unicode hex="003B"/>
  <outline>
    <contour>
      <point x="79" y="-147" type="line"/>
      <point x="112" y="-116"/>
      <point x="156" y="-27"/>
      <point x="156" y="15" type="qcurve"/>
      <point x="156" y="27" type="line"/>
      <point x="156" y="53"/>
      <point x="130" y="53" type="qcurve"/>
      <point x="102" y="53"/>
      <point x="102" y="27" type="qcurve"/>
      <point x="102" y="18" type="line"/>
      <point x="102" y="-5"/>
      <point x="134" y="-5" type="qcurve"/>
      <point x="128" y="-77"/>
      <point x="60" y="-147" type="qcurve"/>
    </contour>
    <contour>
      <point x="128" y="436" type="qcurve"/>
      <point x="155" y="436"/>
      <point x="155" y="461" type="qcurve"/>
      <point x="155" y="469" type="line"/>
      <point x="155" y="494"/>
      <point x="130" y="494" type="qcurve"/>
      <point x="101" y="494"/>
      <point x="101" y="469" type="qcurve"/>
      <point x="101" y="461" type="line"/>
      <point x="101" y="436"/>
    </contour>
  </outline>
</glyph>
<glyph name="question" format="2">
  <advance width="456"/>
  <unicode hex="003F"/>
  <outline>
    <contour>
      <point x="220" y="176" type="line"/>
      <point x="220" y="330" type="line"/>
      <point x="317" y="339"/>
      <point x="421" y="443"/>
      <point x="421" y="531" type="qcurve"/>
      <point x="421" y="612"/>
      <point x="323" y="710"/>
      <point x="236" y="710" type="qcurve"/>
      <point x="79" y="710"/>
      <point x="37" y="559" type="qcurve"/>
      <point x="57" y="554" type="line"/>
      <point x="75" y="620"/>
      <point x="161" y="691"/>
      <point x="236" y="691" type="qcurve"/>
      <point x="313" y="691"/>
      <point x="398" y="608"/>
      <point x="398" y="542" type="qcurve"/>
      <point x="398" y="516" type="line"/>
      <point x="398" y="443"/>
      <point x="295" y="352"/>
      <point x="198" y="349" type="qcurve"/>
      <point x="198" y="176" type="line"/>
    </contour>
    <contour>
      <point x="209" y="-5" type="qcurve"/>
      <point x="236" y="-5"/>
      <point x="236" y="20" type="qcurve"/>
      <point x="236" y="28" type="line"/>
      <point x="236" y="53"/>
      <point x="211" y="53" type="qcurve"/>
      <point x="182" y="53"/>
      <point x="182" y="28" type="qcurve"/>
      <point x="182" y="20" type="line"/>
      <point x="182" y="-5"/>
    </contour>
  </outline>
</glyph>
<glyph name="at" format="2">
  <advance width="880"/>
  <unicode hex="0040"/>
  <outline>
    <contour>
      <point x="676" y="-121" type="line"/>
      <point x="676" y="-103" type="line"/>
      <point x="440" y="-103" type="line"/>
      <point x="290" y="-103"/>
      <point x="191" y="2" type="qcurve"/>
      <point x="144" y="52"/>
      <point x="92" y="190"/>
      <point x="92" y="274" type="qcurve"/>
      <point x="92" y="326" type="line"/>
      <point x="92" y="487"/>
      <point x="292" y="692"/>
      <point x="442" y="692" type="qcurve"/>
      <point x="588" y="692"/>
      <point x="689" y="599" type="qcurve"/>
      <point x="788" y="504"/>
      <point x="788" y="352" type="qcurve"/>
      <point x="788" y="305" type="line"/>
      <point x="788" y="201"/>
      <point x="722" y="87"/>
      <point x="668" y="87" type="qcurve"/>
      <point x="633" y="87"/>
      <point x="594" y="130"/>
      <point x="594" y="163" type="qcurve"/>
      <point x="594" y="496" type="line"/>
      <point x="574" y="496" type="line"/>
      <point x="574" y="433" type="line"/>
      <point x="571" y="433" type="line"/>
      <point x="557" y="462"/>
      <point x="491" y="508"/>
      <point x="436" y="508" type="qcurve"/>
      <point x="355" y="508"/>
      <point x="264" y="398"/>
      <point x="264" y="287" type="qcurve"/>
      <point x="264" y="178"/>
      <point x="355" y="69"/>
      <point x="436" y="69" type="qcurve"/>
      <point x="490" y="69"/>
      <point x="559" y="118"/>
      <point x="572" y="148" type="qcurve"/>
      <point x="575" y="148" type="line"/>
      <point x="590" y="69"/>
      <point x="668" y="69" type="qcurve"/>
      <point x="740" y="69"/>
      <point x="777" y="145" type="qcurve"/>
      <point x="810" y="222"/>
      <point x="810" y="330" type="qcurve"/>
      <point x="810" y="510"/>
      <point x="702" y="612" type="qcurve"/>
      <point x="592" y="710"/>
      <point x="442" y="710" type="qcurve"/>
      <point x="285" y="710"/>
      <point x="177" y="600" type="qcurve"/>
      <point x="126" y="547"/>
      <point x="70" y="395"/>
      <point x="70" y="300" type="qcurve"/>
      <point x="70" y="199"/>
      <point x="127" y="42"/>
      <point x="178" y="-11" type="qcurve"/>
      <point x="286" y="-121"/>
      <point x="440" y="-121" type="qcurve"/>
    </contour>
    <contour>
      <point x="436" y="87" type="qcurve"/>
      <point x="363" y="87"/>
      <point x="286" y="184"/>
      <point x="286" y="268" type="qcurve"/>
      <point x="286" y="306" type="line"/>
      <point x="286" y="392"/>
      <point x="363" y="490"/>
      <point x="436" y="490" type="qcurve"/>
      <point x="490" y="490"/>
      <point x="532" y="455" type="qcurve"/>
      <point x="574" y="417"/>
      <point x="574" y="362" type="qcurve"/>
      <point x="574" y="212" type="line"/>
      <point x="574" y="157"/>
      <point x="490" y="87"/>
    </contour>
  </outline>
</glyph>
<glyph name="B" format="2">
  <advance width="615"/>
  <unicode hex="0042"/>
  <outline>
    <contour>
      <point x="108" y="0" type="line"/>
      <point x="108" y="698" type="line"/>
      <point x="360" y="698" type="line" smooth="yes"/>
      <point x="435" y="698"/>
      <point x="518" y="612"/>
      <point x="518" y="528" type="qcurve" smooth="yes"/>
      <point x="518" y="401"/>
      <point x="420" y="371" type="qcurve"/>
      <point x="420" y="369" type="line"/>
      <point x="486" y="357"/>
      <point x="550" y="263"/>
      <point x="550" y="189" type="qcurve" smooth="yes"/>
      <point x="550" y="102"/>
      <point x="462" y="0"/>
      <point x="376" y="0" type="qcurve" smooth="yes"/>
    </contour>
    <contour>
      <point x="360" y="378" type="line" smooth="yes"/>
      <point x="428" y="378"/>
      <point x="462" y="417" type="qcurve"/>
      <point x="494" y="458"/>
      <point x="494" y="507" type="qcurve" smooth="yes"/>
      <point x="494" y="549" type="line" smooth="yes"/>
      <point x="494" y="599"/>
      <point x="462" y="639" type="qcurve"/>
      <point x="428" y="678"/>
      <point x="360" y="678" type="qcurve" smooth="yes"/>
      <point x="130" y="678" type="line"/>
      <point x="130" y="378" type="line"/>
    </contour>
    <contour>
      <point x="376" y="20" type="line" smooth="yes"/>
      <point x="450" y="20"/>
      <point x="490" y="66" type="qcurve"/>
      <point x="526" y="110"/>
      <point x="526" y="168" type="qcurve" smooth="yes"/>
      <point x="526" y="210" type="line" smooth="yes"/>
      <point x="526" y="266"/>
      <point x="490" y="313" type="qcurve"/>
      <point x="449" y="358"/>
      <point x="376" y="358" type="qcurve" smooth="yes"/>
      <point x="130" y="358" type="line"/>
      <point x="130" y="20" type="line"/>
    </contour>
  </outline>
</glyph>
<glyph name="C" format="2">
  <advance width="610"/>
  <unicode hex="0043"/>
  <outline>
    <contour>
      <point x="329" y="-12" type="qcurve"/>
      <point x="410" y="-12"/>
      <point x="523" y="70"/>
      <point x="550" y="140" type="qcurve"/>
      <point x="531" y="148" type="line"/>
      <point x="505" y="82"/>
      <point x="404" y="8"/>
      <point x="329" y="8" type="qcurve"/>
      <point x="219" y="8"/>
      <point x="94" y="166"/>
      <point x="94" y="328" type="qcurve"/>
      <point x="94" y="370" type="line"/>
      <point x="94" y="532"/>
      <point x="219" y="690"/>
      <point x="329" y="690" type="qcurve"/>
      <point x="467" y="690"/>
      <point x="526" y="558" type="qcurve"/>
      <point x="545" y="567" type="line"/>
      <point x="516" y="632"/>
      <point x="406" y="710"/>
      <point x="329" y="710" type="qcurve"/>
      <point x="204" y="710"/>
      <point x="70" y="530"/>
      <point x="70" y="349" type="qcurve"/>
      <point x="70" y="168"/>
      <point x="204" y="-12"/>
    </contour>
  </outline>
</glyph>
<glyph name="F" format="2">
  <advance width="535"/>
  <unicode hex="0046"/>
  <outline>
    <contour>
      <point x="130" y="0" type="line"/>
      <point x="130" y="344" type="line"/>
      <point x="467" y="344" type="line"/>
      <point x="467" y="364" type="line"/>
      <point x="130" y="364" type="line"/>
      <point x="130" y="678" type="line"/>
      <point x="481" y="678" type="line"/>
      <point x="481" y="698" type="line"/>
      <point x="108" y="698" type="line"/>
      <point x="108" y="0" type="line"/>
    </contour>
  </outline>
</glyph>
<glyph name="K" format="2">
  <advance width="572"/>
  <unicode hex="004B"/>
  <outline>
    <contour>
      <point x="552" y="0" type="line"/>
      <point x="280" y="403" type="line"/>
      <point x="549" y="698" type="line"/>
      <point x="521" y="698" type="line"/>
      <point x="327" y="484"/>
      <point x="132" y="271" type="qcurve"/>
      <point x="130" y="271" type="line"/>
      <point x="130" y="698" type="line"/>
      <point x="108" y="698" type="line"/>
      <point x="108" y="0" type="line"/>
      <point x="130" y="0" type="line"/>
      <point x="130" y="239" type="line"/>
      <point x="265" y="387" type="line"/>
      <point x="526" y="0" type="line"/>
    </contour>
  </outline>
</glyph>
<glyph name="L" format="2">
  <advance width="475"/>
  <unicode hex="004C"/>
  <outline>
    <contour>
      <point x="108" y="0" type="line"/>
      <point x="108" y="698" type="line"/>
      <point x="130" y="698" type="line"/>
      <point x="130" y="20" type="line"/>
      <point x="455" y="20" type="line"/>
      <point x="455" y="0" type="line"/>
    </contour>
  </outline>
</glyph>
<glyph name="N" format="2">
  <advance width="692"/>
  <unicode hex="004E"/>
  <outline>
    <contour>
      <point x="552" y="0" type="line"/>
      <point x="132" y="671" type="line"/>
      <point x="129" y="671" type="line"/>
      <point x="129" y="0" type="line"/>
      <point x="108" y="0" type="line"/>
      <point x="108" y="698" type="line"/>
      <point x="140" y="698" type="line"/>
      <point x="560" y="27" type="line"/>
      <point x="563" y="27" type="line"/>
      <point x="563" y="698" type="line"/>
      <point x="584" y="698" type="line"/>
      <point x="584" y="0" type="line"/>
    </contour>
  </outline>
</glyph>
<glyph name="P" format="2">
  <advance width="594"/>
  <unicode hex="0050"/>
  <outline>
    <contour>
      <point x="130" y="0" type="line"/>
      <point x="130" y="322" type="line"/>
      <point x="376" y="322" type="line"/>
      <point x="462" y="322"/>
      <point x="550" y="424"/>
      <point x="550" y="510" type="qcurve"/>
      <point x="550" y="596"/>
      <point x="462" y="698"/>
      <point x="376" y="698" type="qcurve"/>
      <point x="108" y="698" type="line"/>
      <point x="108" y="0" type="line"/>
    </contour>
    <contour>
      <point x="376" y="342" type="qcurve"/>
      <point x="130" y="342" type="line"/>
      <point x="130" y="678" type="line"/>
      <point x="376" y="678" type="line"/>
      <point x="449" y="678"/>
      <point x="490" y="633" type="qcurve"/>
      <point x="526" y="587"/>
      <point x="526" y="531" type="qcurve"/>
      <point x="526" y="489" type="line"/>
      <point x="526" y="431"/>
      <point x="490" y="387" type="qcurve"/>
      <point x="449" y="342"/>
    </contour>
  </outline>
</glyph>
<glyph name="Q" format="2">
  <advance width="680"/>
  <unicode hex="0051"/>
  <outline>
    <contour>
      <point x="340" y="8" type="qcurve"/>
      <point x="225" y="8"/>
      <point x="94" y="169"/>
      <point x="94" y="328" type="qcurve"/>
      <point x="94" y="370" type="line"/>
      <point x="94" y="529"/>
      <point x="225" y="690"/>
      <point x="340" y="690" type="qcurve"/>
      <point x="455" y="690"/>
      <point x="586" y="529"/>
      <point x="586" y="370" type="qcurve"/>
      <point x="586" y="328" type="line"/>
      <point x="586" y="169"/>
      <point x="455" y="8"/>
    </contour>
    <contour>
      <point x="508" y="35"/>
      <point x="541" y="78" type="qcurve"/>
      <point x="610" y="168"/>
      <point x="610" y="349" type="qcurve"/>
      <point x="610" y="530"/>
      <point x="471" y="710"/>
      <point x="340" y="710" type="qcurve"/>
      <point x="209" y="710"/>
      <point x="70" y="530"/>
      <point x="70" y="349" type="qcurve"/>
      <point x="70" y="168"/>
      <point x="209" y="-12"/>
      <point x="340" y="-12" type="qcurve"/>
      <point x="394" y="-12"/>
      <point x="438" y="3" type="qcurve"/>
      <point x="648" y="-118" type="line"/>
      <point x="658" y="-101" type="line"/>
      <point x="461" y="13" type="line"/>
    </contour>
  </outline>
</glyph>
<glyph name="T" format="2">
  <advance width="560"/>
  <unicode hex="0054"/>
  <outline>
    <contour>
      <point x="291" y="0" type="line"/>
      <point x="291" y="678" type="line"/>
      <point x="543" y="678" type="line"/>
      <point x="543" y="698" type="line"/>
      <point x="17" y="698" type="line"/>
      <point x="17" y="678" type="line"/>
      <point x="269" y="678" type="line"/>
      <point x="269" y="0" type="line"/>
    </contour>
  </outline>
</glyph>
<glyph name="U" format="2">
  <advance width="652"/>
  <unicode hex="0055"/>
  <outline>
    <contour>
      <point x="326" y="-12" type="qcurve"/>
      <point x="452" y="-12"/>
      <point x="552" y="114"/>
      <point x="552" y="270" type="qcurve"/>
      <point x="552" y="698" type="line"/>
      <point x="530" y="698" type="line"/>
      <point x="530" y="268" type="line"/>
      <point x="530" y="126"/>
      <point x="442" y="8"/>
      <point x="326" y="8" type="qcurve"/>
      <point x="208" y="8"/>
      <point x="166" y="67" type="qcurve"/>
      <point x="122" y="126"/>
      <point x="122" y="268" type="qcurve"/>
      <point x="122" y="698" type="line"/>
      <point x="100" y="698" type="line"/>
      <point x="100" y="270" type="line"/>
      <point x="100" y="114"/>
      <point x="200" y="-12"/>
    </contour>
  </outline>
</glyph>
<glyph name="backslash" format="2">
  <advance width="313"/>
  <unicode hex="005C"/>
  <outline>
    <contour>
      <point x="274" y="-151" type="line"/>
      <point x="41" y="740" type="line"/>
      <point x="61" y="740" type="line"/>
      <point x="294" y="-151" type="line"/>
    </contour>
  </outline>
</glyph>
<glyph name="grave" format="2">
  <advance width="600"/>
  <unicode hex="0060"/>
  <outline>
    <contour>
      <point x="317" y="587" type="line"/>
      <point x="332" y="597" type="line"/>
      <point x="221" y="751" type="line"/>
      <point x="202" y="739" type="line"/>
    </contour>
  </outline>
</glyph>
<glyph name="f" format="2">
  <advance width="285"/>
  <unicode hex="0066"/>
  <outline>
    <contour>
      <point x="123" y="0" type="line"/>
      <point x="123" y="487" type="line"/>
      <point x="30" y="487" type="line"/>
      <point x="30" y="506" type="line"/>
      <point x="123" y="506" type="line"/>
      <point x="123" y="711" type="line"/>
      <point x="124" y="740"/>
      <point x="152" y="740" type="qcurve" smooth="yes"/>
      <point x="260" y="740" type="line"/>
      <point x="260" y="721" type="line"/>
      <point x="144" y="721" type="line"/>
      <point x="144" y="506" type="line"/>
      <point x="260" y="506" type="line"/>
      <point x="260" y="487" type="line"/>
      <point x="144" y="487" type="line"/>
      <point x="144" y="0" type="line"/>
    </contour>
  </outline>
</glyph>
<glyph name="g" format="2">
  <advance width="527"/>
  <unicode hex="0067"/>
  <outline>
    <contour>
      <point x="262" y="-212" type="qcurve"/>
      <point x="150" y="-212"/>
      <point x="50" y="-141"/>
      <point x="50" y="-82" type="qcurve"/>
      <point x="50" y="6"/>
      <point x="149" y="38" type="qcurve"/>
      <point x="149" y="41" type="line"/>
      <point x="96" y="56"/>
      <point x="96" y="108" type="qcurve"/>
      <point x="96" y="168"/>
      <point x="181" y="194" type="qcurve"/>
      <point x="181" y="197" type="line"/>
      <point x="90" y="237"/>
      <point x="90" y="349" type="qcurve"/>
      <point x="90" y="426"/>
      <point x="182" y="518"/>
      <point x="263" y="518" type="qcurve"/>
      <point x="303" y="518"/>
      <point x="335" y="506" type="qcurve"/>
      <point x="501" y="506" type="line"/>
      <point x="501" y="487" type="line"/>
      <point x="371" y="487" type="line"/>
      <point x="402" y="466"/>
      <point x="436" y="395"/>
      <point x="436" y="349" type="qcurve"/>
      <point x="436" y="272"/>
      <point x="340" y="180"/>
      <point x="263" y="180" type="qcurve"/>
      <point x="242" y="180"/>
      <point x="207" y="187" type="qcurve"/>
      <point x="116" y="163"/>
      <point x="116" y="109" type="qcurve"/>
      <point x="116" y="53"/>
      <point x="203" y="53" type="qcurve"/>
      <point x="338" y="53" type="line"/>
      <point x="501" y="53"/>
      <point x="501" y="-65" type="qcurve"/>
      <point x="501" y="-212"/>
    </contour>
    <contour>
      <point x="263" y="199" type="qcurve"/>
      <point x="335" y="199"/>
      <point x="412" y="274"/>
      <point x="412" y="330" type="qcurve"/>
      <point x="412" y="368" type="line"/>
      <point x="412" y="424"/>
      <point x="335" y="499"/>
      <point x="263" y="499" type="qcurve"/>
      <point x="191" y="499"/>
      <point x="114" y="424"/>
      <point x="114" y="368" type="qcurve"/>
      <point x="114" y="330" type="line"/>
      <point x="114" y="272"/>
      <point x="195" y="199"/>
    </contour>
    <contour>
      <point x="287" y="-193" type="line"/>
      <point x="375" y="-193"/>
      <point x="479" y="-130"/>
      <point x="479" y="-65" type="qcurve"/>
      <point x="479" y="-19"/>
      <point x="416" y="33"/>
      <point x="335" y="33" type="qcurve"/>
      <point x="180" y="33" type="line"/>
      <point x="72" y="6"/>
      <point x="72" y="-83" type="qcurve"/>
      <point x="72" y="-133"/>
      <point x="161" y="-193"/>
      <point x="238" y="-193" type="qcurve"/>
    </contour>
  </outline>
</glyph>
<glyph name="i" format="2">
  <advance width="231"/>
  <unicode hex="0069"/>
  <outline>
    <contour>
      <point x="115" y="673" type="qcurve"/>
      <point x="138" y="673"/>
      <point x="138" y="694" type="qcurve"/>
      <point x="138" y="701" type="line"/>
      <point x="138" y="722"/>
      <point x="115" y="722" type="qcurve"/>
      <point x="92" y="722"/>
      <point x="92" y="701" type="qcurve"/>
      <point x="92" y="694" type="line"/>
      <point x="92" y="673"/>
    </contour>
    <contour>
      <point x="126" y="0" type="line"/>
      <point x="126" y="506" type="line"/>
      <point x="105" y="506" type="line"/>
      <point x="105" y="0" type="line"/>
    </contour>
  </outline>
</glyph>
<glyph name="l" format="2">
  <advance width="251"/>
  <unicode hex="006C"/>
  <outline>
    <contour>
      <point x="211" y="0" type="line"/>
      <point x="211" y="19" type="line"/>
      <point x="126" y="19" type="line"/>
      <point x="126" y="740" type="line"/>
      <point x="105" y="740" type="line"/>
      <point x="105" y="29" type="line"/>
      <point x="105" y="1"/>
      <point x="134" y="0" type="qcurve"/>
    </contour>
  </outline>
</glyph>
<glyph name="m" format="2">
  <advance width="879"/>
  <unicode hex="006D"/>
  <outline>
    <contour>
      <point x="784" y="0" type="line"/>
      <point x="784" y="325" type="line"/>
      <point x="784" y="516"/>
      <point x="611" y="518" type="qcurve"/>
      <point x="540" y="518"/>
      <point x="459" y="456"/>
      <point x="445" y="406" type="qcurve"/>
      <point x="441" y="406" type="line"/>
      <point x="407" y="518"/>
      <point x="282" y="518" type="qcurve"/>
      <point x="216" y="518"/>
      <point x="142" y="466"/>
      <point x="129" y="430" type="qcurve"/>
      <point x="126" y="430" type="line"/>
      <point x="126" y="506" type="line"/>
      <point x="105" y="506" type="line"/>
      <point x="105" y="0" type="line"/>
      <point x="126" y="0" type="line"/>
      <point x="126" y="362" type="line"/>
      <point x="126" y="430"/>
      <point x="220" y="499"/>
      <point x="280" y="499" type="qcurve"/>
      <point x="434" y="499"/>
      <point x="434" y="322" type="qcurve"/>
      <point x="434" y="0" type="line"/>
      <point x="455" y="0" type="line"/>
      <point x="455" y="360" type="line"/>
      <point x="455" y="426"/>
      <point x="501" y="465" type="qcurve"/>
      <point x="548" y="499"/>
      <point x="609" y="499" type="qcurve"/>
      <point x="684" y="499"/>
      <point x="763" y="414"/>
      <point x="763" y="322" type="qcurve"/>
      <point x="763" y="0" type="line"/>
    </contour>
  </outline>
</glyph>
<glyph name="t" format="2">
  <advance width="310"/>
  <unicode hex="0074"/>
  <outline>
    <contour>
      <point x="154" y="0" type="line"/>
      <point x="125" y="1"/>
      <point x="125" y="29" type="qcurve" smooth="yes"/>
      <point x="125" y="487" type="line"/>
      <point x="30" y="487" type="line"/>
      <point x="30" y="506" type="line"/>
      <point x="102" y="506" type="line" smooth="yes"/>
      <point x="116" y="506"/>
      <point x="125" y="517"/>
      <point x="125" y="531" type="qcurve" smooth="yes"/>
      <point x="125" y="650" type="line"/>
      <point x="146" y="650" type="line"/>
      <point x="146" y="506" type="line"/>
      <point x="267" y="506" type="line"/>
      <point x="267" y="487" type="line"/>
      <point x="146" y="487" type="line"/>
      <point x="146" y="19" type="line"/>
      <point x="259" y="19" type="line"/>
      <point x="259" y="0" type="line"/>
    </contour>
  </outline>
</glyph>
<glyph name="v" format="2">
  <advance width="452"/>
  <unicode hex="0076"/>
  <outline>
    <contour>
      <point x="213" y="0" type="line"/>
      <point x="25" y="506" type="line"/>
      <point x="47" y="506" type="line"/>
      <point x="225" y="24" type="line"/>
      <point x="228" y="24" type="line"/>
      <point x="406" y="506" type="line"/>
      <point x="427" y="506" type="line"/>
      <point x="239" y="0" type="line"/>
    </contour>
  </outline>
</glyph>
<glyph name="z" format="2">
  <advance width="417"/>
  <unicode hex="007A"/>
  <outline>
    <contour>
      <point x="27" y="0" type="line"/>
      <point x="27" y="21" type="line"/>
      <point x="364" y="487" type="line"/>
      <point x="37" y="487" type="line"/>
      <point x="37" y="506" type="line"/>
      <point x="386" y="506" type="line"/>
      <point x="386" y="485" type="line"/>
      <point x="49" y="19" type="line"/>
      <point x="396" y="19" type="line"/>
      <point x="396" y="0" type="line"/>
    </contour>
  </outline>
</glyph>
<glyph name="bar" format="2">
  <advance width="236"/>
  <unicode hex="007C"/>
  <outline>
    <contour>
      <point x="108" y="-138" type="line"/>
      <point x="108" y="760" type="line"/>
      <point x="128" y="760" type="line"/>
      <point x="128" y="-138" type="line"/>
    </contour>
  </outline>
</glyph>
<glyph name="braceright" format="2">
  <advance width="315"/>
  <unicode hex="007D"/>
  <outline>
    <contour>
      <point x="168" y="-138" type="line"/>
      <point x="193" y="-138"/>
      <point x="193" y="-114" type="qcurve"/>
      <point x="193" y="201" type="line"/>
      <point x="193" y="287"/>
      <point x="290" y="287" type="qcurve"/>
      <point x="290" y="335" type="line"/>
      <point x="193" y="335"/>
      <point x="193" y="421" type="qcurve"/>
      <point x="193" y="734" type="line"/>
      <point x="193" y="760"/>
      <point x="168" y="760" type="qcurve"/>
      <point x="68" y="760" type="line"/>
      <point x="68" y="742" type="line"/>
      <point x="173" y="742" type="line"/>
      <point x="173" y="421" type="line"/>
      <point x="173" y="374"/>
      <point x="227" y="319"/>
      <point x="272" y="319" type="qcurve"/>
      <point x="272" y="303" type="line"/>
      <point x="227" y="303"/>
      <point x="173" y="248"/>
      <point x="173" y="201" type="qcurve"/>
      <point x="173" y="-120" type="line"/>
      <point x="68" y="-120" type="line"/>
      <point x="68" y="-138" type="line"/>
    </contour>
  </outline>
</glyph>
<glyph name="asciitilde" format="2">
  <advance width="600"/>
  <unicode hex="007E"/>
  <outline>
    <contour>
      <point x="424" y="256" type="qcurve"/>
      <point x="490" y="256"/>
      <point x="535" y="304" type="qcurve"/>
      <point x="522" y="318" type="line"/>
      <point x="484" y="276"/>
      <point x="425" y="276" type="qcurve"/>
      <point x="397" y="276"/>
      <point x="348" y="294"/>
      <point x="306" y="313" type="qcurve"/>
      <point x="250" y="337"/>
      <point x="232" y="343" type="qcurve"/>
      <point x="205" y="352"/>
      <point x="176" y="352" type="qcurve"/>
      <point x="110" y="352"/>
      <point x="65" y="304" type="qcurve"/>
      <point x="78" y="290" type="line"/>
      <point x="117" y="332"/>
      <point x="175" y="332" type="qcurve"/>
      <point x="201" y="332"/>
      <point x="227" y="324" type="qcurve"/>
      <point x="246" y="317"/>
      <point x="272" y="305" type="qcurve"/>
      <point x="339" y="274"/>
      <point x="394" y="256"/>
    </contour>
  </outline>
</glyph>
<glyph name="exclamdown" format="2">
  <advance width="252"/>
  <unicode hex="00A1"/>
  <outline>
    <contour>
      <point x="137" y="-192" type="line"/>
      <point x="137" y="91" type="line"/>
      <point x="132" y="330" type="line"/>
      <point x="120" y="330" type="line"/>
      <point x="115" y="91" type="line"/>
      <point x="115" y="-192" type="line"/>
    </contour>
    <contour>
      <point x="126" y="453" type="qcurve"/>
      <point x="153" y="453"/>
      <point x="153" y="478" type="qcurve"/>
      <point x="153" y="486" type="line"/>
      <point x="153" y="511"/>
      <point x="128" y="511" type="qcurve"/>
      <point x="99" y="511"/>
      <point x="99" y="486" type="qcurve"/>
      <point x="99" y="478" type="line"/>
      <point x="99" y="453"/>
    </contour>
  </outline>
</glyph>
<glyph name="sterling" format="2">
  <advance width="579"/>
  <unicode hex="00A3"/>
  <outline>
    <contour>
      <point x="513" y="0" type="line"/>
      <point x="513" y="20" type="line"/>
      <point x="107" y="20" type="line"/>
      <point x="107" y="22" type="line"/>
      <point x="201" y="101"/>
      <point x="201" y="221" type="qcurve"/>
      <point x="201" y="271"/>
      <point x="187" y="311" type="qcurve"/>
      <point x="399" y="311" type="line"/>
      <point x="399" y="331" type="line"/>
      <point x="181" y="331" type="line"/>
      <point x="166" y="374"/>
      <point x="134" y="459"/>
      <point x="134" y="510" type="qcurve"/>
      <point x="134" y="594"/>
      <point x="238" y="690"/>
      <point x="320" y="690" type="qcurve"/>
      <point x="437" y="690"/>
      <point x="500" y="582" type="qcurve"/>
      <point x="519" y="592" type="line"/>
      <point x="447" y="710"/>
      <point x="319" y="710" type="qcurve"/>
      <point x="229" y="710"/>
      <point x="112" y="605"/>
      <point x="112" y="510" type="qcurve"/>
      <point x="112" y="450"/>
      <point x="143" y="373" type="qcurve"/>
      <point x="158" y="331" type="line"/>
      <point x="70" y="331" type="line"/>
      <point x="70" y="311" type="line"/>
      <point x="165" y="311" type="line"/>
      <point x="179" y="270"/>
      <point x="179" y="220" type="qcurve"/>
      <point x="179" y="97"/>
      <point x="83" y="25" type="qcurve"/>
      <point x="83" y="0" type="line"/>
    </contour>
  </outline>
</glyph>
<glyph name="section" format="2">
  <advance width="564"/>
  <unicode hex="00A7"/>
  <outline>
    <contour>
      <point x="269" y="-154" type="qcurve" smooth="yes"/>
      <point x="170" y="-154"/>
      <point x="115" y="-98" type="qcurve"/>
      <point x="128" y="-83" type="line"/>
      <point x="181" y="-135"/>
      <point x="270" y="-135" type="qcurve" smooth="yes"/>
      <point x="341" y="-135"/>
      <point x="421" y="-73"/>
      <point x="421" y="-13" type="qcurve" smooth="yes"/>
      <point x="421" y="43"/>
      <point x="347" y="100"/>
      <point x="297" y="115" type="qcurve"/>
      <point x="230" y="137" type="line" smooth="yes"/>
      <point x="163" y="158"/>
      <point x="125" y="194" type="qcurve"/>
      <point x="86" y="229"/>
      <point x="86" y="296" type="qcurve" smooth="yes"/>
      <point x="86" y="403"/>
      <point x="196" y="446" type="qcurve"/>
      <point x="196" y="449" type="line"/>
      <point x="122" y="491"/>
      <point x="122" y="569" type="qcurve" smooth="yes"/>
      <point x="122" y="641"/>
      <point x="223" y="710"/>
      <point x="295" y="710" type="qcurve" smooth="yes"/>
      <point x="394" y="710"/>
      <point x="449" y="654" type="qcurve"/>
      <point x="436" y="639" type="line"/>
      <point x="383" y="691"/>
      <point x="294" y="691" type="qcurve" smooth="yes"/>
      <point x="223" y="691"/>
      <point x="143" y="629"/>
      <point x="143" y="569" type="qcurve" smooth="yes"/>
      <point x="143" y="515"/>
      <point x="217" y="456"/>
      <point x="267" y="441" type="qcurve"/>
      <point x="334" y="419" type="line" smooth="yes"/>
      <point x="401" y="398"/>
      <point x="478" y="328"/>
      <point x="478" y="260" type="qcurve" smooth="yes"/>
      <point x="478" y="153"/>
      <point x="368" y="110" type="qcurve"/>
      <point x="368" y="107" type="line"/>
      <point x="442" y="65"/>
      <point x="442" y="-13" type="qcurve" smooth="yes"/>
      <point x="442" y="-85"/>
      <point x="341" y="-154"/>
    </contour>
    <contour>
      <point x="350" y="116" type="qcurve"/>
      <point x="457" y="161"/>
      <point x="457" y="259" type="qcurve" smooth="yes"/>
      <point x="457" y="318"/>
      <point x="390" y="382"/>
      <point x="326" y="401" type="qcurve"/>
      <point x="260" y="422" type="line"/>
      <point x="237" y="430"/>
      <point x="214" y="440" type="qcurve"/>
      <point x="107" y="395"/>
      <point x="107" y="297" type="qcurve" smooth="yes"/>
      <point x="107" y="238"/>
      <point x="173" y="174"/>
      <point x="238" y="155" type="qcurve"/>
      <point x="304" y="134" type="line" smooth="yes"/>
      <point x="327" y="127"/>
    </contour>
  </outline>
</glyph>
<glyph name="dieresis" format="2">
  <advance width="600"/>
  <unicode hex="00A8"/>
  <outline>
    <contour>
      <point x="209" y="642" type="qcurve"/>
      <point x="232" y="642"/>
      <point x="232" y="663" type="qcurve"/>
      <point x="232" y="670" type="line"/>
      <point x="232" y="691"/>
      <point x="209" y="691" type="qcurve"/>
      <point x="186" y="691"/>
      <point x="186" y="670" type="qcurve"/>
      <point x="186" y="663" type="line"/>
      <point x="186" y="642"/>
    </contour>
    <contour>
      <point x="391" y="642" type="qcurve"/>
      <point x="414" y="642"/>
      <point x="414" y="663" type="qcurve"/>
      <point x="414" y="670" type="line"/>
      <point x="414" y="691"/>
      <point x="391" y="691" type="qcurve"/>
      <point x="368" y="691"/>
      <point x="368" y="670" type="qcurve"/>
      <point x="368" y="663" type="line"/>
      <point x="368" y="642"/>
    </contour>
  </outline>
</glyph>
<glyph name="copyright" format="2">
  <advance width="708"/>
  <unicode hex="00A9"/>
  <outline>
    <contour>
      <point x="354" y="-12" type="qcurve"/>
      <point x="497" y="-12"/>
      <point x="675" y="186"/>
      <point x="675" y="349" type="qcurve"/>
      <point x="675" y="513"/>
      <point x="497" y="710"/>
      <point x="354" y="710" type="qcurve"/>
      <point x="212" y="710"/>
      <point x="33" y="513"/>
      <point x="33" y="349" type="qcurve"/>
      <point x="33" y="186"/>
      <point x="212" y="-12"/>
    </contour>
    <contour>
      <point x="354" y="6" type="qcurve"/>
      <point x="287" y="6"/>
      <point x="177" y="55"/>
      <point x="138" y="98" type="qcurve"/>
      <point x="55" y="189"/>
      <point x="55" y="327" type="qcurve"/>
      <point x="55" y="371" type="line"/>
      <point x="55" y="509"/>
      <point x="220" y="692"/>
      <point x="354" y="692" type="qcurve"/>
      <point x="421" y="692"/>
      <point x="531" y="643"/>
      <point x="571" y="600" type="qcurve"/>
      <point x="653" y="509"/>
      <point x="653" y="371" type="qcurve"/>
      <point x="653" y="327" type="line"/>
      <point x="653" y="189"/>
      <point x="571" y="98" type="qcurve"/>
      <point x="531" y="55"/>
      <point x="421" y="6"/>
    </contour>
    <contour>
      <point x="351" y="149" type="qcurve"/>
      <point x="399" y="149"/>
      <point x="465" y="194"/>
      <point x="480" y="229" type="qcurve"/>
      <point x="465" y="236" type="line"/>
      <point x="434" y="166"/>
      <point x="352" y="166" type="qcurve"/>
      <point x="293" y="166"/>
      <point x="222" y="248"/>
      <point x="222" y="336" type="qcurve"/>
      <point x="222" y="356" type="line"/>
      <point x="222" y="441"/>
      <point x="293" y="526"/>
      <point x="353" y="526" type="qcurve"/>
      <point x="433" y="526"/>
      <point x="460" y="457" type="qcurve"/>
      <point x="476" y="462" type="line"/>
      <point x="464" y="498"/>
      <point x="402" y="543"/>
      <point x="353" y="543" type="qcurve"/>
      <point x="284" y="543"/>
      <point x="202" y="443"/>
      <point x="202" y="346" type="qcurve"/>
      <point x="202" y="249"/>
      <point x="283" y="149"/>
    </contour>
  </outline>
</glyph>
<glyph name="guillemotleft" format="2">
  <advance width="472"/>
  <unicode hex="00AB"/>
  <outline>
    <contour>
      <point x="34" y="284" type="line"/>
      <point x="34" y="304" type="line"/>
      <point x="232" y="482" type="line"/>
      <point x="241" y="467" type="line"/>
      <point x="57" y="294" type="line"/>
      <point x="241" y="121" type="line"/>
      <point x="232" y="106" type="line"/>
    </contour>
    <contour>
      <point x="214" y="284" type="line"/>
      <point x="214" y="304" type="line"/>
      <point x="412" y="482" type="line"/>
      <point x="421" y="467" type="line"/>
      <point x="237" y="294" type="line"/>
      <point x="421" y="121" type="line"/>
      <point x="412" y="106" type="line"/>
    </contour>
  </outline>
</glyph>
<glyph name="macron" format="2">
  <advance width="600"/>
  <unicode hex="00AF"/>
  <outline>
    <contour>
      <point x="429" y="658" type="line"/>
      <point x="429" y="676" type="line"/>
      <point x="171" y="676" type="line"/>
      <point x="171" y="658" type="line"/>
    </contour>
  </outline>
</glyph>
<glyph name="degree" format="2">
  <advance width="466"/>
  <unicode hex="00B0"/>
  <outline>
    <contour>
      <point x="233" y="374" type="qcurve"/>
      <point x="301" y="374"/>
      <point x="395" y="470"/>
      <point x="395" y="542" type="qcurve"/>
      <point x="395" y="614"/>
      <point x="301" y="710"/>
      <point x="233" y="710" type="qcurve"/>
      <point x="163" y="710"/>
      <point x="71" y="614"/>
      <point x="71" y="542" type="qcurve"/>
      <point x="71" y="470"/>
      <point x="163" y="374"/>
    </contour>
    <contour>
      <point x="233" y="393" type="qcurve"/>
      <point x="169" y="393"/>
      <point x="92" y="481"/>
      <point x="92" y="542" type="qcurve"/>
      <point x="92" y="604"/>
      <point x="169" y="691"/>
      <point x="233" y="691" type="qcurve"/>
      <point x="298" y="691"/>
      <point x="374" y="602"/>
      <point x="374" y="542" type="qcurve"/>
      <point x="374" y="482"/>
      <point x="298" y="393"/>
    </contour>
  </outline>
</glyph>
<glyph name="threesuperior" format="2">
  <advance width="347"/>
  <unicode hex="00B3"/>
  <outline>
    <contour>
      <point x="162" y="323" type="qcurve" smooth="yes"/>
      <point x="82" y="323"/>
      <point x="42" y="379" type="qcurve"/>
      <point x="56" y="390" type="line"/>
      <point x="73" y="367"/>
      <point x="120" y="340"/>
      <point x="162" y="340" type="qcurve"/>
      <point x="267" y="343"/>
      <point x="267" y="427" type="qcurve" smooth="yes"/>
      <point x="267" y="433" type="line" smooth="yes"/>
      <point x="267" y="471"/>
      <point x="222" y="512"/>
      <point x="166" y="512" type="qcurve" smooth="yes"/>
      <point x="113" y="512" type="line"/>
      <point x="113" y="529" type="line"/>
      <point x="159" y="529" type="line" smooth="yes"/>
      <point x="215" y="529"/>
      <point x="260" y="571"/>
      <point x="260" y="608" type="qcurve" smooth="yes"/>
      <point x="260" y="614" type="line" smooth="yes"/>
      <point x="260" y="647"/>
      <point x="213" y="687"/>
      <point x="168" y="687" type="qcurve" smooth="yes"/>
      <point x="129" y="687"/>
      <point x="84" y="663"/>
      <point x="67" y="641" type="qcurve"/>
      <point x="53" y="651" type="line"/>
      <point x="88" y="704"/>
      <point x="168" y="704" type="qcurve" smooth="yes"/>
      <point x="222" y="704"/>
      <point x="280" y="653"/>
      <point x="280" y="609" type="qcurve" smooth="yes"/>
      <point x="280" y="540"/>
      <point x="210" y="523" type="qcurve"/>
      <point x="210" y="520" type="line"/>
      <point x="287" y="508"/>
      <point x="287" y="431" type="qcurve"/>
      <point x="282" y="323"/>
    </contour>
  </outline>
</glyph>
<glyph name="mu" format="2">
  <advance width="566"/>
  <unicode hex="00B5"/>
  <outline>
    <contour>
      <point x="126" y="-200" type="line"/>
      <point x="126" y="-44" type="line"/>
      <point x="121" y="79" type="line"/>
      <point x="124" y="79" type="line"/>
      <point x="164" y="-12"/>
      <point x="279" y="-12" type="qcurve"/>
      <point x="347" y="-12"/>
      <point x="423" y="41"/>
      <point x="437" y="76" type="qcurve"/>
      <point x="440" y="76" type="line"/>
      <point x="440" y="0" type="line"/>
      <point x="461" y="0" type="line"/>
      <point x="461" y="506" type="line"/>
      <point x="440" y="506" type="line"/>
      <point x="440" y="144" type="line"/>
      <point x="440" y="78"/>
      <point x="392" y="41" type="qcurve"/>
      <point x="343" y="7"/>
      <point x="281" y="7" type="qcurve"/>
      <point x="126" y="7"/>
      <point x="126" y="185" type="qcurve"/>
      <point x="126" y="506" type="line"/>
      <point x="105" y="506" type="line"/>
      <point x="105" y="-200" type="line"/>
    </contour>
  </outline>
</glyph>
<glyph name="uni00B5" format="2">
  <advance width="566"/>
  <unicode hex="00B5"/>
  <outline>
    <contour>
      <point x="105" y="-200" type="line"/>
      <point x="105" y="506" type="line"/>
      <point x="126" y="506" type="line"/>
      <point x="126" y="185" type="line" smooth="yes"/>
      <point x="126" y="7"/>
      <point x="281" y="7" type="qcurve" smooth="yes"/>
      <point x="343" y="7"/>
      <point x="392" y="41" type="qcurve"/>
      <point x="440" y="78"/>
      <point x="440" y="144" type="qcurve" smooth="yes"/>
      <point x="440" y="506" type="line"/>
      <point x="461" y="506" type="line"/>
      <point x="461" y="0" type="line"/>
      <point x="440" y="0" type="line"/>
      <point x="440" y="76" type="line"/>
      <point x="437" y="76" type="line"/>
      <point x="423" y="41"/>
      <point x="347" y="-12"/>
      <point x="279" y="-12" type="qcurve" smooth="yes"/>
      <point x="164" y="-12"/>
      <point x="124" y="79" type="qcurve"/>
      <point x="121" y="79" type="line"/>
      <point x="126" y="-44" type="line"/>
      <point x="126" y="-200" type="line"/>
    </contour>
  </outline>
</glyph>
<glyph name="periodcentered" format="2">
  <advance width="298"/>
  <unicode hex="00B7"/>
  <outline>
    <contour>
      <point x="149" y="277" type="qcurve"/>
      <point x="176" y="277"/>
      <point x="176" y="302" type="qcurve"/>
      <point x="176" y="310" type="line"/>
      <point x="176" y="335"/>
      <point x="151" y="335" type="qcurve"/>
      <point x="122" y="335"/>
      <point x="122" y="310" type="qcurve"/>
      <point x="122" y="302" type="line"/>
      <point x="122" y="277"/>
    </contour>
  </outline>
</glyph>
<glyph name="cedilla" format="2">
  <advance width="600"/>
  <unicode hex="00B8"/>
  <outline>
    <contour>
      <point x="309" y="-202" type="qcurve"/>
      <point x="347" y="-202"/>
      <point x="391" y="-160"/>
      <point x="391" y="-131" type="qcurve"/>
      <point x="391" y="-77"/>
      <point x="324" y="-72" type="qcurve"/>
      <point x="304" y="-72"/>
      <point x="294" y="-75" type="qcurve"/>
      <point x="292" y="-73" type="line"/>
      <point x="311" y="3" type="line"/>
      <point x="293" y="3" type="line"/>
      <point x="272" y="-84" type="line"/>
      <point x="309" y="-86" type="line"/>
      <point x="370" y="-91"/>
      <point x="370" y="-132" type="qcurve"/>
      <point x="370" y="-158"/>
      <point x="336" y="-184"/>
      <point x="309" y="-184" type="qcurve"/>
      <point x="263" y="-184"/>
      <point x="241" y="-157" type="qcurve"/>
      <point x="228" y="-170" type="line"/>
      <point x="237" y="-183"/>
      <point x="280" y="-202"/>
    </contour>
  </outline>
</glyph>
<glyph name="onesuperior" format="2">
  <advance width="343"/>
  <unicode hex="00B9"/>
  <outline>
    <contour>
      <point x="208" y="329" type="line"/>
      <point x="189" y="329" type="line"/>
      <point x="189" y="681" type="line"/>
      <point x="109" y="640" type="line"/>
      <point x="109" y="659" type="line"/>
      <point x="185" y="698" type="line"/>
      <point x="208" y="698" type="line"/>
    </contour>
  </outline>
</glyph>
<glyph name="onehalf" format="2">
  <advance width="835"/>
  <unicode hex="00BD"/>
  <outline>
    <contour>
      <point x="200" y="0" type="line"/>
      <point x="178" y="0" type="line"/>
      <point x="625" y="698" type="line"/>
      <point x="647" y="698" type="line"/>
    </contour>
    <contour>
      <point x="208" y="329" type="line"/>
      <point x="189" y="329" type="line"/>
      <point x="189" y="681" type="line"/>
      <point x="109" y="640" type="line"/>
      <point x="109" y="659" type="line"/>
      <point x="185" y="698" type="line"/>
      <point x="208" y="698" type="line"/>
    </contour>
    <contour>
      <point x="790" y="0" type="line"/>
      <point x="534" y="0" type="line"/>
      <point x="534" y="20" type="line"/>
      <point x="673" y="135" type="line" smooth="yes"/>
      <point x="757" y="205"/>
      <point x="757" y="263" type="qcurve" smooth="yes"/>
      <point x="757" y="273" type="line" smooth="yes"/>
      <point x="757" y="310"/>
      <point x="709" y="358"/>
      <point x="662" y="358" type="qcurve" smooth="yes"/>
      <point x="575" y="358"/>
      <point x="548" y="280" type="qcurve"/>
      <point x="531" y="285" type="line"/>
      <point x="543" y="323"/>
      <point x="607" y="375"/>
      <point x="662" y="375" type="qcurve" smooth="yes"/>
      <point x="719" y="375"/>
      <point x="777" y="314"/>
      <point x="777" y="270" type="qcurve" smooth="yes"/>
      <point x="777" y="195"/>
      <point x="684" y="123" type="qcurve"/>
      <point x="554" y="17" type="line"/>
      <point x="790" y="17" type="line"/>
    </contour>
  </outline>
</glyph>
<glyph name="threequarters" format="2">
  <advance width="815"/>
  <unicode hex="00BE"/>
  <outline>
    <contour>
      <point x="162" y="323" type="qcurve"/>
      <point x="282" y="323"/>
      <point x="287" y="431" type="qcurve"/>
      <point x="287" y="508"/>
      <point x="210" y="520" type="qcurve"/>
      <point x="210" y="523" type="line"/>
      <point x="280" y="540"/>
      <point x="280" y="609" type="qcurve"/>
      <point x="280" y="653"/>
      <point x="222" y="704"/>
      <point x="168" y="704" type="qcurve"/>
      <point x="88" y="704"/>
      <point x="53" y="651" type="qcurve"/>
      <point x="67" y="641" type="line"/>
      <point x="84" y="663"/>
      <point x="129" y="687"/>
      <point x="168" y="687" type="qcurve"/>
      <point x="213" y="687"/>
      <point x="260" y="647"/>
      <point x="260" y="614" type="qcurve"/>
      <point x="260" y="608" type="line"/>
      <point x="260" y="571"/>
      <point x="215" y="529"/>
      <point x="159" y="529" type="qcurve"/>
      <point x="113" y="529" type="line"/>
      <point x="113" y="512" type="line"/>
      <point x="166" y="512" type="line"/>
      <point x="222" y="512"/>
      <point x="267" y="471"/>
      <point x="267" y="433" type="qcurve"/>
      <point x="267" y="427" type="line"/>
      <point x="267" y="343"/>
      <point x="162" y="340" type="qcurve"/>
      <point x="120" y="340"/>
      <point x="73" y="367"/>
      <point x="56" y="390" type="qcurve"/>
      <point x="42" y="379" type="line"/>
      <point x="82" y="323"/>
    </contour>
    <contour>
      <point x="214" y="0" type="line"/>
      <point x="661" y="698" type="line"/>
      <point x="639" y="698" type="line"/>
      <point x="192" y="0" type="line"/>
    </contour>
    <contour>
      <point x="721" y="0" type="line"/>
      <point x="721" y="89" type="line"/>
      <point x="787" y="89" type="line"/>
      <point x="787" y="106" type="line"/>
      <point x="721" y="106" type="line"/>
      <point x="721" y="369" type="line"/>
      <point x="693" y="369" type="line"/>
      <point x="489" y="108" type="line"/>
      <point x="489" y="89" type="line"/>
      <point x="702" y="89" type="line"/>
      <point x="702" y="0" type="line"/>
    </contour>
    <contour>
      <point x="702" y="106" type="line"/>
      <point x="509" y="106" type="line"/>
      <point x="699" y="350" type="line"/>
      <point x="702" y="350" type="line"/>
    </contour>
  </outline>
</glyph>
<glyph name="Acircumflex" format="2">
  <advance width="600"/>
  <unicode hex="00C2"/>
  <outline>
    <contour>
      <point x="300" y="906" type="line"/>
      <point x="174" y="779" type="line"/>
      <point x="160" y="790" type="line"/>
      <point x="288" y="923" type="line"/>
      <point x="312" y="923" type="line"/>
      <point x="440" y="790" type="line"/>
      <point x="426" y="779" type="line"/>
    </contour>
    <contour>
      <point x="545" y="0" type="line"/>
      <point x="460" y="234" type="line"/>
      <point x="140" y="234" type="line"/>
      <point x="55" y="0" type="line"/>
      <point x="32" y="0" type="line"/>
      <point x="285" y="698" type="line"/>
      <point x="315" y="698" type="line"/>
      <point x="568" y="0" type="line"/>
    </contour>
    <contour>
      <point x="301" y="675" type="line"/>
      <point x="298" y="675" type="line"/>
      <point x="147" y="253" type="line"/>
      <point x="453" y="253" type="line"/>
    </contour>
  </outline>
</glyph>
<glyph name="Ccedilla" format="2">
  <advance width="610"/>
  <unicode hex="00C7"/>
  <outline>
    <contour>
      <point x="342" y="-202" type="qcurve"/>
      <point x="380" y="-202"/>
      <point x="424" y="-160"/>
      <point x="424" y="-131" type="qcurve"/>
      <point x="424" y="-77"/>
      <point x="357" y="-72" type="qcurve"/>
      <point x="337" y="-72"/>
      <point x="327" y="-75" type="qcurve"/>
      <point x="325" y="-73" type="line"/>
      <point x="340" y="-12" type="line"/>
      <point x="416" y="-8"/>
      <point x="523" y="73"/>
      <point x="550" y="140" type="qcurve"/>
      <point x="531" y="148" type="line"/>
      <point x="505" y="82"/>
      <point x="404" y="8"/>
      <point x="329" y="8" type="qcurve"/>
      <point x="219" y="8"/>
      <point x="94" y="166"/>
      <point x="94" y="328" type="qcurve"/>
      <point x="94" y="370" type="line"/>
      <point x="94" y="532"/>
      <point x="219" y="690"/>
      <point x="329" y="690" type="qcurve"/>
      <point x="467" y="690"/>
      <point x="526" y="558" type="qcurve"/>
      <point x="545" y="567" type="line"/>
      <point x="516" y="632"/>
      <point x="406" y="710"/>
      <point x="329" y="710" type="qcurve"/>
      <point x="204" y="710"/>
      <point x="70" y="530"/>
      <point x="70" y="349" type="qcurve"/>
      <point x="70" y="170"/>
      <point x="201" y="-10"/>
      <point x="322" y="-12" type="qcurve"/>
      <point x="305" y="-84" type="line"/>
      <point x="342" y="-86" type="line"/>
      <point x="403" y="-91"/>
      <point x="403" y="-132" type="qcurve"/>
      <point x="403" y="-158"/>
      <point x="369" y="-184"/>
      <point x="342" y="-184" type="qcurve"/>
      <point x="296" y="-184"/>
      <point x="274" y="-157" type="qcurve"/>
      <point x="261" y="-170" type="line"/>
      <point x="270" y="-183"/>
      <point x="313" y="-202"/>
    </contour>
  </outline>
</glyph>
<glyph name="Eacute" format="2">
  <advance width="561"/>
  <unicode hex="00C9"/>
  <outline>
    <contour>
      <point x="267" y="777" type="line"/>
      <point x="378" y="931" type="line"/>
      <point x="397" y="919" type="line"/>
      <point x="282" y="767" type="line"/>
    </contour>
    <contour>
      <point x="108" y="0" type="line"/>
      <point x="108" y="698" type="line"/>
      <point x="489" y="698" type="line"/>
      <point x="489" y="678" type="line"/>
      <point x="130" y="678" type="line"/>
      <point x="130" y="364" type="line"/>
      <point x="477" y="364" type="line"/>
      <point x="477" y="344" type="line"/>
      <point x="130" y="344" type="line"/>
      <point x="130" y="20" type="line"/>
      <point x="489" y="20" type="line"/>
      <point x="489" y="0" type="line"/>
    </contour>
  </outline>
</glyph>
<glyph name="Edieresis" format="2">
  <advance width="561"/>
  <unicode hex="00CB"/>
  <outline>
    <contour>
      <point x="489" y="0" type="line"/>
      <point x="489" y="20" type="line"/>
      <point x="130" y="20" type="line"/>
      <point x="130" y="344" type="line"/>
      <point x="477" y="344" type="line"/>
      <point x="477" y="364" type="line"/>
      <point x="130" y="364" type="line"/>
      <point x="130" y="678" type="line"/>
      <point x="489" y="678" type="line"/>
      <point x="489" y="698" type="line"/>
      <point x="108" y="698" type="line"/>
      <point x="108" y="0" type="line"/>
    </contour>
    <contour>
      <point x="209" y="819" type="qcurve"/>
      <point x="232" y="819"/>
      <point x="232" y="840" type="qcurve"/>
      <point x="232" y="847" type="line"/>
      <point x="232" y="868"/>
      <point x="209" y="868" type="qcurve"/>
      <point x="186" y="868"/>
      <point x="186" y="847" type="qcurve"/>
      <point x="186" y="840" type="line"/>
      <point x="186" y="819"/>
    </contour>
    <contour>
      <point x="391" y="819" type="qcurve"/>
      <point x="414" y="819"/>
      <point x="414" y="840" type="qcurve"/>
      <point x="414" y="847" type="line"/>
      <point x="414" y="868"/>
      <point x="391" y="868" type="qcurve"/>
      <point x="368" y="868"/>
      <point x="368" y="847" type="qcurve"/>
      <point x="368" y="840" type="line"/>
      <point x="368" y="819"/>
    </contour>
  </outline>
</glyph>
<glyph name="Igrave" format="2">
  <advance width="238"/>
  <unicode hex="00CC"/>
  <outline>
    <contour>
      <point x="136" y="767" type="line"/>
      <point x="151" y="777" type="line"/>
      <point x="40" y="931" type="line"/>
      <point x="21" y="919" type="line"/>
    </contour>
    <contour>
      <point x="130" y="0" type="line"/>
      <point x="130" y="698" type="line"/>
      <point x="108" y="698" type="line"/>
      <point x="108" y="0" type="line"/>
    </contour>
  </outline>
</glyph>
<glyph name="Iacute" format="2">
  <advance width="238"/>
  <unicode hex="00CD"/>
  <outline>
    <contour>
      <point x="101" y="767" type="line"/>
      <point x="216" y="919" type="line"/>
      <point x="197" y="931" type="line"/>
      <point x="86" y="777" type="line"/>
    </contour>
    <contour>
      <point x="130" y="0" type="line"/>
      <point x="130" y="698" type="line"/>
      <point x="108" y="698" type="line"/>
      <point x="108" y="0" type="line"/>
    </contour>
  </outline>
</glyph>
<glyph name="Ntilde" format="2">
  <advance width="692"/>
  <unicode hex="00D1"/>
  <outline>
    <contour>
      <point x="584" y="0" type="line"/>
      <point x="584" y="698" type="line"/>
      <point x="563" y="698" type="line"/>
      <point x="563" y="27" type="line"/>
      <point x="560" y="27" type="line"/>
      <point x="140" y="698" type="line"/>
      <point x="108" y="698" type="line"/>
      <point x="108" y="0" type="line"/>
      <point x="129" y="0" type="line"/>
      <point x="129" y="671" type="line"/>
      <point x="132" y="671" type="line"/>
      <point x="552" y="0" type="line"/>
    </contour>
    <contour>
      <point x="417" y="808" type="qcurve"/>
      <point x="461" y="808"/>
      <point x="495" y="847" type="qcurve"/>
      <point x="483" y="859" type="line"/>
      <point x="454" y="826"/>
      <point x="418" y="826" type="qcurve"/>
      <point x="390" y="826"/>
      <point x="352" y="852" type="qcurve"/>
      <point x="326" y="869"/>
      <point x="292" y="882"/>
      <point x="275" y="882" type="qcurve"/>
      <point x="232" y="882"/>
      <point x="197" y="843" type="qcurve"/>
      <point x="209" y="831" type="line"/>
      <point x="240" y="864"/>
      <point x="274" y="864" type="qcurve"/>
      <point x="303" y="864"/>
      <point x="340" y="838" type="qcurve"/>
      <point x="366" y="821"/>
      <point x="400" y="808"/>
    </contour>
  </outline>
</glyph>
<glyph name="Oslash" format="2">
  <advance width="680"/>
  <unicode hex="00D8"/>
  <outline>
    <contour>
      <point x="70" y="-20" type="line"/>
      <point x="139" y="80" type="line"/>
      <point x="70" y="172"/>
      <point x="70" y="349" type="qcurve" smooth="yes"/>
      <point x="70" y="530"/>
      <point x="209" y="710"/>
      <point x="340" y="710" type="qcurve" smooth="yes"/>
      <point x="459" y="710"/>
      <point x="527" y="636" type="qcurve"/>
      <point x="593" y="731" type="line"/>
      <point x="610" y="720" type="line"/>
      <point x="540" y="619" type="line"/>
      <point x="610" y="528"/>
      <point x="610" y="349" type="qcurve" smooth="yes"/>
      <point x="610" y="168"/>
      <point x="471" y="-12"/>
      <point x="340" y="-12" type="qcurve" smooth="yes"/>
      <point x="220" y="-12"/>
      <point x="153" y="63" type="qcurve"/>
      <point x="88" y="-31" type="line"/>
    </contour>
    <contour>
      <point x="514" y="617" type="line"/>
      <point x="450" y="690"/>
      <point x="340" y="690" type="qcurve" smooth="yes"/>
      <point x="225" y="690"/>
      <point x="94" y="529"/>
      <point x="94" y="370" type="qcurve" smooth="yes"/>
      <point x="94" y="328" type="line" smooth="yes"/>
      <point x="94" y="178"/>
      <point x="152" y="98" type="qcurve"/>
    </contour>
    <contour>
      <point x="340" y="8" type="qcurve" smooth="yes"/>
      <point x="455" y="8"/>
      <point x="586" y="169"/>
      <point x="586" y="328" type="qcurve" smooth="yes"/>
      <point x="586" y="370" type="line" smooth="yes"/>
      <point x="586" y="520"/>
      <point x="527" y="600" type="qcurve"/>
      <point x="166" y="81" type="line"/>
      <point x="231" y="8"/>
    </contour>
  </outline>
</glyph>
<glyph name="Uacute" format="2">
  <advance width="652"/>
  <unicode hex="00DA"/>
  <outline>
    <contour>
      <point x="292" y="777" type="line"/>
      <point x="403" y="931" type="line"/>
      <point x="422" y="919" type="line"/>
      <point x="307" y="767" type="line"/>
    </contour>
    <contour>
      <point x="326" y="-12" type="qcurve" smooth="yes"/>
      <point x="200" y="-12"/>
      <point x="100" y="114"/>
      <point x="100" y="270" type="qcurve" smooth="yes"/>
      <point x="100" y="698" type="line"/>
      <point x="122" y="698" type="line"/>
      <point x="122" y="268" type="line" smooth="yes"/>
      <point x="122" y="126"/>
      <point x="166" y="67" type="qcurve"/>
      <point x="208" y="8"/>
      <point x="326" y="8" type="qcurve" smooth="yes"/>
      <point x="442" y="8"/>
      <point x="530" y="126"/>
      <point x="530" y="268" type="qcurve" smooth="yes"/>
      <point x="530" y="698" type="line"/>
      <point x="552" y="698" type="line"/>
      <point x="552" y="270" type="line" smooth="yes"/>
      <point x="552" y="114"/>
      <point x="452" y="-12"/>
    </contour>
  </outline>
</glyph>
<glyph name="ccedilla" format="2">
  <advance width="487"/>
  <unicode hex="00E7"/>
  <outline>
    <contour>
      <point x="280" y="-202" type="qcurve"/>
      <point x="318" y="-202"/>
      <point x="362" y="-160"/>
      <point x="362" y="-131" type="qcurve"/>
      <point x="362" y="-77"/>
      <point x="295" y="-72" type="qcurve"/>
      <point x="275" y="-72"/>
      <point x="265" y="-75" type="qcurve"/>
      <point x="263" y="-73" type="line"/>
      <point x="278" y="-12" type="line"/>
      <point x="394" y="-7"/>
      <point x="444" y="84" type="qcurve"/>
      <point x="428" y="95" type="line"/>
      <point x="405" y="53"/>
      <point x="329" y="7"/>
      <point x="270" y="7" type="qcurve"/>
      <point x="179" y="7"/>
      <point x="83" y="126"/>
      <point x="83" y="229" type="qcurve"/>
      <point x="83" y="277" type="line"/>
      <point x="83" y="380"/>
      <point x="179" y="499"/>
      <point x="270" y="499" type="qcurve"/>
      <point x="324" y="499"/>
      <point x="394" y="453"/>
      <point x="417" y="409" type="qcurve"/>
      <point x="435" y="418" type="line"/>
      <point x="384" y="518"/>
      <point x="270" y="518" type="qcurve"/>
      <point x="170" y="518"/>
      <point x="60" y="385"/>
      <point x="60" y="253" type="qcurve"/>
      <point x="60" y="124"/>
      <point x="164" y="-9"/>
      <point x="260" y="-12" type="qcurve"/>
      <point x="243" y="-84" type="line"/>
      <point x="280" y="-86" type="line"/>
      <point x="341" y="-91"/>
      <point x="341" y="-132" type="qcurve"/>
      <point x="341" y="-158"/>
      <point x="307" y="-184"/>
      <point x="280" y="-184" type="qcurve"/>
      <point x="234" y="-184"/>
      <point x="212" y="-157" type="qcurve"/>
      <point x="199" y="-170" type="line"/>
      <point x="208" y="-183"/>
      <point x="251" y="-202"/>
    </contour>
  </outline>
</glyph>
<glyph name="igrave" format="2">
  <advance width="231"/>
  <unicode hex="00EC"/>
  <outline>
    <contour>
      <point x="126" y="0" type="line"/>
      <point x="126" y="506" type="line"/>
      <point x="105" y="506" type="line"/>
      <point x="105" y="0" type="line"/>
    </contour>
    <contour>
      <point x="133" y="587" type="line"/>
      <point x="148" y="597" type="line"/>
      <point x="37" y="751" type="line"/>
      <point x="18" y="739" type="line"/>
    </contour>
  </outline>
</glyph>
<glyph name="icircumflex" format="2">
  <advance width="231"/>
  <unicode hex="00EE"/>
  <outline>
    <contour>
      <point x="126" y="0" type="line"/>
      <point x="126" y="506" type="line"/>
      <point x="105" y="506" type="line"/>
      <point x="105" y="0" type="line"/>
    </contour>
    <contour>
      <point x="242" y="599" type="line"/>
      <point x="256" y="610" type="line"/>
      <point x="128" y="743" type="line"/>
      <point x="104" y="743" type="line"/>
      <point x="-24" y="610" type="line"/>
      <point x="-10" y="599" type="line"/>
      <point x="116" y="726" type="line"/>
    </contour>
  </outline>
</glyph>
<glyph name="idieresis" format="2">
  <advance width="231"/>
  <unicode hex="00EF"/>
  <outline>
    <contour>
      <point x="126" y="0" type="line"/>
      <point x="126" y="506" type="line"/>
      <point x="105" y="506" type="line"/>
      <point x="105" y="0" type="line"/>
    </contour>
    <contour>
      <point x="25" y="642" type="qcurve"/>
      <point x="48" y="642"/>
      <point x="48" y="663" type="qcurve"/>
      <point x="48" y="670" type="line"/>
      <point x="48" y="691"/>
      <point x="25" y="691" type="qcurve"/>
      <point x="2" y="691"/>
      <point x="2" y="670" type="qcurve"/>
      <point x="2" y="663" type="line"/>
      <point x="2" y="642"/>
    </contour>
    <contour>
      <point x="207" y="642" type="qcurve"/>
      <point x="230" y="642"/>
      <point x="230" y="663" type="qcurve"/>
      <point x="230" y="670" type="line"/>
      <point x="230" y="691"/>
      <point x="207" y="691" type="qcurve"/>
      <point x="184" y="691"/>
      <point x="184" y="670" type="qcurve"/>
      <point x="184" y="663" type="line"/>
      <point x="184" y="642"/>
    </contour>
  </outline>
</glyph>
<glyph name="eth" format="2">
  <advance width="544"/>
  <unicode hex="00F0"/>
  <outline>
    <contour>
      <point x="270" y="-12" type="qcurve"/>
      <point x="365" y="-12"/>
      <point x="480" y="124"/>
      <point x="480" y="248" type="qcurve"/>
      <point x="480" y="370"/>
      <point x="424" y="485" type="qcurve"/>
      <point x="371" y="591"/>
      <point x="296" y="660" type="qcurve"/>
      <point x="404" y="738" type="line"/>
      <point x="394" y="752" type="line"/>
      <point x="283" y="672" type="line"/>
      <point x="236" y="714"/>
      <point x="192" y="740" type="qcurve"/>
      <point x="156" y="740" type="line"/>
      <point x="225" y="703"/>
      <point x="269" y="662" type="qcurve"/>
      <point x="164" y="586" type="line"/>
      <point x="174" y="572" type="line"/>
      <point x="282" y="650" type="line"/>
      <point x="376" y="563"/>
      <point x="432" y="421" type="qcurve"/>
      <point x="429" y="419" type="line"/>
      <point x="374" y="500"/>
      <point x="270" y="500" type="qcurve"/>
      <point x="176" y="500"/>
      <point x="60" y="368"/>
      <point x="60" y="248" type="qcurve"/>
      <point x="60" y="124"/>
      <point x="176" y="-12"/>
    </contour>
    <contour>
      <point x="270" y="7" type="qcurve"/>
      <point x="188" y="7"/>
      <point x="83" y="121"/>
      <point x="83" y="218" type="qcurve"/>
      <point x="83" y="270" type="line"/>
      <point x="83" y="368"/>
      <point x="188" y="481"/>
      <point x="270" y="481" type="qcurve"/>
      <point x="353" y="481"/>
      <point x="457" y="368"/>
      <point x="457" y="270" type="qcurve"/>
      <point x="457" y="218" type="line"/>
      <point x="457" y="121"/>
      <point x="353" y="7"/>
    </contour>
  </outline>
</glyph>
<glyph name="ntilde" format="2">
  <advance width="556"/>
  <unicode hex="00F1"/>
  <outline>
    <contour>
      <point x="356" y="628" type="qcurve" smooth="yes"/>
      <point x="339" y="628"/>
      <point x="305" y="641"/>
      <point x="279" y="658" type="qcurve"/>
      <point x="242" y="684"/>
      <point x="213" y="684" type="qcurve" smooth="yes"/>
      <point x="179" y="684"/>
      <point x="148" y="651" type="qcurve"/>
      <point x="136" y="663" type="line"/>
      <point x="171" y="702"/>
      <point x="214" y="702" type="qcurve" smooth="yes"/>
      <point x="231" y="702"/>
      <point x="265" y="689"/>
      <point x="291" y="672" type="qcurve" smooth="yes"/>
      <point x="329" y="646"/>
      <point x="357" y="646" type="qcurve" smooth="yes"/>
      <point x="393" y="646"/>
      <point x="422" y="679" type="qcurve"/>
      <point x="434" y="667" type="line"/>
      <point x="400" y="628"/>
    </contour>
    <contour>
      <point x="440" y="0" type="line"/>
      <point x="440" y="321" type="line" smooth="yes"/>
      <point x="440" y="499"/>
      <point x="285" y="499" type="qcurve" smooth="yes"/>
      <point x="224" y="499"/>
      <point x="174" y="465" type="qcurve"/>
      <point x="126" y="430"/>
      <point x="126" y="362" type="qcurve" smooth="yes"/>
      <point x="126" y="0" type="line"/>
      <point x="105" y="0" type="line"/>
      <point x="105" y="506" type="line"/>
      <point x="126" y="506" type="line"/>
      <point x="126" y="430" type="line"/>
      <point x="129" y="430" type="line"/>
      <point x="142" y="465"/>
      <point x="219" y="518"/>
      <point x="287" y="518" type="qcurve"/>
      <point x="461" y="516"/>
      <point x="461" y="325" type="qcurve" smooth="yes"/>
      <point x="461" y="0" type="line"/>
    </contour>
  </outline>
</glyph>
<glyph name="ocircumflex" format="2">
  <advance width="540"/>
  <unicode hex="00F4"/>
  <outline>
    <contour>
      <point x="270" y="-12" type="qcurve"/>
      <point x="370" y="-12"/>
      <point x="480" y="121"/>
      <point x="480" y="253" type="qcurve"/>
      <point x="480" y="385"/>
      <point x="370" y="518"/>
      <point x="270" y="518" type="qcurve"/>
      <point x="170" y="518"/>
      <point x="60" y="385"/>
      <point x="60" y="253" type="qcurve"/>
      <point x="60" y="121"/>
      <point x="170" y="-12"/>
    </contour>
    <contour>
      <point x="270" y="7" type="qcurve"/>
      <point x="179" y="7"/>
      <point x="83" y="126"/>
      <point x="83" y="229" type="qcurve"/>
      <point x="83" y="277" type="line"/>
      <point x="83" y="380"/>
      <point x="179" y="499"/>
      <point x="270" y="499" type="qcurve"/>
      <point x="361" y="499"/>
      <point x="457" y="380"/>
      <point x="457" y="277" type="qcurve"/>
      <point x="457" y="229" type="line"/>
      <point x="457" y="126"/>
      <point x="361" y="7"/>
    </contour>
    <contour>
      <point x="397" y="599" type="line"/>
      <point x="411" y="610" type="line"/>
      <point x="283" y="743" type="line"/>
      <point x="259" y="743" type="line"/>
      <point x="131" y="610" type="line"/>
      <point x="145" y="599" type="line"/>
      <point x="271" y="726" type="line"/>
    </contour>
  </outline>
</glyph>
<glyph name="otilde" format="2">
  <advance width="540"/>
  <unicode hex="00F5"/>
  <outline>
    <contour>
      <point x="342" y="628" type="qcurve" smooth="yes"/>
      <point x="325" y="628"/>
      <point x="291" y="641"/>
      <point x="265" y="658" type="qcurve"/>
      <point x="228" y="684"/>
      <point x="199" y="684" type="qcurve" smooth="yes"/>
      <point x="165" y="684"/>
      <point x="134" y="651" type="qcurve"/>
      <point x="122" y="663" type="line"/>
      <point x="157" y="702"/>
      <point x="200" y="702" type="qcurve" smooth="yes"/>
      <point x="217" y="702"/>
      <point x="251" y="689"/>
      <point x="277" y="672" type="qcurve" smooth="yes"/>
      <point x="315" y="646"/>
      <point x="343" y="646" type="qcurve" smooth="yes"/>
      <point x="379" y="646"/>
      <point x="408" y="679" type="qcurve"/>
      <point x="420" y="667" type="line"/>
      <point x="386" y="628"/>
    </contour>
    <contour>
      <point x="270" y="-12" type="qcurve" smooth="yes"/>
      <point x="170" y="-12"/>
      <point x="60" y="121"/>
      <point x="60" y="253" type="qcurve" smooth="yes"/>
      <point x="60" y="385"/>
      <point x="170" y="518"/>
      <point x="270" y="518" type="qcurve" smooth="yes"/>
      <point x="370" y="518"/>
      <point x="480" y="385"/>
      <point x="480" y="253" type="qcurve" smooth="yes"/>
      <point x="480" y="121"/>
      <point x="370" y="-12"/>
    </contour>
    <contour>
      <point x="270" y="7" type="qcurve" smooth="yes"/>
      <point x="361" y="7"/>
      <point x="457" y="126"/>
      <point x="457" y="229" type="qcurve" smooth="yes"/>
      <point x="457" y="277" type="line" smooth="yes"/>
      <point x="457" y="380"/>
      <point x="361" y="499"/>
      <point x="270" y="499" type="qcurve" smooth="yes"/>
      <point x="179" y="499"/>
      <point x="83" y="380"/>
      <point x="83" y="277" type="qcurve" smooth="yes"/>
      <point x="83" y="229" type="line" smooth="yes"/>
      <point x="83" y="126"/>
      <point x="179" y="7"/>
    </contour>
  </outline>
</glyph>
<glyph name="odieresis" format="2">
  <advance width="540"/>
  <unicode hex="00F6"/>
  <outline>
    <contour>
      <point x="270" y="-12" type="qcurve"/>
      <point x="370" y="-12"/>
      <point x="480" y="121"/>
      <point x="480" y="253" type="qcurve"/>
      <point x="480" y="385"/>
      <point x="370" y="518"/>
      <point x="270" y="518" type="qcurve"/>
      <point x="170" y="518"/>
      <point x="60" y="385"/>
      <point x="60" y="253" type="qcurve"/>
      <point x="60" y="121"/>
      <point x="170" y="-12"/>
    </contour>
    <contour>
      <point x="270" y="7" type="qcurve"/>
      <point x="179" y="7"/>
      <point x="83" y="126"/>
      <point x="83" y="229" type="qcurve"/>
      <point x="83" y="277" type="line"/>
      <point x="83" y="380"/>
      <point x="179" y="499"/>
      <point x="270" y="499" type="qcurve"/>
      <point x="361" y="499"/>
      <point x="457" y="380"/>
      <point x="457" y="277" type="qcurve"/>
      <point x="457" y="229" type="line"/>
      <point x="457" y="126"/>
      <point x="361" y="7"/>
    </contour>
    <contour>
      <point x="180" y="642" type="qcurve"/>
      <point x="203" y="642"/>
      <point x="203" y="663" type="qcurve"/>
      <point x="203" y="670" type="line"/>
      <point x="203" y="691"/>
      <point x="180" y="691" type="qcurve"/>
      <point x="157" y="691"/>
      <point x="157" y="670" type="qcurve"/>
      <point x="157" y="663" type="line"/>
      <point x="157" y="642"/>
    </contour>
    <contour>
      <point x="362" y="642" type="qcurve"/>
      <point x="385" y="642"/>
      <point x="385" y="663" type="qcurve"/>
      <point x="385" y="670" type="line"/>
      <point x="385" y="691"/>
      <point x="362" y="691" type="qcurve"/>
      <point x="339" y="691"/>
      <point x="339" y="670" type="qcurve"/>
      <point x="339" y="663" type="line"/>
      <point x="339" y="642"/>
    </contour>
  </outline>
</glyph>
<glyph name="divide" format="2">
  <advance width="600"/>
  <unicode hex="00F7"/>
  <outline>
    <contour>
      <point x="538" y="296" type="line"/>
      <point x="538" y="315" type="line"/>
      <point x="62" y="315" type="line"/>
      <point x="62" y="296" type="line"/>
    </contour>
    <contour>
      <point x="300" y="81" type="qcurve"/>
      <point x="334" y="81"/>
      <point x="334" y="107" type="qcurve"/>
      <point x="334" y="116" type="line"/>
      <point x="334" y="143"/>
      <point x="300" y="143" type="qcurve"/>
      <point x="266" y="143"/>
      <point x="266" y="116" type="qcurve"/>
      <point x="266" y="108" type="line"/>
      <point x="266" y="81"/>
    </contour>
    <contour>
      <point x="300" y="468" type="qcurve"/>
      <point x="334" y="468"/>
      <point x="334" y="494" type="qcurve"/>
      <point x="334" y="503" type="line"/>
      <point x="334" y="530"/>
      <point x="300" y="530" type="qcurve"/>
      <point x="266" y="530"/>
      <point x="266" y="503" type="qcurve"/>
      <point x="266" y="495" type="line"/>
      <point x="266" y="468"/>
    </contour>
  </outline>
</glyph>
<glyph name="ucircumflex" format="2">
  <advance width="556"/>
  <unicode hex="00FB"/>
  <outline>
    <contour>
      <point x="269" y="-12" type="qcurve"/>
      <point x="337" y="-12"/>
      <point x="413" y="41"/>
      <point x="427" y="76" type="qcurve"/>
      <point x="430" y="76" type="line"/>
      <point x="430" y="0" type="line"/>
      <point x="451" y="0" type="line"/>
      <point x="451" y="506" type="line"/>
      <point x="430" y="506" type="line"/>
      <point x="430" y="144" type="line"/>
      <point x="430" y="78"/>
      <point x="382" y="41" type="qcurve"/>
      <point x="333" y="7"/>
      <point x="271" y="7" type="qcurve"/>
      <point x="116" y="7"/>
      <point x="116" y="185" type="qcurve"/>
      <point x="116" y="506" type="line"/>
      <point x="95" y="506" type="line"/>
      <point x="95" y="181" type="line"/>
      <point x="95" y="-9"/>
    </contour>
    <contour>
      <point x="400" y="599" type="line"/>
      <point x="414" y="610" type="line"/>
      <point x="286" y="743" type="line"/>
      <point x="262" y="743" type="line"/>
      <point x="134" y="610" type="line"/>
      <point x="148" y="599" type="line"/>
      <point x="274" y="726" type="line"/>
    </contour>
  </outline>
</glyph>
<glyph name="udieresis" format="2">
  <advance width="556"/>
  <unicode hex="00FC"/>
  <outline>
    <contour>
      <point x="269" y="-12" type="qcurve"/>
      <point x="337" y="-12"/>
      <point x="413" y="41"/>
      <point x="427" y="76" type="qcurve"/>
      <point x="430" y="76" type="line"/>
      <point x="430" y="0" type="line"/>
      <point x="451" y="0" type="line"/>
      <point x="451" y="506" type="line"/>
      <point x="430" y="506" type="line"/>
      <point x="430" y="144" type="line"/>
      <point x="430" y="78"/>
      <point x="382" y="41" type="qcurve"/>
      <point x="333" y="7"/>
      <point x="271" y="7" type="qcurve"/>
      <point x="116" y="7"/>
      <point x="116" y="185" type="qcurve"/>
      <point x="116" y="506" type="line"/>
      <point x="95" y="506" type="line"/>
      <point x="95" y="181" type="line"/>
      <point x="95" y="-9"/>
    </contour>
    <contour>
      <point x="183" y="642" type="qcurve"/>
      <point x="206" y="642"/>
      <point x="206" y="663" type="qcurve"/>
      <point x="206" y="670" type="line"/>
      <point x="206" y="691"/>
      <point x="183" y="691" type="qcurve"/>
      <point x="160" y="691"/>
      <point x="160" y="670" type="qcurve"/>
      <point x="160" y="663" type="line"/>
      <point x="160" y="642"/>
    </contour>
    <contour>
      <point x="365" y="642" type="qcurve"/>
      <point x="388" y="642"/>
      <point x="388" y="663" type="qcurve"/>
      <point x="388" y="670" type="line"/>
      <point x="388" y="691"/>
      <point x="365" y="691" type="qcurve"/>
      <point x="342" y="691"/>
      <point x="342" y="670" type="qcurve"/>
      <point x="342" y="663" type="line"/>
      <point x="342" y="642"/>
    </contour>
  </outline>
</glyph>
<glyph name="yacute" format="2">
  <advance width="452"/>
  <unicode hex="00FD"/>
  <outline>
    <contour>
      <point x="196" y="597" type="line"/>
      <point x="307" y="751" type="line"/>
      <point x="326" y="739" type="line"/>
      <point x="211" y="587" type="line"/>
    </contour>
    <contour>
      <point x="57" y="-200" type="line"/>
      <point x="57" y="-181" type="line"/>
      <point x="150" y="-181" type="line"/>
      <point x="216" y="-7" type="line"/>
      <point x="25" y="506" type="line"/>
      <point x="47" y="506" type="line"/>
      <point x="225" y="24" type="line"/>
      <point x="228" y="24" type="line"/>
      <point x="406" y="506" type="line"/>
      <point x="427" y="506" type="line"/>
      <point x="172" y="-181" type="line" smooth="yes"/>
      <point x="165" y="-200"/>
      <point x="141" y="-200" type="qcurve" smooth="yes"/>
    </contour>
  </outline>
</glyph>
<glyph name="Aogonek" format="2">
  <advance width="600"/>
  <unicode hex="0104"/>
  <outline>
    <contour>
      <point x="517" y="-202" type="qcurve"/>
      <point x="571" y="-202"/>
      <point x="592" y="-170" type="qcurve"/>
      <point x="578" y="-159" type="line"/>
      <point x="557" y="-184"/>
      <point x="518" y="-184" type="qcurve"/>
      <point x="492" y="-184"/>
      <point x="459" y="-159"/>
      <point x="459" y="-132" type="qcurve"/>
      <point x="459" y="-94"/>
      <point x="514" y="-35"/>
      <point x="568" y="0" type="qcurve"/>
      <point x="315" y="698" type="line"/>
      <point x="285" y="698" type="line"/>
      <point x="32" y="0" type="line"/>
      <point x="55" y="0" type="line"/>
      <point x="140" y="234" type="line"/>
      <point x="461" y="234" type="line"/>
      <point x="545" y="0" type="line"/>
      <point x="482" y="-36"/>
      <point x="437" y="-103"/>
      <point x="437" y="-133" type="qcurve"/>
      <point x="437" y="-166"/>
      <point x="483" y="-202"/>
    </contour>
    <contour>
      <point x="454" y="253" type="line"/>
      <point x="147" y="253" type="line"/>
      <point x="298" y="675" type="line"/>
      <point x="301" y="675" type="line"/>
    </contour>
  </outline>
</glyph>
<glyph name="aogonek" format="2">
  <advance width="509"/>
  <unicode hex="0105"/>
  <outline>
    <contour>
      <point x="383" y="-202" type="qcurve"/>
      <point x="349" y="-202"/>
      <point x="304" y="-166"/>
      <point x="304" y="-133" type="qcurve"/>
      <point x="304" y="-98"/>
      <point x="346" y="-37"/>
      <point x="393" y="0" type="qcurve"/>
      <point x="393" y="77" type="line"/>
      <point x="390" y="77" type="line"/>
      <point x="347" y="-12"/>
      <point x="224" y="-12" type="qcurve"/>
      <point x="146" y="-12"/>
      <point x="61" y="61"/>
      <point x="61" y="130" type="qcurve"/>
      <point x="61" y="199"/>
      <point x="102" y="234" type="qcurve"/>
      <point x="149" y="275"/>
      <point x="251" y="275" type="qcurve"/>
      <point x="393" y="275" type="line"/>
      <point x="393" y="349" type="line"/>
      <point x="393" y="427"/>
      <point x="320" y="499"/>
      <point x="249" y="499" type="qcurve"/>
      <point x="135" y="499"/>
      <point x="96" y="404" type="qcurve"/>
      <point x="78" y="412" type="line"/>
      <point x="98" y="461"/>
      <point x="178" y="518"/>
      <point x="249" y="518" type="qcurve"/>
      <point x="414" y="518"/>
      <point x="414" y="356" type="qcurve"/>
      <point x="414" y="0" type="line"/>
      <point x="370" y="-40"/>
      <point x="325" y="-96"/>
      <point x="325" y="-130" type="qcurve"/>
      <point x="325" y="-158"/>
      <point x="358" y="-184"/>
      <point x="384" y="-184" type="qcurve"/>
      <point x="422" y="-184"/>
      <point x="444" y="-159" type="qcurve"/>
      <point x="458" y="-170" type="line"/>
      <point x="437" y="-202"/>
    </contour>
    <contour>
      <point x="224" y="7" type="qcurve"/>
      <point x="292" y="7"/>
      <point x="393" y="80"/>
      <point x="393" y="148" type="qcurve"/>
      <point x="393" y="257" type="line"/>
      <point x="252" y="257" type="line"/>
      <point x="163" y="257"/>
      <point x="84" y="195"/>
      <point x="84" y="145" type="qcurve"/>
      <point x="84" y="115" type="line"/>
      <point x="84" y="62"/>
      <point x="162" y="7"/>
    </contour>
  </outline>
</glyph>
<glyph name="cacute" format="2">
  <advance width="487"/>
  <unicode hex="0107"/>
  <outline>
    <contour>
      <point x="270" y="-12" type="qcurve"/>
      <point x="390" y="-12"/>
      <point x="444" y="84" type="qcurve"/>
      <point x="428" y="95" type="line"/>
      <point x="405" y="53"/>
      <point x="329" y="7"/>
      <point x="270" y="7" type="qcurve"/>
      <point x="179" y="7"/>
      <point x="83" y="126"/>
      <point x="83" y="229" type="qcurve"/>
      <point x="83" y="277" type="line"/>
      <point x="83" y="380"/>
      <point x="179" y="499"/>
      <point x="270" y="499" type="qcurve"/>
      <point x="324" y="499"/>
      <point x="394" y="453"/>
      <point x="417" y="409" type="qcurve"/>
      <point x="435" y="418" type="line"/>
      <point x="384" y="518"/>
      <point x="270" y="518" type="qcurve"/>
      <point x="170" y="518"/>
      <point x="60" y="385"/>
      <point x="60" y="253" type="qcurve"/>
      <point x="60" y="121"/>
      <point x="170" y="-12"/>
    </contour>
    <contour>
      <point x="253" y="587" type="line"/>
      <point x="368" y="739" type="line"/>
      <point x="349" y="751" type="line"/>
      <point x="238" y="597" type="line"/>
    </contour>
  </outline>
</glyph>
<glyph name="Ccaron" format="2">
  <advance width="610"/>
  <unicode hex="010C"/>
  <outline>
    <contour>
      <point x="317" y="783" type="line"/>
      <point x="189" y="916" type="line"/>
      <point x="203" y="927" type="line"/>
      <point x="329" y="800" type="line"/>
      <point x="455" y="927" type="line"/>
      <point x="469" y="916" type="line"/>
      <point x="341" y="783" type="line"/>
    </contour>
    <contour>
      <point x="329" y="-12" type="qcurve" smooth="yes"/>
      <point x="204" y="-12"/>
      <point x="70" y="168"/>
      <point x="70" y="349" type="qcurve" smooth="yes"/>
      <point x="70" y="530"/>
      <point x="204" y="710"/>
      <point x="329" y="710" type="qcurve" smooth="yes"/>
      <point x="406" y="710"/>
      <point x="516" y="632"/>
      <point x="545" y="567" type="qcurve"/>
      <point x="526" y="558" type="line"/>
      <point x="467" y="690"/>
      <point x="329" y="690" type="qcurve" smooth="yes"/>
      <point x="219" y="690"/>
      <point x="94" y="532"/>
      <point x="94" y="370" type="qcurve" smooth="yes"/>
      <point x="94" y="328" type="line" smooth="yes"/>
      <point x="94" y="166"/>
      <point x="219" y="8"/>
      <point x="329" y="8" type="qcurve" smooth="yes"/>
      <point x="404" y="8"/>
      <point x="505" y="82"/>
      <point x="531" y="148" type="qcurve"/>
      <point x="550" y="140" type="line"/>
      <point x="523" y="70"/>
      <point x="410" y="-12"/>
    </contour>
  </outline>
</glyph>
<glyph name="ccaron" format="2">
  <advance width="487"/>
  <unicode hex="010D"/>
  <outline>
    <contour>
      <point x="259" y="603" type="line"/>
      <point x="131" y="736" type="line"/>
      <point x="145" y="747" type="line"/>
      <point x="271" y="620" type="line"/>
      <point x="397" y="747" type="line"/>
      <point x="411" y="736" type="line"/>
      <point x="283" y="603" type="line"/>
    </contour>
    <contour>
      <point x="270" y="-12" type="qcurve" smooth="yes"/>
      <point x="170" y="-12"/>
      <point x="60" y="121"/>
      <point x="60" y="253" type="qcurve" smooth="yes"/>
      <point x="60" y="385"/>
      <point x="170" y="518"/>
      <point x="270" y="518" type="qcurve" smooth="yes"/>
      <point x="384" y="518"/>
      <point x="435" y="418" type="qcurve"/>
      <point x="417" y="409" type="line"/>
      <point x="394" y="453"/>
      <point x="324" y="499"/>
      <point x="270" y="499" type="qcurve" smooth="yes"/>
      <point x="179" y="499"/>
      <point x="83" y="380"/>
      <point x="83" y="277" type="qcurve" smooth="yes"/>
      <point x="83" y="229" type="line" smooth="yes"/>
      <point x="83" y="126"/>
      <point x="179" y="7"/>
      <point x="270" y="7" type="qcurve" smooth="yes"/>
      <point x="329" y="7"/>
      <point x="405" y="53"/>
      <point x="428" y="95" type="qcurve"/>
      <point x="444" y="84" type="line"/>
      <point x="390" y="-12"/>
    </contour>
  </outline>
</glyph>
<glyph name="Dcaron" format="2">
  <advance width="658"/>
  <unicode hex="010E"/>
  <outline>
    <contour>
      <point x="312" y="0" type="line"/>
      <point x="452" y="0"/>
      <point x="588" y="175"/>
      <point x="588" y="349" type="qcurve"/>
      <point x="588" y="523"/>
      <point x="452" y="698"/>
      <point x="312" y="698" type="qcurve"/>
      <point x="108" y="698" type="line"/>
      <point x="108" y="0" type="line"/>
    </contour>
    <contour>
      <point x="313" y="20" type="qcurve"/>
      <point x="130" y="20" type="line"/>
      <point x="130" y="678" type="line"/>
      <point x="313" y="678" type="line"/>
      <point x="440" y="678"/>
      <point x="504" y="596" type="qcurve"/>
      <point x="564" y="516"/>
      <point x="564" y="379" type="qcurve"/>
      <point x="564" y="319" type="line"/>
      <point x="564" y="183"/>
      <point x="504" y="102" type="qcurve"/>
      <point x="440" y="20"/>
    </contour>
    <contour>
      <point x="312" y="783" type="line"/>
      <point x="440" y="916" type="line"/>
      <point x="426" y="927" type="line"/>
      <point x="300" y="800" type="line"/>
      <point x="174" y="927" type="line"/>
      <point x="160" y="916" type="line"/>
      <point x="288" y="783" type="line"/>
    </contour>
  </outline>
</glyph>
<glyph name="Dcroat" format="2">
  <advance width="661"/>
  <unicode hex="0110"/>
  <outline>
    <contour>
      <point x="315" y="0" type="line"/>
      <point x="455" y="0"/>
      <point x="591" y="175"/>
      <point x="591" y="349" type="qcurve"/>
      <point x="591" y="523"/>
      <point x="455" y="698"/>
      <point x="315" y="698" type="qcurve"/>
      <point x="111" y="698" type="line"/>
      <point x="111" y="378" type="line"/>
      <point x="28" y="378" type="line"/>
      <point x="28" y="359" type="line"/>
      <point x="111" y="359" type="line"/>
      <point x="111" y="0" type="line"/>
    </contour>
    <contour>
      <point x="316" y="20" type="qcurve"/>
      <point x="133" y="20" type="line"/>
      <point x="133" y="359" type="line"/>
      <point x="305" y="359" type="line"/>
      <point x="305" y="378" type="line"/>
      <point x="133" y="378" type="line"/>
      <point x="133" y="678" type="line"/>
      <point x="316" y="678" type="line"/>
      <point x="443" y="678"/>
      <point x="507" y="596" type="qcurve"/>
      <point x="567" y="516"/>
      <point x="567" y="379" type="qcurve"/>
      <point x="567" y="319" type="line"/>
      <point x="567" y="183"/>
      <point x="507" y="102" type="qcurve"/>
      <point x="443" y="20"/>
    </contour>
  </outline>
</glyph>
<glyph name="Emacron" format="2">
  <advance width="561"/>
  <unicode hex="0112"/>
  <outline>
    <contour>
      <point x="171" y="838" type="line"/>
      <point x="171" y="856" type="line"/>
      <point x="429" y="856" type="line"/>
      <point x="429" y="838" type="line"/>
    </contour>
    <contour>
      <point x="108" y="0" type="line"/>
      <point x="108" y="698" type="line"/>
      <point x="489" y="698" type="line"/>
      <point x="489" y="678" type="line"/>
      <point x="130" y="678" type="line"/>
      <point x="130" y="364" type="line"/>
      <point x="477" y="364" type="line"/>
      <point x="477" y="344" type="line"/>
      <point x="130" y="344" type="line"/>
      <point x="130" y="20" type="line"/>
      <point x="489" y="20" type="line"/>
      <point x="489" y="0" type="line"/>
    </contour>
  </outline>
</glyph>
<glyph name="Ebreve" format="2">
  <advance width="561"/>
  <unicode hex="0114"/>
  <outline>
    <contour>
      <point x="489" y="0" type="line"/>
      <point x="489" y="20" type="line"/>
      <point x="130" y="20" type="line"/>
      <point x="130" y="344" type="line"/>
      <point x="477" y="344" type="line"/>
      <point x="477" y="364" type="line"/>
      <point x="130" y="364" type="line"/>
      <point x="130" y="678" type="line"/>
      <point x="489" y="678" type="line"/>
      <point x="489" y="698" type="line"/>
      <point x="108" y="698" type="line"/>
      <point x="108" y="0" type="line"/>
    </contour>
    <contour>
      <point x="300" y="786" type="qcurve"/>
      <point x="350" y="786"/>
      <point x="404" y="846"/>
      <point x="428" y="895" type="qcurve"/>
      <point x="432" y="903" type="line"/>
      <point x="416" y="910" type="line"/>
      <point x="401" y="883" type="line"/>
      <point x="376" y="836"/>
      <point x="332" y="805"/>
      <point x="300" y="805" type="qcurve"/>
      <point x="266" y="805"/>
      <point x="247" y="821" type="qcurve"/>
      <point x="224" y="836"/>
      <point x="199" y="883" type="qcurve"/>
      <point x="184" y="910" type="line"/>
      <point x="168" y="903" type="line"/>
      <point x="172" y="895" type="line"/>
      <point x="196" y="846"/>
      <point x="248" y="786"/>
    </contour>
  </outline>
</glyph>
<glyph name="ebreve" format="2">
  <advance width="533"/>
  <unicode hex="0115"/>
  <outline>
    <contour>
      <point x="272" y="-12" type="qcurve"/>
      <point x="345" y="-12"/>
      <point x="442" y="60"/>
      <point x="465" y="124" type="qcurve"/>
      <point x="447" y="131" type="line"/>
      <point x="400" y="7"/>
      <point x="272" y="7" type="qcurve"/>
      <point x="181" y="7"/>
      <point x="83" y="126"/>
      <point x="83" y="229" type="qcurve"/>
      <point x="83" y="256" type="line"/>
      <point x="473" y="256" type="line"/>
      <point x="473" y="266" type="line"/>
      <point x="473" y="382"/>
      <point x="360" y="518"/>
      <point x="268" y="518" type="qcurve"/>
      <point x="170" y="518"/>
      <point x="60" y="384"/>
      <point x="60" y="253" type="qcurve"/>
      <point x="60" y="121"/>
      <point x="172" y="-12"/>
    </contour>
    <contour>
      <point x="450" y="275" type="qcurve"/>
      <point x="83" y="275" type="line"/>
      <point x="83" y="380"/>
      <point x="179" y="499"/>
      <point x="268" y="499" type="qcurve"/>
      <point x="351" y="499"/>
      <point x="450" y="380"/>
    </contour>
    <contour>
      <point x="269" y="606" type="qcurve"/>
      <point x="319" y="606"/>
      <point x="373" y="666"/>
      <point x="397" y="715" type="qcurve"/>
      <point x="401" y="723" type="line"/>
      <point x="385" y="730" type="line"/>
      <point x="370" y="703" type="line"/>
      <point x="345" y="656"/>
      <point x="301" y="625"/>
      <point x="269" y="625" type="qcurve"/>
      <point x="235" y="625"/>
      <point x="216" y="641" type="qcurve"/>
      <point x="193" y="656"/>
      <point x="168" y="703" type="qcurve"/>
      <point x="153" y="730" type="line"/>
      <point x="137" y="723" type="line"/>
      <point x="141" y="715" type="line"/>
      <point x="165" y="666"/>
      <point x="217" y="606"/>
    </contour>
  </outline>
</glyph>
<glyph name="Edotaccent" format="2">
  <advance width="561"/>
  <unicode hex="0116"/>
  <outline>
    <contour>
      <point x="489" y="0" type="line"/>
      <point x="489" y="20" type="line"/>
      <point x="130" y="20" type="line"/>
      <point x="130" y="344" type="line"/>
      <point x="477" y="344" type="line"/>
      <point x="477" y="364" type="line"/>
      <point x="130" y="364" type="line"/>
      <point x="130" y="678" type="line"/>
      <point x="489" y="678" type="line"/>
      <point x="489" y="698" type="line"/>
      <point x="108" y="698" type="line"/>
      <point x="108" y="0" type="line"/>
    </contour>
    <contour>
      <point x="300" y="822" type="qcurve"/>
      <point x="323" y="822"/>
      <point x="323" y="843" type="qcurve"/>
      <point x="323" y="850" type="line"/>
      <point x="323" y="871"/>
      <point x="300" y="871" type="qcurve"/>
      <point x="277" y="871"/>
      <point x="277" y="850" type="qcurve"/>
      <point x="277" y="843" type="line"/>
      <point x="277" y="822"/>
    </contour>
  </outline>
</glyph>
<glyph name="edotaccent" format="2">
  <advance width="533"/>
  <unicode hex="0117"/>
  <outline>
    <contour>
      <point x="272" y="-12" type="qcurve"/>
      <point x="345" y="-12"/>
      <point x="442" y="60"/>
      <point x="465" y="124" type="qcurve"/>
      <point x="447" y="131" type="line"/>
      <point x="400" y="7"/>
      <point x="272" y="7" type="qcurve"/>
      <point x="181" y="7"/>
      <point x="83" y="126"/>
      <point x="83" y="229" type="qcurve"/>
      <point x="83" y="256" type="line"/>
      <point x="473" y="256" type="line"/>
      <point x="473" y="266" type="line"/>
      <point x="473" y="382"/>
      <point x="360" y="518"/>
      <point x="268" y="518" type="qcurve"/>
      <point x="170" y="518"/>
      <point x="60" y="384"/>
      <point x="60" y="253" type="qcurve"/>
      <point x="60" y="121"/>
      <point x="172" y="-12"/>
    </contour>
    <contour>
      <point x="450" y="275" type="qcurve"/>
      <point x="83" y="275" type="line"/>
      <point x="83" y="380"/>
      <point x="179" y="499"/>
      <point x="268" y="499" type="qcurve"/>
      <point x="351" y="499"/>
      <point x="450" y="380"/>
    </contour>
    <contour>
      <point x="269" y="642" type="qcurve"/>
      <point x="292" y="642"/>
      <point x="292" y="663" type="qcurve"/>
      <point x="292" y="670" type="line"/>
      <point x="292" y="691"/>
      <point x="269" y="691" type="qcurve"/>
      <point x="246" y="691"/>
      <point x="246" y="670" type="qcurve"/>
      <point x="246" y="663" type="line"/>
      <point x="246" y="642"/>
    </contour>
  </outline>
</glyph>
<glyph name="Eogonek" format="2">
  <advance width="561"/>
  <unicode hex="0118"/>
  <outline>
    <contour>
      <point x="428" y="-202" type="qcurve" smooth="yes"/>
      <point x="394" y="-202"/>
      <point x="349" y="-168"/>
      <point x="349" y="-135" type="qcurve" smooth="yes"/>
      <point x="349" y="-106"/>
      <point x="396" y="-41"/>
      <point x="461" y="-3" type="qcurve"/>
      <point x="460" y="0" type="line"/>
      <point x="108" y="0" type="line"/>
      <point x="108" y="698" type="line"/>
      <point x="489" y="698" type="line"/>
      <point x="489" y="678" type="line"/>
      <point x="130" y="678" type="line"/>
      <point x="130" y="364" type="line"/>
      <point x="477" y="364" type="line"/>
      <point x="477" y="344" type="line"/>
      <point x="130" y="344" type="line"/>
      <point x="130" y="20" type="line"/>
      <point x="489" y="20" type="line"/>
      <point x="489" y="0" type="line"/>
      <point x="430" y="-37"/>
      <point x="370" y="-95"/>
      <point x="370" y="-132" type="qcurve" smooth="yes"/>
      <point x="370" y="-184"/>
      <point x="429" y="-184" type="qcurve" smooth="yes"/>
      <point x="468" y="-184"/>
      <point x="489" y="-159" type="qcurve"/>
      <point x="503" y="-170" type="line"/>
      <point x="482" y="-202"/>
    </contour>
  </outline>
</glyph>
<glyph name="eogonek" format="2">
  <advance width="533"/>
  <unicode hex="0119"/>
  <outline>
    <contour>
      <point x="313" y="-202" type="qcurve"/>
      <point x="367" y="-202"/>
      <point x="388" y="-170" type="qcurve"/>
      <point x="374" y="-159" type="line"/>
      <point x="353" y="-184"/>
      <point x="314" y="-184" type="qcurve"/>
      <point x="255" y="-184"/>
      <point x="255" y="-130" type="qcurve"/>
      <point x="255" y="-89"/>
      <point x="315" y="-24"/>
      <point x="438" y="52"/>
      <point x="465" y="124" type="qcurve"/>
      <point x="447" y="131" type="line"/>
      <point x="400" y="7"/>
      <point x="272" y="7" type="qcurve"/>
      <point x="181" y="7"/>
      <point x="83" y="126"/>
      <point x="83" y="229" type="qcurve"/>
      <point x="83" y="256" type="line"/>
      <point x="473" y="256" type="line"/>
      <point x="473" y="266" type="line"/>
      <point x="473" y="382"/>
      <point x="360" y="518"/>
      <point x="268" y="518" type="qcurve"/>
      <point x="170" y="518"/>
      <point x="60" y="384"/>
      <point x="60" y="253" type="qcurve"/>
      <point x="60" y="121"/>
      <point x="172" y="-12"/>
      <point x="272" y="-12" type="qcurve"/>
      <point x="301" y="-12"/>
      <point x="324" y="-6" type="qcurve"/>
      <point x="325" y="-8" type="line"/>
      <point x="270" y="-42"/>
      <point x="251" y="-74" type="qcurve"/>
      <point x="234" y="-107"/>
      <point x="234" y="-133" type="qcurve"/>
      <point x="234" y="-167"/>
      <point x="279" y="-202"/>
    </contour>
    <contour>
      <point x="450" y="275" type="qcurve"/>
      <point x="83" y="275" type="line"/>
      <point x="83" y="380"/>
      <point x="179" y="499"/>
      <point x="268" y="499" type="qcurve"/>
      <point x="351" y="499"/>
      <point x="450" y="380"/>
    </contour>
  </outline>
</glyph>
<glyph name="Ecaron" format="2">
  <advance width="561"/>
  <unicode hex="011A"/>
  <outline>
    <contour>
      <point x="288" y="783" type="line"/>
      <point x="160" y="916" type="line"/>
      <point x="174" y="927" type="line"/>
      <point x="300" y="800" type="line"/>
      <point x="426" y="927" type="line"/>
      <point x="440" y="916" type="line"/>
      <point x="312" y="783" type="line"/>
    </contour>
    <contour>
      <point x="108" y="0" type="line"/>
      <point x="108" y="698" type="line"/>
      <point x="489" y="698" type="line"/>
      <point x="489" y="678" type="line"/>
      <point x="130" y="678" type="line"/>
      <point x="130" y="364" type="line"/>
      <point x="477" y="364" type="line"/>
      <point x="477" y="344" type="line"/>
      <point x="130" y="344" type="line"/>
      <point x="130" y="20" type="line"/>
      <point x="489" y="20" type="line"/>
      <point x="489" y="0" type="line"/>
    </contour>
  </outline>
</glyph>
<glyph name="Gbreve" format="2">
  <advance width="644"/>
  <unicode hex="011E"/>
  <outline>
    <contour>
      <point x="63" y="349" type="qcurve"/>
      <point x="63" y="472"/>
      <point x="128" y="633"/>
      <point x="247" y="710"/>
      <point x="329" y="710" type="qcurve"/>
      <point x="371" y="710"/>
      <point x="442" y="689"/>
      <point x="500" y="651"/>
      <point x="542" y="601"/>
      <point x="556" y="571" type="qcurve"/>
      <point x="536" y="562" type="line"/>
      <point x="515" y="609"/>
      <point x="449" y="665"/>
      <point x="369" y="689"/>
      <point x="329" y="689" type="qcurve"/>
      <point x="259" y="689"/>
      <point x="149" y="623"/>
      <point x="88" y="482"/>
      <point x="88" y="371" type="qcurve"/>
      <point x="88" y="327" type="line"/>
      <point x="88" y="241"/>
      <point x="126" y="119"/>
      <point x="193" y="44"/>
      <point x="280" y="9"/>
      <point x="330" y="9" type="qcurve"/>
      <point x="390" y="9"/>
      <point x="490" y="52"/>
      <point x="550" y="138"/>
      <point x="550" y="202" type="qcurve"/>
      <point x="550" y="312" type="line"/>
      <point x="328" y="312" type="line"/>
      <point x="328" y="332" type="line"/>
      <point x="573" y="332" type="line"/>
      <point x="573" y="202" type="line"/>
      <point x="573" y="154"/>
      <point x="539" y="74"/>
      <point x="475" y="18"/>
      <point x="386" y="-12"/>
      <point x="330" y="-12" type="qcurve"/>
      <point x="280" y="-12"/>
      <point x="196" y="16"/>
      <point x="131" y="73"/>
      <point x="87" y="160"/>
      <point x="63" y="276"/>
    </contour>
    <contour>
      <point x="340" y="786" type="qcurve"/>
      <point x="315" y="786"/>
      <point x="277" y="802"/>
      <point x="248" y="832"/>
      <point x="222" y="876"/>
      <point x="208" y="903" type="qcurve"/>
      <point x="224" y="910" type="line"/>
      <point x="239" y="883" type="line"/>
      <point x="265" y="836"/>
      <point x="307" y="805"/>
      <point x="340" y="805" type="qcurve"/>
      <point x="373" y="805"/>
      <point x="415" y="836"/>
      <point x="441" y="883" type="qcurve"/>
      <point x="456" y="910" type="line"/>
      <point x="472" y="903" type="line"/>
      <point x="454" y="867"/>
      <point x="419" y="814"/>
      <point x="374" y="786"/>
    </contour>
  </outline>
</glyph>
<glyph name="hcircumflex" format="2">
  <advance width="556"/>
  <unicode hex="0125"/>
  <outline>
    <contour>
      <point x="461" y="0" type="line"/>
      <point x="461" y="325" type="line"/>
      <point x="461" y="516"/>
      <point x="287" y="518" type="qcurve"/>
      <point x="219" y="518"/>
      <point x="142" y="465"/>
      <point x="129" y="430" type="qcurve"/>
      <point x="126" y="430" type="line"/>
      <point x="126" y="740" type="line"/>
      <point x="105" y="740" type="line"/>
      <point x="105" y="0" type="line"/>
      <point x="126" y="0" type="line"/>
      <point x="126" y="362" type="line"/>
      <point x="126" y="430"/>
      <point x="174" y="465" type="qcurve"/>
      <point x="224" y="499"/>
      <point x="285" y="499" type="qcurve"/>
      <point x="440" y="499"/>
      <point x="440" y="321" type="qcurve"/>
      <point x="440" y="0" type="line"/>
    </contour>
    <contour>
      <point x="242" y="757" type="line"/>
      <point x="256" y="768" type="line"/>
      <point x="128" y="901" type="line"/>
      <point x="104" y="901" type="line"/>
      <point x="-24" y="768" type="line"/>
      <point x="-10" y="757" type="line"/>
      <point x="116" y="884" type="line"/>
    </contour>
  </outline>
</glyph>
<glyph name="Itilde" format="2">
  <advance width="238"/>
  <unicode hex="0128"/>
  <outline>
    <contour>
      <point x="190" y="808" type="qcurve" smooth="yes"/>
      <point x="173" y="808"/>
      <point x="139" y="821"/>
      <point x="113" y="838" type="qcurve"/>
      <point x="76" y="864"/>
      <point x="47" y="864" type="qcurve" smooth="yes"/>
      <point x="13" y="864"/>
      <point x="-18" y="831" type="qcurve"/>
      <point x="-30" y="843" type="line"/>
      <point x="5" y="882"/>
      <point x="48" y="882" type="qcurve" smooth="yes"/>
      <point x="65" y="882"/>
      <point x="99" y="869"/>
      <point x="125" y="852" type="qcurve" smooth="yes"/>
      <point x="163" y="826"/>
      <point x="191" y="826" type="qcurve" smooth="yes"/>
      <point x="227" y="826"/>
      <point x="256" y="859" type="qcurve"/>
      <point x="268" y="847" type="line"/>
      <point x="234" y="808"/>
    </contour>
    <contour>
      <point x="108" y="0" type="line"/>
      <point x="108" y="698" type="line"/>
      <point x="130" y="698" type="line"/>
      <point x="130" y="0" type="line"/>
    </contour>
  </outline>
</glyph>
<glyph name="ibreve" format="2">
  <advance width="231"/>
  <unicode hex="012D"/>
  <outline>
    <contour>
      <point x="126" y="0" type="line"/>
      <point x="126" y="506" type="line"/>
      <point x="105" y="506" type="line"/>
      <point x="105" y="0" type="line"/>
    </contour>
    <contour>
      <point x="116" y="606" type="qcurve"/>
      <point x="166" y="606"/>
      <point x="220" y="666"/>
      <point x="244" y="715" type="qcurve"/>
      <point x="248" y="723" type="line"/>
      <point x="232" y="730" type="line"/>
      <point x="217" y="703" type="line"/>
      <point x="192" y="656"/>
      <point x="148" y="625"/>
      <point x="116" y="625" type="qcurve"/>
      <point x="82" y="625"/>
      <point x="63" y="641" type="qcurve"/>
      <point x="40" y="656"/>
      <point x="15" y="703" type="qcurve"/>
      <point x="0" y="730" type="line"/>
      <point x="-16" y="723" type="line"/>
      <point x="-12" y="715" type="line"/>
      <point x="12" y="666"/>
      <point x="64" y="606"/>
    </contour>
  </outline>
</glyph>
<glyph name="Iogonek" format="2">
  <advance width="238"/>
  <unicode hex="012E"/>
  <outline>
    <contour>
      <point x="79" y="-202" type="qcurve"/>
      <point x="133" y="-202"/>
      <point x="154" y="-170" type="qcurve"/>
      <point x="140" y="-159" type="line"/>
      <point x="119" y="-184"/>
      <point x="80" y="-184" type="qcurve"/>
      <point x="54" y="-184"/>
      <point x="21" y="-159"/>
      <point x="21" y="-132" type="qcurve"/>
      <point x="21" y="-94"/>
      <point x="76" y="-35"/>
      <point x="130" y="0" type="qcurve"/>
      <point x="130" y="698" type="line"/>
      <point x="108" y="698" type="line"/>
      <point x="108" y="0" type="line"/>
      <point x="45" y="-36"/>
      <point x="-1" y="-103"/>
      <point x="-1" y="-133" type="qcurve"/>
      <point x="-1" y="-166"/>
      <point x="45" y="-202"/>
    </contour>
  </outline>
</glyph>
<glyph name="iogonek" format="2">
  <advance width="231"/>
  <unicode hex="012F"/>
  <outline>
    <contour>
      <point x="95" y="-202" type="qcurve"/>
      <point x="149" y="-202"/>
      <point x="170" y="-170" type="qcurve"/>
      <point x="156" y="-159" type="line"/>
      <point x="135" y="-184"/>
      <point x="96" y="-184" type="qcurve"/>
      <point x="70" y="-184"/>
      <point x="37" y="-158"/>
      <point x="37" y="-130" type="qcurve"/>
      <point x="37" y="-96"/>
      <point x="82" y="-40"/>
      <point x="126" y="0" type="qcurve"/>
      <point x="126" y="506" type="line"/>
      <point x="105" y="506" type="line"/>
      <point x="105" y="0" type="line"/>
      <point x="58" y="-37"/>
      <point x="16" y="-98"/>
      <point x="16" y="-133" type="qcurve"/>
      <point x="16" y="-166"/>
      <point x="61" y="-202"/>
    </contour>
    <contour>
      <point x="116" y="673" type="qcurve"/>
      <point x="139" y="673"/>
      <point x="139" y="694" type="qcurve"/>
      <point x="139" y="701" type="line"/>
      <point x="139" y="722"/>
      <point x="116" y="722" type="qcurve"/>
      <point x="93" y="722"/>
      <point x="93" y="701" type="qcurve"/>
      <point x="93" y="694" type="line"/>
      <point x="93" y="673"/>
    </contour>
  </outline>
</glyph>
<glyph name="Idotaccent" format="2">
  <advance width="238"/>
  <unicode hex="0130"/>
  <outline>
    <contour>
      <point x="119" y="822" type="qcurve" smooth="yes"/>
      <point x="96" y="822"/>
      <point x="96" y="843" type="qcurve" smooth="yes"/>
      <point x="96" y="850" type="line" smooth="yes"/>
      <point x="96" y="871"/>
      <point x="119" y="871" type="qcurve" smooth="yes"/>
      <point x="142" y="871"/>
      <point x="142" y="850" type="qcurve" smooth="yes"/>
      <point x="142" y="843" type="line" smooth="yes"/>
      <point x="142" y="822"/>
    </contour>
    <contour>
      <point x="108" y="0" type="line"/>
      <point x="108" y="698" type="line"/>
      <point x="130" y="698" type="line"/>
      <point x="130" y="0" type="line"/>
    </contour>
  </outline>
</glyph>
<glyph name="ij" format="2">
  <advance width="462"/>
  <unicode hex="0133"/>
  <outline>
    <contour>
      <point x="115" y="673" type="qcurve" smooth="yes"/>
      <point x="92" y="673"/>
      <point x="92" y="694" type="qcurve" smooth="yes"/>
      <point x="92" y="701" type="line" smooth="yes"/>
      <point x="92" y="722"/>
      <point x="115" y="722" type="qcurve" smooth="yes"/>
      <point x="138" y="722"/>
      <point x="138" y="701" type="qcurve" smooth="yes"/>
      <point x="138" y="694" type="line" smooth="yes"/>
      <point x="138" y="673"/>
    </contour>
    <contour>
      <point x="346" y="673" type="qcurve" smooth="yes"/>
      <point x="323" y="673"/>
      <point x="323" y="694" type="qcurve" smooth="yes"/>
      <point x="323" y="701" type="line" smooth="yes"/>
      <point x="323" y="722"/>
      <point x="346" y="722" type="qcurve" smooth="yes"/>
      <point x="369" y="722"/>
      <point x="369" y="701" type="qcurve" smooth="yes"/>
      <point x="369" y="694" type="line" smooth="yes"/>
      <point x="369" y="673"/>
    </contour>
    <contour>
      <point x="105" y="0" type="line"/>
      <point x="105" y="506" type="line"/>
      <point x="126" y="506" type="line"/>
      <point x="126" y="0" type="line"/>
    </contour>
    <contour>
      <point x="251" y="-200" type="line"/>
      <point x="251" y="-181" type="line"/>
      <point x="336" y="-181" type="line"/>
      <point x="336" y="506" type="line"/>
      <point x="357" y="506" type="line"/>
      <point x="357" y="-171" type="line" smooth="yes"/>
      <point x="357" y="-200"/>
      <point x="328" y="-200" type="qcurve" smooth="yes"/>
    </contour>
  </outline>
</glyph>
<glyph name="jcircumflex" format="2">
  <advance width="231"/>
  <unicode hex="0135"/>
  <outline>
    <contour>
      <point x="97" y="-200" type="line"/>
      <point x="126" y="-200"/>
      <point x="126" y="-171" type="qcurve"/>
      <point x="126" y="506" type="line"/>
      <point x="105" y="506" type="line"/>
      <point x="105" y="-181" type="line"/>
      <point x="20" y="-181" type="line"/>
      <point x="20" y="-200" type="line"/>
    </contour>
    <contour>
      <point x="242" y="599" type="line"/>
      <point x="256" y="610" type="line"/>
      <point x="128" y="743" type="line"/>
      <point x="104" y="743" type="line"/>
      <point x="-24" y="610" type="line"/>
      <point x="-10" y="599" type="line"/>
      <point x="116" y="726" type="line"/>
    </contour>
  </outline>
</glyph>
<glyph name="uni0136" format="2">
  <advance width="572"/>
  <unicode hex="0136"/>
  <outline>
    <contour>
      <point x="526" y="0" type="line"/>
      <point x="265" y="387" type="line"/>
      <point x="130" y="239" type="line"/>
      <point x="130" y="0" type="line"/>
      <point x="108" y="0" type="line"/>
      <point x="108" y="698" type="line"/>
      <point x="130" y="698" type="line"/>
      <point x="130" y="271" type="line"/>
      <point x="132" y="271" type="line"/>
      <point x="327" y="484"/>
      <point x="521" y="698" type="qcurve"/>
      <point x="549" y="698" type="line"/>
      <point x="280" y="403" type="line"/>
      <point x="552" y="0" type="line"/>
    </contour>
    <contour>
      <point x="274" y="-212" type="line"/>
      <point x="296" y="-187"/>
      <point x="317" y="-134"/>
      <point x="319" y="-116" type="qcurve"/>
      <point x="291" y="-116"/>
      <point x="291" y="-96" type="qcurve" smooth="yes"/>
      <point x="291" y="-88" type="line" smooth="yes"/>
      <point x="291" y="-66"/>
      <point x="315" y="-66" type="qcurve"/>
      <point x="317" y="-66" type="line"/>
      <point x="337" y="-66"/>
      <point x="337" y="-88" type="qcurve" smooth="yes"/>
      <point x="337" y="-99" type="line" smooth="yes"/>
      <point x="337" y="-125"/>
      <point x="313" y="-189"/>
      <point x="292" y="-212" type="qcurve"/>
    </contour>
  </outline>
</glyph>
<glyph name="kcedilla" format="2">
  <advance width="490"/>
  <unicode hex="0137"/>
  <outline>
    <contour>
      <point x="471" y="0" type="line"/>
      <point x="229" y="292" type="line"/>
      <point x="444" y="506" type="line"/>
      <point x="416" y="506" type="line"/>
      <point x="129" y="220" type="line"/>
      <point x="126" y="220" type="line"/>
      <point x="126" y="740" type="line"/>
      <point x="105" y="740" type="line"/>
      <point x="105" y="0" type="line"/>
      <point x="126" y="0" type="line"/>
      <point x="126" y="190" type="line"/>
      <point x="214" y="277" type="line"/>
      <point x="445" y="0" type="line"/>
    </contour>
    <contour>
      <point x="248" y="-212" type="line"/>
      <point x="269" y="-189"/>
      <point x="293" y="-125"/>
      <point x="293" y="-99" type="qcurve"/>
      <point x="293" y="-88" type="line"/>
      <point x="293" y="-66"/>
      <point x="273" y="-66" type="qcurve"/>
      <point x="271" y="-66" type="line"/>
      <point x="247" y="-66"/>
      <point x="247" y="-88" type="qcurve"/>
      <point x="247" y="-96" type="line"/>
      <point x="247" y="-116"/>
      <point x="275" y="-116" type="qcurve"/>
      <point x="273" y="-134"/>
      <point x="252" y="-187"/>
      <point x="230" y="-212" type="qcurve"/>
    </contour>
  </outline>
</glyph>
<glyph name="kra" format="2">
  <advance width="490"/>
  <unicode hex="0138"/>
  <outline>
    <contour>
      <point x="471" y="0" type="line"/>
      <point x="230" y="282" type="line"/>
      <point x="454" y="506" type="line"/>
      <point x="427" y="506" type="line"/>
      <point x="129" y="209" type="line"/>
      <point x="126" y="209" type="line"/>
      <point x="126" y="506" type="line"/>
      <point x="105" y="506" type="line"/>
      <point x="105" y="0" type="line"/>
      <point x="126" y="0" type="line"/>
      <point x="126" y="180" type="line"/>
      <point x="215" y="267" type="line"/>
      <point x="445" y="0" type="line"/>
    </contour>
  </outline>
</glyph>
<glyph name="Lacute" format="2">
  <advance width="475"/>
  <unicode hex="0139"/>
  <outline>
    <contour>
      <point x="455" y="0" type="line"/>
      <point x="455" y="20" type="line"/>
      <point x="130" y="20" type="line"/>
      <point x="130" y="698" type="line"/>
      <point x="108" y="698" type="line"/>
      <point x="108" y="0" type="line"/>
    </contour>
    <contour>
      <point x="102" y="767" type="line"/>
      <point x="217" y="919" type="line"/>
      <point x="198" y="931" type="line"/>
      <point x="87" y="777" type="line"/>
    </contour>
  </outline>
</glyph>
<glyph name="lacute" format="2">
  <advance width="251"/>
  <unicode hex="013A"/>
  <outline>
    <contour>
      <point x="83" y="797" type="line"/>
      <point x="194" y="951" type="line"/>
      <point x="213" y="939" type="line"/>
      <point x="98" y="787" type="line"/>
    </contour>
    <contour>
      <point x="134" y="0" type="line"/>
      <point x="105" y="1"/>
      <point x="105" y="29" type="qcurve" smooth="yes"/>
      <point x="105" y="740" type="line"/>
      <point x="126" y="740" type="line"/>
      <point x="126" y="19" type="line"/>
      <point x="211" y="19" type="line"/>
      <point x="211" y="0" type="line"/>
    </contour>
  </outline>
</glyph>
<glyph name="Lcedilla" format="2">
  <advance width="475"/>
  <unicode hex="013B"/>
  <outline>
    <contour>
      <point x="455" y="0" type="line"/>
      <point x="455" y="20" type="line"/>
      <point x="130" y="20" type="line"/>
      <point x="130" y="698" type="line"/>
      <point x="108" y="698" type="line"/>
      <point x="108" y="0" type="line"/>
    </contour>
    <contour>
      <point x="270" y="-212" type="line"/>
      <point x="291" y="-189"/>
      <point x="315" y="-125"/>
      <point x="315" y="-99" type="qcurve"/>
      <point x="315" y="-88" type="line"/>
      <point x="315" y="-66"/>
      <point x="295" y="-66" type="qcurve"/>
      <point x="293" y="-66" type="line"/>
      <point x="269" y="-66"/>
      <point x="269" y="-88" type="qcurve"/>
      <point x="269" y="-96" type="line"/>
      <point x="269" y="-116"/>
      <point x="297" y="-116" type="qcurve"/>
      <point x="295" y="-134"/>
      <point x="274" y="-187"/>
      <point x="252" y="-212" type="qcurve"/>
    </contour>
  </outline>
</glyph>
<glyph name="lcedilla" format="2">
  <advance width="251"/>
  <unicode hex="013C"/>
  <outline>
    <contour>
      <point x="211" y="0" type="line"/>
      <point x="211" y="19" type="line"/>
      <point x="126" y="19" type="line"/>
      <point x="126" y="740" type="line"/>
      <point x="105" y="740" type="line"/>
      <point x="105" y="29" type="line"/>
      <point x="105" y="1"/>
      <point x="134" y="0" type="qcurve"/>
    </contour>
    <contour>
      <point x="140" y="-212" type="line"/>
      <point x="161" y="-189"/>
      <point x="185" y="-125"/>
      <point x="185" y="-99" type="qcurve"/>
      <point x="185" y="-88" type="line"/>
      <point x="185" y="-66"/>
      <point x="165" y="-66" type="qcurve"/>
      <point x="163" y="-66" type="line"/>
      <point x="139" y="-66"/>
      <point x="139" y="-88" type="qcurve"/>
      <point x="139" y="-96" type="line"/>
      <point x="139" y="-116"/>
      <point x="167" y="-116" type="qcurve"/>
      <point x="165" y="-134"/>
      <point x="144" y="-187"/>
      <point x="122" y="-212" type="qcurve"/>
    </contour>
  </outline>
</glyph>
<glyph name="Lcaron" format="2">
  <advance width="475"/>
  <unicode hex="013D"/>
  <outline>
    <contour>
      <point x="231" y="564" type="line"/>
      <point x="247" y="740" type="line"/>
      <point x="272" y="740" type="line"/>
      <point x="248" y="564" type="line"/>
    </contour>
    <contour>
      <point x="108" y="0" type="line"/>
      <point x="108" y="698" type="line"/>
      <point x="130" y="698" type="line"/>
      <point x="130" y="20" type="line"/>
      <point x="455" y="20" type="line"/>
      <point x="455" y="0" type="line"/>
    </contour>
  </outline>
</glyph>
<glyph name="Ldot" format="2">
  <advance width="475"/>
  <unicode hex="013F"/>
  <outline>
    <contour>
      <point x="108" y="0" type="line"/>
      <point x="108" y="698" type="line"/>
      <point x="130" y="698" type="line"/>
      <point x="130" y="20" type="line"/>
      <point x="455" y="20" type="line"/>
      <point x="455" y="0" type="line"/>
    </contour>
    <contour>
      <point x="359" y="271" type="qcurve" smooth="yes"/>
      <point x="336" y="271"/>
      <point x="336" y="292" type="qcurve" smooth="yes"/>
      <point x="336" y="299" type="line" smooth="yes"/>
      <point x="336" y="320"/>
      <point x="359" y="320" type="qcurve" smooth="yes"/>
      <point x="382" y="320"/>
      <point x="382" y="299" type="qcurve" smooth="yes"/>
      <point x="382" y="292" type="line" smooth="yes"/>
      <point x="382" y="271"/>
    </contour>
  </outline>
</glyph>
<glyph name="lmiddledot" format="2">
  <advance width="276"/>
  <unicode hex="0140"/>
  <outline>
    <contour>
      <point x="251" y="240" type="qcurve"/>
      <point x="274" y="240"/>
      <point x="274" y="261" type="qcurve"/>
      <point x="274" y="268" type="line"/>
      <point x="274" y="289"/>
      <point x="251" y="289" type="qcurve"/>
      <point x="228" y="289"/>
      <point x="228" y="268" type="qcurve"/>
      <point x="228" y="261" type="line"/>
      <point x="228" y="240"/>
    </contour>
    <contour>
      <point x="211" y="0" type="line"/>
      <point x="211" y="19" type="line"/>
      <point x="126" y="19" type="line"/>
      <point x="126" y="740" type="line"/>
      <point x="105" y="740" type="line"/>
      <point x="105" y="29" type="line"/>
      <point x="105" y="1"/>
      <point x="134" y="0" type="qcurve"/>
    </contour>
  </outline>
</glyph>
<glyph name="lslash" format="2">
  <advance width="257"/>
  <unicode hex="0142"/>
  <outline>
    <contour>
      <point x="137" y="0" type="line"/>
      <point x="108" y="1"/>
      <point x="108" y="29" type="qcurve" smooth="yes"/>
      <point x="108" y="351" type="line"/>
      <point x="34" y="327" type="line"/>
      <point x="34" y="347" type="line"/>
      <point x="108" y="371" type="line"/>
      <point x="108" y="740" type="line"/>
      <point x="129" y="740" type="line"/>
      <point x="129" y="378" type="line"/>
      <point x="221" y="408" type="line"/>
      <point x="221" y="388" type="line"/>
      <point x="129" y="358" type="line"/>
      <point x="129" y="19" type="line"/>
      <point x="214" y="19" type="line"/>
      <point x="214" y="0" type="line"/>
    </contour>
  </outline>
</glyph>
<glyph name="Ncedilla" format="2">
  <advance width="692"/>
  <unicode hex="0145"/>
  <outline>
    <contour>
      <point x="584" y="0" type="line"/>
      <point x="584" y="698" type="line"/>
      <point x="563" y="698" type="line"/>
      <point x="563" y="27" type="line"/>
      <point x="560" y="27" type="line"/>
      <point x="140" y="698" type="line"/>
      <point x="108" y="698" type="line"/>
      <point x="108" y="0" type="line"/>
      <point x="129" y="0" type="line"/>
      <point x="129" y="671" type="line"/>
      <point x="132" y="671" type="line"/>
      <point x="552" y="0" type="line"/>
    </contour>
    <contour>
      <point x="324" y="-212" type="line"/>
      <point x="345" y="-189"/>
      <point x="369" y="-125"/>
      <point x="369" y="-99" type="qcurve"/>
      <point x="369" y="-88" type="line"/>
      <point x="369" y="-66"/>
      <point x="349" y="-66" type="qcurve"/>
      <point x="347" y="-66" type="line"/>
      <point x="323" y="-66"/>
      <point x="323" y="-88" type="qcurve"/>
      <point x="323" y="-96" type="line"/>
      <point x="323" y="-116"/>
      <point x="351" y="-116" type="qcurve"/>
      <point x="349" y="-134"/>
      <point x="328" y="-187"/>
      <point x="306" y="-212" type="qcurve"/>
    </contour>
  </outline>
</glyph>
<glyph name="ncedilla" format="2">
  <advance width="556"/>
  <unicode hex="0146"/>
  <outline>
    <contour>
      <point x="461" y="0" type="line"/>
      <point x="461" y="325" type="line"/>
      <point x="461" y="516"/>
      <point x="287" y="518" type="qcurve"/>
      <point x="219" y="518"/>
      <point x="142" y="465"/>
      <point x="129" y="430" type="qcurve"/>
      <point x="126" y="430" type="line"/>
      <point x="126" y="506" type="line"/>
      <point x="105" y="506" type="line"/>
      <point x="105" y="0" type="line"/>
      <point x="126" y="0" type="line"/>
      <point x="126" y="362" type="line"/>
      <point x="126" y="430"/>
      <point x="174" y="465" type="qcurve"/>
      <point x="224" y="499"/>
      <point x="285" y="499" type="qcurve"/>
      <point x="440" y="499"/>
      <point x="440" y="321" type="qcurve"/>
      <point x="440" y="0" type="line"/>
    </contour>
    <contour>
      <point x="261" y="-212" type="line"/>
      <point x="282" y="-189"/>
      <point x="306" y="-125"/>
      <point x="306" y="-99" type="qcurve"/>
      <point x="306" y="-88" type="line"/>
      <point x="306" y="-66"/>
      <point x="286" y="-66" type="qcurve"/>
      <point x="284" y="-66" type="line"/>
      <point x="260" y="-66"/>
      <point x="260" y="-88" type="qcurve"/>
      <point x="260" y="-96" type="line"/>
      <point x="260" y="-116"/>
      <point x="288" y="-116" type="qcurve"/>
      <point x="286" y="-134"/>
      <point x="265" y="-187"/>
      <point x="243" y="-212" type="qcurve"/>
    </contour>
  </outline>
</glyph>
<glyph name="napostrophe" format="2">
  <advance width="761"/>
  <unicode hex="0149"/>
  <outline>
    <contour>
      <point x="78" y="550" type="line"/>
      <point x="111" y="581"/>
      <point x="155" y="670"/>
      <point x="155" y="712" type="qcurve"/>
      <point x="155" y="724" type="line"/>
      <point x="155" y="750"/>
      <point x="129" y="750" type="qcurve"/>
      <point x="101" y="750"/>
      <point x="101" y="724" type="qcurve"/>
      <point x="101" y="715" type="line"/>
      <point x="101" y="692"/>
      <point x="133" y="692" type="qcurve"/>
      <point x="127" y="620"/>
      <point x="59" y="550" type="qcurve"/>
    </contour>
    <contour>
      <point x="666" y="0" type="line"/>
      <point x="666" y="325" type="line"/>
      <point x="666" y="516"/>
      <point x="492" y="518" type="qcurve"/>
      <point x="424" y="518"/>
      <point x="347" y="465"/>
      <point x="334" y="430" type="qcurve"/>
      <point x="331" y="430" type="line"/>
      <point x="331" y="506" type="line"/>
      <point x="310" y="506" type="line"/>
      <point x="310" y="0" type="line"/>
      <point x="331" y="0" type="line"/>
      <point x="331" y="362" type="line"/>
      <point x="331" y="430"/>
      <point x="379" y="465" type="qcurve"/>
      <point x="429" y="499"/>
      <point x="490" y="499" type="qcurve"/>
      <point x="645" y="499"/>
      <point x="645" y="321" type="qcurve"/>
      <point x="645" y="0" type="line"/>
    </contour>
  </outline>
</glyph>
<glyph name="Eng" format="2">
  <advance width="692"/>
  <unicode hex="014A"/>
  <outline>
    <contour>
      <point x="555" y="-200" type="line"/>
      <point x="584" y="-200"/>
      <point x="584" y="-171" type="qcurve"/>
      <point x="584" y="698" type="line"/>
      <point x="563" y="698" type="line"/>
      <point x="563" y="27" type="line"/>
      <point x="560" y="27" type="line"/>
      <point x="140" y="698" type="line"/>
      <point x="108" y="698" type="line"/>
      <point x="108" y="0" type="line"/>
      <point x="129" y="0" type="line"/>
      <point x="129" y="671" type="line"/>
      <point x="132" y="671" type="line"/>
      <point x="552" y="0" type="line"/>
      <point x="563" y="0" type="line"/>
      <point x="563" y="-181" type="line"/>
      <point x="478" y="-181" type="line"/>
      <point x="478" y="-200" type="line"/>
    </contour>
  </outline>
</glyph>
<glyph name="omacron" format="2">
  <advance width="540"/>
  <unicode hex="014D"/>
  <outline>
    <contour>
      <point x="270" y="-12" type="qcurve"/>
      <point x="370" y="-12"/>
      <point x="480" y="121"/>
      <point x="480" y="253" type="qcurve"/>
      <point x="480" y="385"/>
      <point x="370" y="518"/>
      <point x="270" y="518" type="qcurve"/>
      <point x="170" y="518"/>
      <point x="60" y="385"/>
      <point x="60" y="253" type="qcurve"/>
      <point x="60" y="121"/>
      <point x="170" y="-12"/>
    </contour>
    <contour>
      <point x="270" y="7" type="qcurve"/>
      <point x="179" y="7"/>
      <point x="83" y="126"/>
      <point x="83" y="229" type="qcurve"/>
      <point x="83" y="277" type="line"/>
      <point x="83" y="380"/>
      <point x="179" y="499"/>
      <point x="270" y="499" type="qcurve"/>
      <point x="361" y="499"/>
      <point x="457" y="380"/>
      <point x="457" y="277" type="qcurve"/>
      <point x="457" y="229" type="line"/>
      <point x="457" y="126"/>
      <point x="361" y="7"/>
    </contour>
    <contour>
      <point x="400" y="658" type="line"/>
      <point x="400" y="676" type="line"/>
      <point x="142" y="676" type="line"/>
      <point x="142" y="658" type="line"/>
    </contour>
  </outline>
</glyph>
<glyph name="Obreve" format="2">
  <advance width="680"/>
  <unicode hex="014E"/>
  <outline>
    <contour>
      <point x="340" y="-12" type="qcurve"/>
      <point x="471" y="-12"/>
      <point x="610" y="168"/>
      <point x="610" y="349" type="qcurve"/>
      <point x="610" y="530"/>
      <point x="471" y="710"/>
      <point x="340" y="710" type="qcurve"/>
      <point x="209" y="710"/>
      <point x="70" y="530"/>
      <point x="70" y="349" type="qcurve"/>
      <point x="70" y="168"/>
      <point x="209" y="-12"/>
    </contour>
    <contour>
      <point x="340" y="8" type="qcurve"/>
      <point x="225" y="8"/>
      <point x="94" y="169"/>
      <point x="94" y="328" type="qcurve"/>
      <point x="94" y="370" type="line"/>
      <point x="94" y="529"/>
      <point x="225" y="690"/>
      <point x="340" y="690" type="qcurve"/>
      <point x="455" y="690"/>
      <point x="586" y="529"/>
      <point x="586" y="370" type="qcurve"/>
      <point x="586" y="328" type="line"/>
      <point x="586" y="169"/>
      <point x="455" y="8"/>
    </contour>
    <contour>
      <point x="340" y="786" type="qcurve"/>
      <point x="390" y="786"/>
      <point x="444" y="846"/>
      <point x="468" y="895" type="qcurve"/>
      <point x="472" y="903" type="line"/>
      <point x="456" y="910" type="line"/>
      <point x="441" y="883" type="line"/>
      <point x="416" y="836"/>
      <point x="372" y="805"/>
      <point x="340" y="805" type="qcurve"/>
      <point x="306" y="805"/>
      <point x="287" y="821" type="qcurve"/>
      <point x="264" y="836"/>
      <point x="239" y="883" type="qcurve"/>
      <point x="224" y="910" type="line"/>
      <point x="208" y="903" type="line"/>
      <point x="212" y="895" type="line"/>
      <point x="236" y="846"/>
      <point x="288" y="786"/>
    </contour>
  </outline>
</glyph>
<glyph name="obreve" format="2">
  <advance width="540"/>
  <unicode hex="014F"/>
  <outline>
    <contour>
      <point x="270" y="-12" type="qcurve"/>
      <point x="370" y="-12"/>
      <point x="480" y="121"/>
      <point x="480" y="253" type="qcurve"/>
      <point x="480" y="385"/>
      <point x="370" y="518"/>
      <point x="270" y="518" type="qcurve"/>
      <point x="170" y="518"/>
      <point x="60" y="385"/>
      <point x="60" y="253" type="qcurve"/>
      <point x="60" y="121"/>
      <point x="170" y="-12"/>
    </contour>
    <contour>
      <point x="270" y="7" type="qcurve"/>
      <point x="179" y="7"/>
      <point x="83" y="126"/>
      <point x="83" y="229" type="qcurve"/>
      <point x="83" y="277" type="line"/>
      <point x="83" y="380"/>
      <point x="179" y="499"/>
      <point x="270" y="499" type="qcurve"/>
      <point x="361" y="499"/>
      <point x="457" y="380"/>
      <point x="457" y="277" type="qcurve"/>
      <point x="457" y="229" type="line"/>
      <point x="457" y="126"/>
      <point x="361" y="7"/>
    </contour>
    <contour>
      <point x="271" y="606" type="qcurve"/>
      <point x="321" y="606"/>
      <point x="375" y="666"/>
      <point x="399" y="715" type="qcurve"/>
      <point x="403" y="723" type="line"/>
      <point x="387" y="730" type="line"/>
      <point x="372" y="703" type="line"/>
      <point x="347" y="656"/>
      <point x="303" y="625"/>
      <point x="271" y="625" type="qcurve"/>
      <point x="237" y="625"/>
      <point x="218" y="641" type="qcurve"/>
      <point x="195" y="656"/>
      <point x="170" y="703" type="qcurve"/>
      <point x="155" y="730" type="line"/>
      <point x="139" y="723" type="line"/>
      <point x="143" y="715" type="line"/>
      <point x="167" y="666"/>
      <point x="219" y="606"/>
    </contour>
  </outline>
</glyph>
<glyph name="oe" format="2">
  <advance width="929"/>
  <unicode hex="0153"/>
  <outline>
    <contour>
      <point x="270" y="7" type="qcurve"/>
      <point x="179" y="7"/>
      <point x="83" y="126"/>
      <point x="83" y="229" type="qcurve"/>
      <point x="83" y="277" type="line"/>
      <point x="83" y="380"/>
      <point x="179" y="499"/>
      <point x="270" y="499" type="qcurve"/>
      <point x="361" y="499"/>
      <point x="457" y="380"/>
      <point x="457" y="277" type="qcurve"/>
      <point x="457" y="229" type="line"/>
      <point x="457" y="126"/>
      <point x="361" y="7"/>
    </contour>
    <contour>
      <point x="846" y="275" type="qcurve"/>
      <point x="479" y="275" type="line"/>
      <point x="479" y="380"/>
      <point x="575" y="499"/>
      <point x="664" y="499" type="qcurve"/>
      <point x="747" y="499"/>
      <point x="846" y="380"/>
    </contour>
    <contour>
      <point x="668" y="-12" type="qcurve"/>
      <point x="741" y="-12"/>
      <point x="838" y="60"/>
      <point x="861" y="124" type="qcurve"/>
      <point x="843" y="131" type="line"/>
      <point x="796" y="7"/>
      <point x="668" y="7" type="qcurve"/>
      <point x="577" y="7"/>
      <point x="479" y="126"/>
      <point x="479" y="229" type="qcurve"/>
      <point x="479" y="256" type="line"/>
      <point x="869" y="256" type="line"/>
      <point x="869" y="266" type="line"/>
      <point x="869" y="382"/>
      <point x="756" y="518"/>
      <point x="664" y="518" type="qcurve"/>
      <point x="514" y="518"/>
      <point x="470" y="362" type="qcurve"/>
      <point x="467" y="362" type="line"/>
      <point x="422" y="518"/>
      <point x="270" y="518" type="qcurve"/>
      <point x="170" y="518"/>
      <point x="60" y="385"/>
      <point x="60" y="253" type="qcurve"/>
      <point x="60" y="121"/>
      <point x="170" y="-12"/>
      <point x="270" y="-12" type="qcurve"/>
      <point x="425" y="-12"/>
      <point x="466" y="146" type="qcurve"/>
      <point x="469" y="146" type="line"/>
      <point x="514" y="-12"/>
    </contour>
  </outline>
</glyph>
<glyph name="rcedilla" format="2">
  <advance width="341"/>
  <unicode hex="0157"/>
  <outline>
    <contour>
      <point x="126" y="0" type="line"/>
      <point x="126" y="349" type="line"/>
      <point x="126" y="416"/>
      <point x="174" y="453" type="qcurve"/>
      <point x="223" y="487"/>
      <point x="284" y="487" type="qcurve"/>
      <point x="328" y="487" type="line"/>
      <point x="328" y="506" type="line"/>
      <point x="287" y="506" type="line"/>
      <point x="169" y="506"/>
      <point x="129" y="419" type="qcurve"/>
      <point x="126" y="419" type="line"/>
      <point x="126" y="506" type="line"/>
      <point x="105" y="506" type="line"/>
      <point x="105" y="0" type="line"/>
    </contour>
    <contour>
      <point x="94" y="-212" type="line"/>
      <point x="115" y="-189"/>
      <point x="139" y="-125"/>
      <point x="139" y="-99" type="qcurve"/>
      <point x="139" y="-88" type="line"/>
      <point x="139" y="-66"/>
      <point x="119" y="-66" type="qcurve"/>
      <point x="117" y="-66" type="line"/>
      <point x="93" y="-66"/>
      <point x="93" y="-88" type="qcurve"/>
      <point x="93" y="-96" type="line"/>
      <point x="93" y="-116"/>
      <point x="121" y="-116" type="qcurve"/>
      <point x="119" y="-134"/>
      <point x="98" y="-187"/>
      <point x="76" y="-212" type="qcurve"/>
    </contour>
  </outline>
</glyph>
<glyph name="rcaron" format="2">
  <advance width="341"/>
  <unicode hex="0159"/>
  <outline>
    <contour>
      <point x="126" y="0" type="line"/>
      <point x="126" y="349" type="line"/>
      <point x="126" y="416"/>
      <point x="174" y="453" type="qcurve"/>
      <point x="223" y="487"/>
      <point x="284" y="487" type="qcurve"/>
      <point x="328" y="487" type="line"/>
      <point x="328" y="506" type="line"/>
      <point x="287" y="506" type="line"/>
      <point x="169" y="506"/>
      <point x="129" y="419" type="qcurve"/>
      <point x="126" y="419" type="line"/>
      <point x="126" y="506" type="line"/>
      <point x="105" y="506" type="line"/>
      <point x="105" y="0" type="line"/>
    </contour>
    <contour>
      <point x="234" y="603" type="line"/>
      <point x="362" y="736" type="line"/>
      <point x="348" y="747" type="line"/>
      <point x="222" y="620" type="line"/>
      <point x="96" y="747" type="line"/>
      <point x="82" y="736" type="line"/>
      <point x="210" y="603" type="line"/>
    </contour>
  </outline>
</glyph>
<glyph name="sacute" format="2">
  <advance width="462"/>
  <unicode hex="015B"/>
  <outline>
    <contour>
      <point x="191" y="597" type="line"/>
      <point x="302" y="751" type="line"/>
      <point x="321" y="739" type="line"/>
      <point x="206" y="587" type="line"/>
    </contour>
    <contour>
      <point x="236" y="-12" type="qcurve" smooth="yes"/>
      <point x="175" y="-12"/>
      <point x="84" y="31"/>
      <point x="49" y="81" type="qcurve"/>
      <point x="67" y="93" type="line"/>
      <point x="124" y="7"/>
      <point x="236" y="7" type="qcurve"/>
      <point x="382" y="10"/>
      <point x="382" y="124" type="qcurve" smooth="yes"/>
      <point x="382" y="181"/>
      <point x="317" y="236"/>
      <point x="254" y="245" type="qcurve" smooth="yes"/>
      <point x="210" y="252" type="line"/>
      <point x="143" y="261"/>
      <point x="66" y="323"/>
      <point x="66" y="389" type="qcurve" smooth="yes"/>
      <point x="66" y="454"/>
      <point x="159" y="518"/>
      <point x="226" y="518" type="qcurve" smooth="yes"/>
      <point x="335" y="518"/>
      <point x="393" y="445" type="qcurve"/>
      <point x="377" y="431" type="line"/>
      <point x="354" y="458"/>
      <point x="287" y="499"/>
      <point x="227" y="499" type="qcurve" smooth="yes"/>
      <point x="164" y="499"/>
      <point x="87" y="444"/>
      <point x="87" y="390" type="qcurve" smooth="yes"/>
      <point x="87" y="333"/>
      <point x="149" y="282"/>
      <point x="214" y="272" type="qcurve" smooth="yes"/>
      <point x="258" y="265" type="line"/>
      <point x="325" y="256"/>
      <point x="403" y="191"/>
      <point x="403" y="125" type="qcurve" smooth="yes"/>
      <point x="403" y="59"/>
      <point x="314" y="-12"/>
    </contour>
  </outline>
</glyph>
<glyph name="scircumflex" format="2">
  <advance width="462"/>
  <unicode hex="015D"/>
  <outline>
    <contour>
      <point x="236" y="-12" type="qcurve"/>
      <point x="314" y="-12"/>
      <point x="403" y="59"/>
      <point x="403" y="125" type="qcurve"/>
      <point x="403" y="191"/>
      <point x="325" y="256"/>
      <point x="258" y="265" type="qcurve"/>
      <point x="214" y="272" type="line"/>
      <point x="149" y="282"/>
      <point x="87" y="333"/>
      <point x="87" y="390" type="qcurve"/>
      <point x="87" y="444"/>
      <point x="164" y="499"/>
      <point x="227" y="499" type="qcurve"/>
      <point x="287" y="499"/>
      <point x="354" y="458"/>
      <point x="377" y="431" type="qcurve"/>
      <point x="393" y="445" type="line"/>
      <point x="335" y="518"/>
      <point x="226" y="518" type="qcurve"/>
      <point x="159" y="518"/>
      <point x="66" y="454"/>
      <point x="66" y="389" type="qcurve"/>
      <point x="66" y="323"/>
      <point x="143" y="261"/>
      <point x="210" y="252" type="qcurve"/>
      <point x="254" y="245" type="line"/>
      <point x="317" y="236"/>
      <point x="382" y="181"/>
      <point x="382" y="124" type="qcurve"/>
      <point x="382" y="10"/>
      <point x="236" y="7" type="qcurve"/>
      <point x="124" y="7"/>
      <point x="67" y="93" type="qcurve"/>
      <point x="49" y="81" type="line"/>
      <point x="84" y="31"/>
      <point x="175" y="-12"/>
    </contour>
    <contour>
      <point x="350" y="599" type="line"/>
      <point x="364" y="610" type="line"/>
      <point x="236" y="743" type="line"/>
      <point x="212" y="743" type="line"/>
      <point x="84" y="610" type="line"/>
      <point x="98" y="599" type="line"/>
      <point x="224" y="726" type="line"/>
    </contour>
  </outline>
</glyph>
<glyph name="Scedilla" format="2">
  <advance width="547"/>
  <unicode hex="015E"/>
  <outline>
    <contour>
      <point x="283" y="-202" type="qcurve" smooth="yes"/>
      <point x="254" y="-202"/>
      <point x="211" y="-183"/>
      <point x="202" y="-170" type="qcurve"/>
      <point x="215" y="-157" type="line"/>
      <point x="237" y="-184"/>
      <point x="283" y="-184" type="qcurve" smooth="yes"/>
      <point x="310" y="-184"/>
      <point x="344" y="-158"/>
      <point x="344" y="-132" type="qcurve" smooth="yes"/>
      <point x="344" y="-91"/>
      <point x="283" y="-86" type="qcurve"/>
      <point x="246" y="-84" type="line"/>
      <point x="263" y="-12" type="line"/>
      <point x="183" y="-8"/>
      <point x="77" y="53"/>
      <point x="42" y="102" type="qcurve"/>
      <point x="60" y="115" type="line"/>
      <point x="137" y="8"/>
      <point x="276" y="8" type="qcurve" smooth="yes"/>
      <point x="367" y="8"/>
      <point x="467" y="93"/>
      <point x="467" y="176" type="qcurve" smooth="yes"/>
      <point x="467" y="256"/>
      <point x="418" y="297" type="qcurve"/>
      <point x="371" y="331"/>
      <point x="306" y="341" type="qcurve"/>
      <point x="236" y="354" type="line" smooth="yes"/>
      <point x="133" y="374"/>
      <point x="95" y="423" type="qcurve"/>
      <point x="58" y="466"/>
      <point x="58" y="534" type="qcurve" smooth="yes"/>
      <point x="58" y="623"/>
      <point x="174" y="710"/>
      <point x="271" y="710" type="qcurve" smooth="yes"/>
      <point x="413" y="710"/>
      <point x="477" y="615" type="qcurve"/>
      <point x="459" y="602" type="line"/>
      <point x="429" y="646"/>
      <point x="337" y="690"/>
      <point x="269" y="690" type="qcurve" smooth="yes"/>
      <point x="180" y="690"/>
      <point x="80" y="613"/>
      <point x="80" y="534" type="qcurve" smooth="yes"/>
      <point x="80" y="400"/>
      <point x="242" y="375" type="qcurve"/>
      <point x="312" y="362" type="line"/>
      <point x="417" y="341"/>
      <point x="454" y="291" type="qcurve"/>
      <point x="489" y="247"/>
      <point x="489" y="178" type="qcurve" smooth="yes"/>
      <point x="489" y="83"/>
      <point x="375" y="-12"/>
      <point x="281" y="-12" type="qcurve"/>
      <point x="266" y="-73" type="line"/>
      <point x="268" y="-75" type="line"/>
      <point x="278" y="-72"/>
      <point x="298" y="-72" type="qcurve"/>
      <point x="365" y="-77"/>
      <point x="365" y="-131" type="qcurve" smooth="yes"/>
      <point x="365" y="-160"/>
      <point x="321" y="-202"/>
    </contour>
  </outline>
</glyph>
<glyph name="scedilla" format="2">
  <advance width="462"/>
  <unicode hex="015F"/>
  <outline>
    <contour>
      <point x="246" y="-202" type="qcurve"/>
      <point x="284" y="-202"/>
      <point x="328" y="-160"/>
      <point x="328" y="-131" type="qcurve"/>
      <point x="328" y="-77"/>
      <point x="261" y="-72" type="qcurve"/>
      <point x="241" y="-72"/>
      <point x="231" y="-75" type="qcurve"/>
      <point x="229" y="-73" type="line"/>
      <point x="244" y="-12" type="line"/>
      <point x="403" y="-2"/>
      <point x="403" y="125" type="qcurve"/>
      <point x="403" y="191"/>
      <point x="325" y="256"/>
      <point x="258" y="265" type="qcurve"/>
      <point x="214" y="272" type="line"/>
      <point x="149" y="282"/>
      <point x="87" y="333"/>
      <point x="87" y="390" type="qcurve"/>
      <point x="87" y="444"/>
      <point x="164" y="499"/>
      <point x="227" y="499" type="qcurve"/>
      <point x="287" y="499"/>
      <point x="354" y="458"/>
      <point x="377" y="431" type="qcurve"/>
      <point x="393" y="445" type="line"/>
      <point x="335" y="518"/>
      <point x="226" y="518" type="qcurve"/>
      <point x="159" y="518"/>
      <point x="66" y="454"/>
      <point x="66" y="389" type="qcurve"/>
      <point x="66" y="323"/>
      <point x="143" y="261"/>
      <point x="210" y="252" type="qcurve"/>
      <point x="254" y="245" type="line"/>
      <point x="317" y="236"/>
      <point x="382" y="181"/>
      <point x="382" y="124" type="qcurve"/>
      <point x="382" y="10"/>
      <point x="236" y="7" type="qcurve"/>
      <point x="124" y="7"/>
      <point x="67" y="93" type="qcurve"/>
      <point x="49" y="81" type="line"/>
      <point x="114" y="-11"/>
      <point x="226" y="-12" type="qcurve"/>
      <point x="209" y="-84" type="line"/>
      <point x="246" y="-86" type="line"/>
      <point x="307" y="-91"/>
      <point x="307" y="-132" type="qcurve"/>
      <point x="307" y="-158"/>
      <point x="273" y="-184"/>
      <point x="246" y="-184" type="qcurve"/>
      <point x="200" y="-184"/>
      <point x="178" y="-157" type="qcurve"/>
      <point x="165" y="-170" type="line"/>
      <point x="174" y="-183"/>
      <point x="217" y="-202"/>
    </contour>
  </outline>
</glyph>
<glyph name="Scaron" format="2">
  <advance width="547"/>
  <unicode hex="0160"/>
  <outline>
    <contour>
      <point x="276" y="-12" type="qcurve"/>
      <point x="374" y="-12"/>
      <point x="489" y="83"/>
      <point x="489" y="178" type="qcurve"/>
      <point x="489" y="247"/>
      <point x="454" y="291" type="qcurve"/>
      <point x="417" y="341"/>
      <point x="312" y="362" type="qcurve"/>
      <point x="242" y="375" type="line"/>
      <point x="80" y="400"/>
      <point x="80" y="534" type="qcurve"/>
      <point x="80" y="613"/>
      <point x="180" y="690"/>
      <point x="269" y="690" type="qcurve"/>
      <point x="337" y="690"/>
      <point x="429" y="646"/>
      <point x="459" y="602" type="qcurve"/>
      <point x="477" y="615" type="line"/>
      <point x="413" y="710"/>
      <point x="271" y="710" type="qcurve"/>
      <point x="174" y="710"/>
      <point x="58" y="623"/>
      <point x="58" y="534" type="qcurve"/>
      <point x="58" y="466"/>
      <point x="95" y="423" type="qcurve"/>
      <point x="133" y="374"/>
      <point x="236" y="354" type="qcurve"/>
      <point x="306" y="341" type="line"/>
      <point x="371" y="331"/>
      <point x="418" y="297" type="qcurve"/>
      <point x="467" y="256"/>
      <point x="467" y="176" type="qcurve"/>
      <point x="467" y="93"/>
      <point x="367" y="8"/>
      <point x="276" y="8" type="qcurve"/>
      <point x="137" y="8"/>
      <point x="60" y="115" type="qcurve"/>
      <point x="42" y="102" type="line"/>
      <point x="125" y="-12"/>
    </contour>
    <contour>
      <point x="281" y="783" type="line"/>
      <point x="409" y="916" type="line"/>
      <point x="395" y="927" type="line"/>
      <point x="269" y="800" type="line"/>
      <point x="143" y="927" type="line"/>
      <point x="129" y="916" type="line"/>
      <point x="257" y="783" type="line"/>
    </contour>
  </outline>
</glyph>
<glyph name="tcedilla" format="2">
  <advance width="310"/>
  <unicode hex="0163"/>
  <outline>
    <contour>
      <point x="259" y="0" type="line"/>
      <point x="259" y="19" type="line"/>
      <point x="146" y="19" type="line"/>
      <point x="146" y="487" type="line"/>
      <point x="267" y="487" type="line"/>
      <point x="267" y="506" type="line"/>
      <point x="146" y="506" type="line"/>
      <point x="146" y="650" type="line"/>
      <point x="125" y="650" type="line"/>
      <point x="125" y="531" type="line"/>
      <point x="125" y="517"/>
      <point x="116" y="506"/>
      <point x="102" y="506" type="qcurve"/>
      <point x="30" y="506" type="line"/>
      <point x="30" y="487" type="line"/>
      <point x="125" y="487" type="line"/>
      <point x="125" y="29" type="line"/>
      <point x="125" y="1"/>
      <point x="154" y="0" type="qcurve"/>
    </contour>
    <contour>
      <point x="168" y="-212" type="line"/>
      <point x="189" y="-189"/>
      <point x="213" y="-125"/>
      <point x="213" y="-99" type="qcurve"/>
      <point x="213" y="-88" type="line"/>
      <point x="213" y="-66"/>
      <point x="193" y="-66" type="qcurve"/>
      <point x="191" y="-66" type="line"/>
      <point x="167" y="-66"/>
      <point x="167" y="-88" type="qcurve"/>
      <point x="167" y="-96" type="line"/>
      <point x="167" y="-116"/>
      <point x="195" y="-116" type="qcurve"/>
      <point x="193" y="-134"/>
      <point x="172" y="-187"/>
      <point x="150" y="-212" type="qcurve"/>
    </contour>
  </outline>
</glyph>
<glyph name="Tcaron" format="2">
  <advance width="560"/>
  <unicode hex="0164"/>
  <outline>
    <contour>
      <point x="269" y="783" type="line"/>
      <point x="141" y="916" type="line"/>
      <point x="155" y="927" type="line"/>
      <point x="281" y="800" type="line"/>
      <point x="407" y="927" type="line"/>
      <point x="421" y="916" type="line"/>
      <point x="293" y="783" type="line"/>
    </contour>
    <contour>
      <point x="269" y="0" type="line"/>
      <point x="269" y="678" type="line"/>
      <point x="17" y="678" type="line"/>
      <point x="17" y="698" type="line"/>
      <point x="543" y="698" type="line"/>
      <point x="543" y="678" type="line"/>
      <point x="291" y="678" type="line"/>
      <point x="291" y="0" type="line"/>
    </contour>
  </outline>
</glyph>
<glyph name="tbar" format="2">
  <advance width="316"/>
  <unicode hex="0167"/>
  <outline>
    <contour>
      <point x="157" y="0" type="line"/>
      <point x="128" y="1"/>
      <point x="128" y="29" type="qcurve" smooth="yes"/>
      <point x="128" y="280" type="line"/>
      <point x="59" y="280" type="line"/>
      <point x="59" y="298" type="line"/>
      <point x="128" y="298" type="line"/>
      <point x="128" y="487" type="line"/>
      <point x="33" y="487" type="line"/>
      <point x="33" y="506" type="line"/>
      <point x="105" y="506" type="line" smooth="yes"/>
      <point x="119" y="506"/>
      <point x="128" y="517"/>
      <point x="128" y="531" type="qcurve" smooth="yes"/>
      <point x="128" y="650" type="line"/>
      <point x="149" y="650" type="line"/>
      <point x="149" y="506" type="line"/>
      <point x="270" y="506" type="line"/>
      <point x="270" y="487" type="line"/>
      <point x="149" y="487" type="line"/>
      <point x="149" y="298" type="line"/>
      <point x="250" y="298" type="line"/>
      <point x="250" y="280" type="line"/>
      <point x="149" y="280" type="line"/>
      <point x="149" y="19" type="line"/>
      <point x="262" y="19" type="line"/>
      <point x="262" y="0" type="line"/>
    </contour>
  </outline>
</glyph>
<glyph name="Utilde" format="2">
  <advance width="652"/>
  <unicode hex="0168"/>
  <outline>
    <contour>
      <point x="326" y="-12" type="qcurve"/>
      <point x="452" y="-12"/>
      <point x="552" y="114"/>
      <point x="552" y="270" type="qcurve"/>
      <point x="552" y="698" type="line"/>
      <point x="530" y="698" type="line"/>
      <point x="530" y="268" type="line"/>
      <point x="530" y="126"/>
      <point x="442" y="8"/>
      <point x="326" y="8" type="qcurve"/>
      <point x="208" y="8"/>
      <point x="166" y="67" type="qcurve"/>
      <point x="122" y="126"/>
      <point x="122" y="268" type="qcurve"/>
      <point x="122" y="698" type="line"/>
      <point x="100" y="698" type="line"/>
      <point x="100" y="270" type="line"/>
      <point x="100" y="114"/>
      <point x="200" y="-12"/>
    </contour>
    <contour>
      <point x="396" y="808" type="qcurve"/>
      <point x="440" y="808"/>
      <point x="474" y="847" type="qcurve"/>
      <point x="462" y="859" type="line"/>
      <point x="433" y="826"/>
      <point x="397" y="826" type="qcurve"/>
      <point x="369" y="826"/>
      <point x="331" y="852" type="qcurve"/>
      <point x="305" y="869"/>
      <point x="271" y="882"/>
      <point x="254" y="882" type="qcurve"/>
      <point x="211" y="882"/>
      <point x="176" y="843" type="qcurve"/>
      <point x="188" y="831" type="line"/>
      <point x="219" y="864"/>
      <point x="253" y="864" type="qcurve"/>
      <point x="282" y="864"/>
      <point x="319" y="838" type="qcurve"/>
      <point x="345" y="821"/>
      <point x="379" y="808"/>
    </contour>
  </outline>
</glyph>
<glyph name="umacron" format="2">
  <advance width="556"/>
  <unicode hex="016B"/>
  <outline>
    <contour>
      <point x="269" y="-12" type="qcurve"/>
      <point x="337" y="-12"/>
      <point x="413" y="41"/>
      <point x="427" y="76" type="qcurve"/>
      <point x="430" y="76" type="line"/>
      <point x="430" y="0" type="line"/>
      <point x="451" y="0" type="line"/>
      <point x="451" y="506" type="line"/>
      <point x="430" y="506" type="line"/>
      <point x="430" y="144" type="line"/>
      <point x="430" y="78"/>
      <point x="382" y="41" type="qcurve"/>
      <point x="333" y="7"/>
      <point x="271" y="7" type="qcurve"/>
      <point x="116" y="7"/>
      <point x="116" y="185" type="qcurve"/>
      <point x="116" y="506" type="line"/>
      <point x="95" y="506" type="line"/>
      <point x="95" y="181" type="line"/>
      <point x="95" y="-9"/>
    </contour>
    <contour>
      <point x="403" y="658" type="line"/>
      <point x="403" y="676" type="line"/>
      <point x="145" y="676" type="line"/>
      <point x="145" y="658" type="line"/>
    </contour>
  </outline>
</glyph>
<glyph name="Ubreve" format="2">
  <advance width="652"/>
  <unicode hex="016C"/>
  <outline>
    <contour>
      <point x="326" y="-12" type="qcurve"/>
      <point x="452" y="-12"/>
      <point x="552" y="114"/>
      <point x="552" y="270" type="qcurve"/>
      <point x="552" y="698" type="line"/>
      <point x="530" y="698" type="line"/>
      <point x="530" y="268" type="line"/>
      <point x="530" y="126"/>
      <point x="442" y="8"/>
      <point x="326" y="8" type="qcurve"/>
      <point x="208" y="8"/>
      <point x="166" y="67" type="qcurve"/>
      <point x="122" y="126"/>
      <point x="122" y="268" type="qcurve"/>
      <point x="122" y="698" type="line"/>
      <point x="100" y="698" type="line"/>
      <point x="100" y="270" type="line"/>
      <point x="100" y="114"/>
      <point x="200" y="-12"/>
    </contour>
    <contour>
      <point x="325" y="786" type="qcurve"/>
      <point x="375" y="786"/>
      <point x="429" y="846"/>
      <point x="453" y="895" type="qcurve"/>
      <point x="457" y="903" type="line"/>
      <point x="441" y="910" type="line"/>
      <point x="426" y="883" type="line"/>
      <point x="401" y="836"/>
      <point x="357" y="805"/>
      <point x="325" y="805" type="qcurve"/>
      <point x="291" y="805"/>
      <point x="272" y="821" type="qcurve"/>
      <point x="249" y="836"/>
      <point x="224" y="883" type="qcurve"/>
      <point x="209" y="910" type="line"/>
      <point x="193" y="903" type="line"/>
      <point x="197" y="895" type="line"/>
      <point x="221" y="846"/>
      <point x="273" y="786"/>
    </contour>
  </outline>
</glyph>
<glyph name="Uring" format="2">
  <advance width="652"/>
  <unicode hex="016E"/>
  <outline>
    <contour>
      <point x="326" y="-12" type="qcurve"/>
      <point x="452" y="-12"/>
      <point x="552" y="114"/>
      <point x="552" y="270" type="qcurve"/>
      <point x="552" y="698" type="line"/>
      <point x="530" y="698" type="line"/>
      <point x="530" y="268" type="line"/>
      <point x="530" y="126"/>
      <point x="442" y="8"/>
      <point x="326" y="8" type="qcurve"/>
      <point x="208" y="8"/>
      <point x="166" y="67" type="qcurve"/>
      <point x="122" y="126"/>
      <point x="122" y="268" type="qcurve"/>
      <point x="122" y="698" type="line"/>
      <point x="100" y="698" type="line"/>
      <point x="100" y="270" type="line"/>
      <point x="100" y="114"/>
      <point x="200" y="-12"/>
    </contour>
    <contour>
      <point x="325" y="769" type="qcurve"/>
      <point x="366" y="769"/>
      <point x="415" y="819"/>
      <point x="415" y="860" type="qcurve"/>
      <point x="415" y="901"/>
      <point x="366" y="951"/>
      <point x="325" y="951" type="qcurve"/>
      <point x="284" y="951"/>
      <point x="235" y="901"/>
      <point x="235" y="860" type="qcurve"/>
      <point x="235" y="819"/>
      <point x="284" y="769"/>
    </contour>
    <contour>
      <point x="325" y="787" type="qcurve"/>
      <point x="255" y="787"/>
      <point x="255" y="865" type="qcurve"/>
      <point x="255" y="896"/>
      <point x="293" y="933"/>
      <point x="325" y="933" type="qcurve"/>
      <point x="395" y="933"/>
      <point x="395" y="855" type="qcurve"/>
      <point x="395" y="824"/>
      <point x="357" y="787"/>
    </contour>
  </outline>
</glyph>
<glyph name="uring" format="2">
  <advance width="556"/>
  <unicode hex="016F"/>
  <outline>
    <contour>
      <point x="269" y="-12" type="qcurve"/>
      <point x="337" y="-12"/>
      <point x="413" y="41"/>
      <point x="427" y="76" type="qcurve"/>
      <point x="430" y="76" type="line"/>
      <point x="430" y="0" type="line"/>
      <point x="451" y="0" type="line"/>
      <point x="451" y="506" type="line"/>
      <point x="430" y="506" type="line"/>
      <point x="430" y="144" type="line"/>
      <point x="430" y="78"/>
      <point x="382" y="41" type="qcurve"/>
      <point x="333" y="7"/>
      <point x="271" y="7" type="qcurve"/>
      <point x="116" y="7"/>
      <point x="116" y="185" type="qcurve"/>
      <point x="116" y="506" type="line"/>
      <point x="95" y="506" type="line"/>
      <point x="95" y="181" type="line"/>
      <point x="95" y="-9"/>
    </contour>
    <contour>
      <point x="274" y="589" type="qcurve"/>
      <point x="315" y="589"/>
      <point x="364" y="639"/>
      <point x="364" y="680" type="qcurve"/>
      <point x="364" y="721"/>
      <point x="315" y="771"/>
      <point x="274" y="771" type="qcurve"/>
      <point x="233" y="771"/>
      <point x="184" y="721"/>
      <point x="184" y="680" type="qcurve"/>
      <point x="184" y="639"/>
      <point x="233" y="589"/>
    </contour>
    <contour>
      <point x="274" y="607" type="qcurve"/>
      <point x="204" y="607"/>
      <point x="204" y="685" type="qcurve"/>
      <point x="204" y="716"/>
      <point x="242" y="753"/>
      <point x="274" y="753" type="qcurve"/>
      <point x="344" y="753"/>
      <point x="344" y="675" type="qcurve"/>
      <point x="344" y="644"/>
      <point x="306" y="607"/>
    </contour>
  </outline>
</glyph>
<glyph name="Uogonek" format="2">
  <advance width="652"/>
  <unicode hex="0172"/>
  <outline>
    <contour>
      <point x="375" y="-202" type="qcurve"/>
      <point x="429" y="-202"/>
      <point x="450" y="-170" type="qcurve"/>
      <point x="436" y="-159" type="line"/>
      <point x="415" y="-184"/>
      <point x="376" y="-184" type="qcurve"/>
      <point x="350" y="-184"/>
      <point x="318" y="-158"/>
      <point x="318" y="-131" type="qcurve"/>
      <point x="318" y="-54"/>
      <point x="450" y="10" type="qcurve"/>
      <point x="506" y="38"/>
      <point x="552" y="163"/>
      <point x="552" y="270" type="qcurve"/>
      <point x="552" y="698" type="line"/>
      <point x="530" y="698" type="line"/>
      <point x="530" y="268" type="line"/>
      <point x="530" y="126"/>
      <point x="442" y="8"/>
      <point x="326" y="8" type="qcurve"/>
      <point x="208" y="8"/>
      <point x="166" y="67" type="qcurve"/>
      <point x="122" y="126"/>
      <point x="122" y="268" type="qcurve"/>
      <point x="122" y="698" type="line"/>
      <point x="100" y="698" type="line"/>
      <point x="100" y="270" type="line"/>
      <point x="100" y="114"/>
      <point x="200" y="-12"/>
      <point x="326" y="-12" type="qcurve"/>
      <point x="368" y="-12"/>
      <point x="398" y="-4" type="qcurve"/>
      <point x="399" y="-6" type="line"/>
      <point x="339" y="-42"/>
      <point x="297" y="-105"/>
      <point x="297" y="-134" type="qcurve"/>
      <point x="297" y="-168"/>
      <point x="341" y="-202"/>
    </contour>
  </outline>
</glyph>
<glyph name="wcircumflex" format="2">
  <advance width="725"/>
  <unicode hex="0175"/>
  <outline>
    <contour>
      <point x="536" y="0" type="line"/>
      <point x="690" y="506" type="line"/>
      <point x="669" y="506" type="line"/>
      <point x="525" y="27" type="line"/>
      <point x="522" y="27" type="line"/>
      <point x="374" y="506" type="line"/>
      <point x="352" y="506" type="line"/>
      <point x="204" y="27" type="line"/>
      <point x="201" y="27" type="line"/>
      <point x="57" y="506" type="line"/>
      <point x="35" y="506" type="line"/>
      <point x="189" y="0" type="line"/>
      <point x="215" y="0" type="line"/>
      <point x="361" y="472" type="line"/>
      <point x="364" y="472" type="line"/>
      <point x="510" y="0" type="line"/>
    </contour>
    <contour>
      <point x="489" y="599" type="line"/>
      <point x="503" y="610" type="line"/>
      <point x="375" y="743" type="line"/>
      <point x="351" y="743" type="line"/>
      <point x="223" y="610" type="line"/>
      <point x="237" y="599" type="line"/>
      <point x="363" y="726" type="line"/>
    </contour>
  </outline>
</glyph>
<glyph name="ycircumflex" format="2">
  <advance width="452"/>
  <unicode hex="0177"/>
  <outline>
    <contour>
      <point x="141" y="-200" type="line"/>
      <point x="165" y="-200"/>
      <point x="172" y="-181" type="qcurve"/>
      <point x="427" y="506" type="line"/>
      <point x="406" y="506" type="line"/>
      <point x="228" y="24" type="line"/>
      <point x="225" y="24" type="line"/>
      <point x="47" y="506" type="line"/>
      <point x="25" y="506" type="line"/>
      <point x="216" y="-7" type="line"/>
      <point x="150" y="-181" type="line"/>
      <point x="57" y="-181" type="line"/>
      <point x="57" y="-200" type="line"/>
    </contour>
    <contour>
      <point x="355" y="599" type="line"/>
      <point x="369" y="610" type="line"/>
      <point x="241" y="743" type="line"/>
      <point x="217" y="743" type="line"/>
      <point x="89" y="610" type="line"/>
      <point x="103" y="599" type="line"/>
      <point x="229" y="726" type="line"/>
    </contour>
  </outline>
</glyph>
<glyph name="Zacute" format="2">
  <advance width="555"/>
  <unicode hex="0179"/>
  <outline>
    <contour>
      <point x="250" y="777" type="line"/>
      <point x="361" y="931" type="line"/>
      <point x="380" y="919" type="line"/>
      <point x="265" y="767" type="line"/>
    </contour>
    <contour>
      <point x="39" y="0" type="line"/>
      <point x="39" y="22" type="line"/>
      <point x="482" y="678" type="line"/>
      <point x="62" y="678" type="line"/>
      <point x="62" y="698" type="line"/>
      <point x="506" y="698" type="line"/>
      <point x="506" y="676" type="line"/>
      <point x="63" y="20" type="line"/>
      <point x="527" y="20" type="line"/>
      <point x="527" y="0" type="line"/>
    </contour>
  </outline>
</glyph>
<glyph name="zacute" format="2">
  <advance width="417"/>
  <unicode hex="017A"/>
  <outline>
    <contour>
      <point x="396" y="0" type="line"/>
      <point x="396" y="19" type="line"/>
      <point x="49" y="19" type="line"/>
      <point x="386" y="485" type="line"/>
      <point x="386" y="506" type="line"/>
      <point x="37" y="506" type="line"/>
      <point x="37" y="487" type="line"/>
      <point x="364" y="487" type="line"/>
      <point x="27" y="21" type="line"/>
      <point x="27" y="0" type="line"/>
    </contour>
    <contour>
      <point x="192" y="587" type="line"/>
      <point x="307" y="739" type="line"/>
      <point x="288" y="751" type="line"/>
      <point x="177" y="597" type="line"/>
    </contour>
  </outline>
</glyph>
<glyph name="Zdotaccent" format="2">
  <advance width="555"/>
  <unicode hex="017B"/>
  <outline>
    <contour>
      <point x="527" y="0" type="line"/>
      <point x="527" y="20" type="line"/>
      <point x="63" y="20" type="line"/>
      <point x="506" y="676" type="line"/>
      <point x="506" y="698" type="line"/>
      <point x="62" y="698" type="line"/>
      <point x="62" y="678" type="line"/>
      <point x="482" y="678" type="line"/>
      <point x="39" y="22" type="line"/>
      <point x="39" y="0" type="line"/>
    </contour>
    <contour>
      <point x="283" y="822" type="qcurve"/>
      <point x="306" y="822"/>
      <point x="306" y="843" type="qcurve"/>
      <point x="306" y="850" type="line"/>
      <point x="306" y="871"/>
      <point x="283" y="871" type="qcurve"/>
      <point x="260" y="871"/>
      <point x="260" y="850" type="qcurve"/>
      <point x="260" y="843" type="line"/>
      <point x="260" y="822"/>
    </contour>
  </outline>
</glyph>
<glyph name="fhook" format="2">
  <advance width="488"/>
  <unicode hex="0192"/>
  <outline>
    <contour>
      <point x="165" y="-134" type="line"/>
      <point x="197" y="-134"/>
      <point x="199" y="-105" type="qcurve"/>
      <point x="240" y="311" type="line"/>
      <point x="450" y="311" type="line"/>
      <point x="452" y="330" type="line"/>
      <point x="242" y="330" type="line"/>
      <point x="277" y="679" type="line"/>
      <point x="462" y="679" type="line"/>
      <point x="464" y="698" type="line"/>
      <point x="288" y="698" type="line"/>
      <point x="258" y="698"/>
      <point x="255" y="669" type="qcurve"/>
      <point x="221" y="330" type="line"/>
      <point x="48" y="330" type="line"/>
      <point x="46" y="311" type="line"/>
      <point x="219" y="311" type="line"/>
      <point x="177" y="-115" type="line"/>
      <point x="-1" y="-115" type="line"/>
      <point x="-3" y="-134" type="line"/>
    </contour>
  </outline>
</glyph>
<glyph name="Aringacute" format="2">
  <advance width="600"/>
  <unicode hex="01FA"/>
  <outline>
    <contour>
      <point x="568" y="0" type="line"/>
      <point x="315" y="698" type="line"/>
      <point x="285" y="698" type="line"/>
      <point x="32" y="0" type="line"/>
      <point x="55" y="0" type="line"/>
      <point x="140" y="234" type="line"/>
      <point x="460" y="234" type="line"/>
      <point x="545" y="0" type="line"/>
    </contour>
    <contour>
      <point x="453" y="253" type="line"/>
      <point x="147" y="253" type="line"/>
      <point x="298" y="675" type="line"/>
      <point x="301" y="675" type="line"/>
    </contour>
    <contour>
      <point x="300" y="979" type="line"/>
      <point x="384" y="1078" type="line"/>
      <point x="365" y="1091" type="line"/>
      <point x="285" y="988" type="line"/>
    </contour>
    <contour>
      <point x="300" y="769" type="qcurve"/>
      <point x="341" y="769"/>
      <point x="390" y="819"/>
      <point x="390" y="860" type="qcurve"/>
      <point x="390" y="901"/>
      <point x="341" y="951"/>
      <point x="300" y="951" type="qcurve"/>
      <point x="259" y="951"/>
      <point x="210" y="901"/>
      <point x="210" y="860" type="qcurve"/>
      <point x="210" y="819"/>
      <point x="259" y="769"/>
    </contour>
    <contour>
      <point x="300" y="787" type="qcurve"/>
      <point x="230" y="787"/>
      <point x="230" y="865" type="qcurve"/>
      <point x="230" y="896"/>
      <point x="268" y="933"/>
      <point x="300" y="933" type="qcurve"/>
      <point x="370" y="933"/>
      <point x="370" y="855" type="qcurve"/>
      <point x="370" y="824"/>
      <point x="332" y="787"/>
    </contour>
  </outline>
</glyph>
<glyph name="AEacute" format="2">
  <advance width="861"/>
  <unicode hex="01FC"/>
  <outline>
    <contour>
      <point x="569" y="777" type="line"/>
      <point x="680" y="931" type="line"/>
      <point x="699" y="919" type="line"/>
      <point x="584" y="767" type="line"/>
    </contour>
    <contour>
      <point x="408" y="0" type="line"/>
      <point x="408" y="234" type="line"/>
      <point x="155" y="234" type="line"/>
      <point x="26" y="0" type="line"/>
      <point x="2" y="0" type="line"/>
      <point x="385" y="698" type="line"/>
      <point x="789" y="698" type="line"/>
      <point x="789" y="678" type="line"/>
      <point x="430" y="678" type="line"/>
      <point x="430" y="364" type="line"/>
      <point x="777" y="364" type="line"/>
      <point x="777" y="344" type="line"/>
      <point x="430" y="344" type="line"/>
      <point x="430" y="20" type="line"/>
      <point x="789" y="20" type="line"/>
      <point x="789" y="0" type="line"/>
    </contour>
    <contour>
      <point x="408" y="678" type="line"/>
      <point x="397" y="678" type="line"/>
      <point x="165" y="253" type="line"/>
      <point x="408" y="253" type="line"/>
    </contour>
  </outline>
</glyph>
<glyph name="oslashacute" format="2">
  <advance width="548"/>
  <unicode hex="01FF"/>
  <outline>
    <contour>
      <point x="54" y="-26" type="line"/>
      <point x="119" y="54" type="line"/>
      <point x="173" y="-12"/>
      <point x="273" y="-12" type="qcurve"/>
      <point x="373" y="-12"/>
      <point x="483" y="121"/>
      <point x="483" y="253" type="qcurve"/>
      <point x="483" y="375"/>
      <point x="434" y="442" type="qcurve"/>
      <point x="506" y="531" type="line"/>
      <point x="492" y="542" type="line"/>
      <point x="423" y="457" type="line"/>
      <point x="368" y="518"/>
      <point x="273" y="518" type="qcurve"/>
      <point x="173" y="518"/>
      <point x="63" y="385"/>
      <point x="63" y="253" type="qcurve"/>
      <point x="63" y="138"/>
      <point x="108" y="69" type="qcurve"/>
      <point x="40" y="-15" type="line"/>
    </contour>
    <contour>
      <point x="273" y="7" type="qcurve"/>
      <point x="179" y="7"/>
      <point x="132" y="70" type="qcurve"/>
      <point x="421" y="426" type="line"/>
      <point x="460" y="370"/>
      <point x="460" y="277" type="qcurve"/>
      <point x="460" y="229" type="line"/>
      <point x="460" y="126"/>
      <point x="364" y="7"/>
    </contour>
    <contour>
      <point x="121" y="85" type="line"/>
      <point x="86" y="141"/>
      <point x="86" y="229" type="qcurve"/>
      <point x="86" y="277" type="line"/>
      <point x="86" y="380"/>
      <point x="182" y="499"/>
      <point x="273" y="499" type="qcurve"/>
      <point x="363" y="499"/>
      <point x="410" y="441" type="qcurve"/>
    </contour>
    <contour>
      <point x="257" y="587" type="line"/>
      <point x="372" y="739" type="line"/>
      <point x="353" y="751" type="line"/>
      <point x="242" y="597" type="line"/>
    </contour>
  </outline>
</glyph>
<glyph name="Scommaaccent" format="2">
  <advance width="547"/>
  <unicode hex="0218"/>
  <outline>
    <contour>
      <point x="276" y="-12" type="qcurve"/>
      <point x="374" y="-12"/>
      <point x="489" y="83"/>
      <point x="489" y="178" type="qcurve"/>
      <point x="489" y="247"/>
      <point x="454" y="291" type="qcurve"/>
      <point x="417" y="341"/>
      <point x="312" y="362" type="qcurve"/>
      <point x="242" y="375" type="line"/>
      <point x="80" y="400"/>
      <point x="80" y="534" type="qcurve"/>
      <point x="80" y="613"/>
      <point x="180" y="690"/>
      <point x="269" y="690" type="qcurve"/>
      <point x="337" y="690"/>
      <point x="429" y="646"/>
      <point x="459" y="602" type="qcurve"/>
      <point x="477" y="615" type="line"/>
      <point x="413" y="710"/>
      <point x="271" y="710" type="qcurve"/>
      <point x="174" y="710"/>
      <point x="58" y="623"/>
      <point x="58" y="534" type="qcurve"/>
      <point x="58" y="466"/>
      <point x="95" y="423" type="qcurve"/>
      <point x="133" y="374"/>
      <point x="236" y="354" type="qcurve"/>
      <point x="306" y="341" type="line"/>
      <point x="371" y="331"/>
      <point x="418" y="297" type="qcurve"/>
      <point x="467" y="256"/>
      <point x="467" y="176" type="qcurve"/>
      <point x="467" y="93"/>
      <point x="367" y="8"/>
      <point x="276" y="8" type="qcurve"/>
      <point x="137" y="8"/>
      <point x="60" y="115" type="qcurve"/>
      <point x="42" y="102" type="line"/>
      <point x="125" y="-12"/>
    </contour>
    <contour>
      <point x="252" y="-212" type="line"/>
      <point x="273" y="-189"/>
      <point x="297" y="-125"/>
      <point x="297" y="-99" type="qcurve"/>
      <point x="297" y="-88" type="line"/>
      <point x="297" y="-66"/>
      <point x="277" y="-66" type="qcurve"/>
      <point x="275" y="-66" type="line"/>
      <point x="251" y="-66"/>
      <point x="251" y="-88" type="qcurve"/>
      <point x="251" y="-96" type="line"/>
      <point x="251" y="-116"/>
      <point x="279" y="-116" type="qcurve"/>
      <point x="277" y="-134"/>
      <point x="256" y="-187"/>
      <point x="234" y="-212" type="qcurve"/>
    </contour>
  </outline>
</glyph>
<glyph name="scommaaccent" format="2">
  <advance width="462"/>
  <unicode hex="0219"/>
  <outline>
    <contour>
      <point x="236" y="-12" type="qcurve"/>
      <point x="314" y="-12"/>
      <point x="403" y="59"/>
      <point x="403" y="125" type="qcurve"/>
      <point x="403" y="191"/>
      <point x="325" y="256"/>
      <point x="258" y="265" type="qcurve"/>
      <point x="214" y="272" type="line"/>
      <point x="149" y="282"/>
      <point x="87" y="333"/>
      <point x="87" y="390" type="qcurve"/>
      <point x="87" y="444"/>
      <point x="164" y="499"/>
      <point x="227" y="499" type="qcurve"/>
      <point x="287" y="499"/>
      <point x="354" y="458"/>
      <point x="377" y="431" type="qcurve"/>
      <point x="393" y="445" type="line"/>
      <point x="335" y="518"/>
      <point x="226" y="518" type="qcurve"/>
      <point x="159" y="518"/>
      <point x="66" y="454"/>
      <point x="66" y="389" type="qcurve"/>
      <point x="66" y="323"/>
      <point x="143" y="261"/>
      <point x="210" y="252" type="qcurve"/>
      <point x="254" y="245" type="line"/>
      <point x="317" y="236"/>
      <point x="382" y="181"/>
      <point x="382" y="124" type="qcurve"/>
      <point x="382" y="10"/>
      <point x="236" y="7" type="qcurve"/>
      <point x="124" y="7"/>
      <point x="67" y="93" type="qcurve"/>
      <point x="49" y="81" type="line"/>
      <point x="84" y="31"/>
      <point x="175" y="-12"/>
    </contour>
    <contour>
      <point x="215" y="-212" type="line"/>
      <point x="236" y="-189"/>
      <point x="260" y="-125"/>
      <point x="260" y="-99" type="qcurve"/>
      <point x="260" y="-88" type="line"/>
      <point x="260" y="-66"/>
      <point x="240" y="-66" type="qcurve"/>
      <point x="238" y="-66" type="line"/>
      <point x="214" y="-66"/>
      <point x="214" y="-88" type="qcurve"/>
      <point x="214" y="-96" type="line"/>
      <point x="214" y="-116"/>
      <point x="242" y="-116" type="qcurve"/>
      <point x="240" y="-134"/>
      <point x="219" y="-187"/>
      <point x="197" y="-212" type="qcurve"/>
    </contour>
  </outline>
</glyph>
<glyph name="uni0237" format="2">
  <advance width="231"/>
  <unicode hex="0237"/>
  <outline>
    <contour>
      <point x="20" y="-200" type="line"/>
      <point x="20" y="-181" type="line"/>
      <point x="105" y="-181" type="line"/>
      <point x="105" y="506" type="line"/>
      <point x="126" y="506" type="line"/>
      <point x="126" y="-171" type="line" smooth="yes"/>
      <point x="126" y="-200"/>
      <point x="97" y="-200" type="qcurve" smooth="yes"/>
    </contour>
  </outline>
</glyph>
<glyph name="uni0259" format="2">
  <advance width="533"/>
  <unicode hex="0259"/>
  <outline>
    <contour>
      <point x="265" y="-12" type="qcurve" smooth="yes"/>
      <point x="174" y="-12"/>
      <point x="60" y="125"/>
      <point x="60" y="240" type="qcurve" smooth="yes"/>
      <point x="60" y="250" type="line"/>
      <point x="450" y="250" type="line"/>
      <point x="450" y="277" type="line" smooth="yes"/>
      <point x="450" y="380"/>
      <point x="352" y="499"/>
      <point x="261" y="499" type="qcurve" smooth="yes"/>
      <point x="132" y="499"/>
      <point x="85" y="375" type="qcurve"/>
      <point x="68" y="382" type="line"/>
      <point x="91" y="446"/>
      <point x="188" y="518"/>
      <point x="261" y="518" type="qcurve" smooth="yes"/>
      <point x="361" y="518"/>
      <point x="473" y="385"/>
      <point x="473" y="253" type="qcurve" smooth="yes"/>
      <point x="473" y="122"/>
      <point x="363" y="-12"/>
    </contour>
    <contour>
      <point x="265" y="7" type="qcurve" smooth="yes"/>
      <point x="354" y="7"/>
      <point x="450" y="126"/>
      <point x="450" y="231" type="qcurve"/>
      <point x="83" y="231" type="line"/>
      <point x="83" y="227" type="line" smooth="yes"/>
      <point x="83" y="127"/>
      <point x="183" y="7"/>
    </contour>
  </outline>
</glyph>
<glyph name="caronmod" format="2">
  <advance width="600"/>
  <unicode hex="02C7"/>
  <outline>
    <contour>
      <point x="312" y="603" type="line"/>
      <point x="440" y="736" type="line"/>
      <point x="426" y="747" type="line"/>
      <point x="300" y="620" type="line"/>
      <point x="174" y="747" type="line"/>
      <point x="160" y="736" type="line"/>
      <point x="288" y="603" type="line"/>
    </contour>
  </outline>
</glyph>
<glyph name="brevemod" format="2">
  <advance width="600"/>
  <unicode hex="02D8"/>
  <outline>
    <contour>
      <point x="300" y="606" type="qcurve"/>
      <point x="350" y="606"/>
      <point x="404" y="666"/>
      <point x="428" y="715" type="qcurve"/>
      <point x="432" y="723" type="line"/>
      <point x="416" y="730" type="line"/>
      <point x="401" y="703" type="line"/>
      <point x="376" y="656"/>
      <point x="332" y="625"/>
      <point x="300" y="625" type="qcurve"/>
      <point x="266" y="625"/>
      <point x="247" y="641" type="qcurve"/>
      <point x="224" y="656"/>
      <point x="199" y="703" type="qcurve"/>
      <point x="184" y="730" type="line"/>
      <point x="168" y="723" type="line"/>
      <point x="172" y="715" type="line"/>
      <point x="196" y="666"/>
      <point x="248" y="606"/>
    </contour>
  </outline>
</glyph>
<glyph name="dotaccentmod" format="2">
  <advance width="600"/>
  <unicode hex="02D9"/>
  <outline>
    <contour>
      <point x="300" y="642" type="qcurve"/>
      <point x="323" y="642"/>
      <point x="323" y="663" type="qcurve"/>
      <point x="323" y="670" type="line"/>
      <point x="323" y="691"/>
      <point x="300" y="691" type="qcurve"/>
      <point x="277" y="691"/>
      <point x="277" y="670" type="qcurve"/>
      <point x="277" y="663" type="line"/>
      <point x="277" y="642"/>
    </contour>
  </outline>
</glyph>
<glyph name="ringmod" format="2">
  <advance width="600"/>
  <unicode hex="02DA"/>
  <outline>
    <contour>
      <point x="300" y="589" type="qcurve"/>
      <point x="341" y="589"/>
      <point x="390" y="639"/>
      <point x="390" y="680" type="qcurve"/>
      <point x="390" y="721"/>
      <point x="341" y="771"/>
      <point x="300" y="771" type="qcurve"/>
      <point x="259" y="771"/>
      <point x="210" y="721"/>
      <point x="210" y="680" type="qcurve"/>
      <point x="210" y="639"/>
      <point x="259" y="589"/>
    </contour>
    <contour>
      <point x="300" y="607" type="qcurve"/>
      <point x="230" y="607"/>
      <point x="230" y="685" type="qcurve"/>
      <point x="230" y="716"/>
      <point x="268" y="753"/>
      <point x="300" y="753" type="qcurve"/>
      <point x="370" y="753"/>
      <point x="370" y="675" type="qcurve"/>
      <point x="370" y="644"/>
      <point x="332" y="607"/>
    </contour>
  </outline>
</glyph>
<glyph name="ogonek" format="2">
  <advance width="600"/>
  <unicode hex="02DB"/>
  <outline>
    <contour>
      <point x="239" y="-202" type="qcurve" smooth="yes"/>
      <point x="205" y="-202"/>
      <point x="160" y="-168"/>
      <point x="160" y="-135" type="qcurve" smooth="yes"/>
      <point x="160" y="-105"/>
      <point x="210" y="-38"/>
      <point x="279" y="2" type="qcurve"/>
      <point x="274" y="11" type="line"/>
      <point x="294" y="16" type="line"/>
      <point x="300" y="0" type="line"/>
      <point x="241" y="-37"/>
      <point x="181" y="-95"/>
      <point x="181" y="-132" type="qcurve" smooth="yes"/>
      <point x="181" y="-184"/>
      <point x="240" y="-184" type="qcurve" smooth="yes"/>
      <point x="279" y="-184"/>
      <point x="300" y="-159" type="qcurve"/>
      <point x="314" y="-170" type="line"/>
      <point x="293" y="-202"/>
    </contour>
  </outline>
</glyph>
